<svg xmlns="http://www.w3.org/2000/svg" xml:space="preserve" style="fill-rule:evenodd;clip-rule:evenodd;stroke-linejoin:round;stroke-miterlimit:2" viewBox="0 0 4491 2724">
  <path d="M1002.04 167.471c-1.38 3.022-3.4 2.461-6.136 1.767-3.103-.787-6.526-.36-9.809-.372-2.768-.009-5.441-.676-8.343.418-2.005.754-4.635-.146-6.984-.306-.14-.324-.278-.651-.418-.977.303-.077.604-.215.911-.224 5.122-.151 9.86-2.541 15.338-1.466 5.168 1.014 10.671.252 16.021.427 2.42.077 4.83.527 7.24.836 2.59.332 5.16.699 7.75 1.049.01-.384.03-.771.04-1.158l-2.15-.61 8.04-2.349c.68.891 1.32 1.733 1.95 2.567-9.84 4.816-19.13 4.879-23.45.398Zm-77.625 58.588c-2.014 3.097-3.566 4.761-5.764-.089-1.063-2.34-4.532-1.269-6.72 1.647-.78 1.035-1.931 1.785-2.914 2.668-.195-.218-.387-.439-.584-.654 3.386-3.781 6.772-7.566 9.751-10.892 2.728.53 4.49.874 6.75 1.315.404 1.166.908 2.636 1.475 4.28-.67.562-1.53 1.015-1.994 1.725Zm24.964-17.129c.25.167.502.338.751.508-1.619 2.234-3.1 4.58-4.893 6.66-1.421 1.647-3.192 2.868.458 3.879.966.269 1.716 1.329 2.567 2.023l-6.99 7.752-2.338.418c-.931-1.739-1.956-3.131-2.421-4.695-.32-1.098-.303-2.736.316-3.573 1.051-1.415 2.701-2.389 4.686-4.039l-5.288-3.779c4.223-1.656 8.689-3.406 13.152-5.154Zm-58.691 121.087c1.177-.776 2.636-1.129 3.464-1.467 1.2-1.985 2.188-3.692 3.248-5.354 1.057-1.659 2.18-3.274 3.435-5.145.693.049 1.934.137 3.249.232l.813 4.22c.576.73 1.711 1.544 1.613 2.166-.215 1.392-.719 3.495-1.687 3.89-5.145 2.123-8.844 5.873-12.373 9.915 1.246-.782 2.498-1.553 3.736-2.352 4.371-2.836 8.737-5.684 13.86-9.018l-.719 4.735 5.804.642c-4.813 4.094-9.423 8.018-14.127 12.026-.945-.656-1.959-1.358-2.822-1.953 1.02-1.676 1.977-3.258 2.937-4.842l-.989-.817c-1.108.846-2.366 1.553-3.291 2.565-1.88 2.062-3.501 2.039-5.125-.201-3.424 1.951-2.593-.659-2.57-2.401-2.659-2.91-2.421-4.217 1.544-6.841Zm-9.13-165.935c-.507-1.158-1.438-2.306-1.458-3.475-.152-7.841-.121-15.685-.118-23.529 0-1.235.146-2.469.645-3.707 2.186 10.021 1.063 20.231 1.945 30.316-.338.134-.676.263-1.014.395Zm-31.562 4.311c1.848-.79 3.275-1.902 4.679-1.867 1.506.037 2.988 1.641 4.486 1.658 1.736.02 3.486-.945 5.351-1.071-2.234 2.209-11.499 3.042-14.516 1.28Zm-14.627 1.166c-1.315-.435-2.943-.467-4.298-.143a26.96 26.96 0 0 1-2.69.516c-.005.014-.014.02-.02.034-.003-.011-.003-.02-.008-.028-2.73.363-5.378.128-7.873-1.539-3.927-2.621-7.958-1.793-12.78-.667 1.421 1.131 2.378 1.896 3.329 2.652-.106.061-.215.124-.323.184.123-.049.246-.098.369-.149l-.006-.006c.009.006.018.011.023.017l-.051-.051c.544.292 1.088.848 1.627.845 3.839-.037 5.738 1.753 4.452 5.431-1.395 3.994-3.916 7.584-5.83 11.405-.63 1.258-.796 2.736-1.352 4.037-.418.974-.911 2.168-1.734 2.667-2.351 1.435-3.509 3.398-3.586 6.07h.089a1.871 1.871 0 0 0-.098.078c0-.029.009-.049.009-.078-.828.038-1.685.084-3.071.155.882-1.18 1.447-1.931 2.693-3.598-6.469-.636-12.302-1.212-17.656-1.739-2.232.51-4.131 1.132-6.074 1.335-1.804.186-3.655-.155-5.483-.129-3.836.049-4.492 1.126-2.973 4.621.217.51.217 1.112.32 1.673l-.111-.092c.003.003.003.006.005.006a.282.282 0 0 1-.02.06c.026.006.052.009.075.015.71.936 1.412 1.87 2.12 2.804l9.339 1.759c.593-.272 1.739-.799 3.681-1.696-2.355 4.498-3.778 5.128-10.645 7.526-1.241.433-2.112 3.372-2.209 5.205-.095 1.771 1.034 3.604 1.753 5.807-3.329 5.192-.401 10.46 2.209 15.897.095-1.137.189-2.269.321-3.884h4.635c.831-1.845 1.498-3.326 2.163-4.807l.312.277c.628 1.089 1.249 2.178 2.074 3.607-.747 4.071-3.377 6.638-7.955 7.692-1.421.329-2.487 2.215-3.1 3.936-1.547.313-3.088.682-4.65.917-.724.112-1.948.244-2.162-.109-1.565-2.569-3.218-1.593-4.696-.152-1.893 1.843-2.504 4.109-1.12 6.546.424.745 1.195 1.295 1.977 2.115-.731.911-1.424 1.77-1.579 1.965-2.151-.106-3.595-.467-4.901-.189-7.506 1.584-13.9 5.976-20.988 8.566-11.777 4.303-23.772 8.007-35.675 11.972-.639.214-1.453.335-1.848.787-1.67 1.911-3.048 1.742-4.85.026-1-.954-2.636-1.246-3.985-1.836-.172.232-.341.467-.513.702l1.195 2.194c-2.269.444-4.338.851-6.844 1.344-.399-.882-.877-1.934-1.476-3.249 1.756-.163 3.083-.289 4.59-.433.131-1.223.249-2.314.369-3.411.192-.115.384-.336.559-.321 9.044.83 15.372-3.054 18.813-11.629 2.701-6.732 2.739-13.845 3.017-20.947.212-5.478.819-10.938 1.317-16.398.075-.857.496-1.682 1.023-2.478 2.733 11.889-.613 23.766.072 35.793.576.132 1.126.189 1.624.384 3.739 1.423 5.188.713 5.455-3.381.389-6.042.338-12.115.55-18.171.183-5.363.409-10.729.745-16.083.077-1.192.687-2.35 1.306-4.346 2.306 5.658 2.601 10.746 2.243 15.865-.513 7.308-1.301 14.593-1.871 21.899-.103 1.326.295 2.69.519 4.477-4.12 2.584-8.738 5.484-13.356 8.38 5.538-2.02 13.241-.381 14.952-8.91l3.721.745c-.344-.974-1.037-1.942-.791-2.383 4.707-8.44 3.661-17.768 4.389-26.841.456-5.672 1.37-11.31 2.129-16.954.066-.492.53-.934 1.02-1.747.507.768 1.114 1.257 1.103 1.727-.258 8.99-.533 17.98-.931 26.967-.129 2.925 1.781 3.707 3.853 3.466 1.979-.229 4.526-.14 4.635-3.644.266-8.46 1.003-16.905 1.326-25.368.032-.845-1.309-2.263-2.249-2.512-1.587-.421-3.366-.115-5.065-.115a93.525 93.525 0 0 0-.756-.962l5.128-7.002c-1.129-.756-3.973 2.604-5.065-.919-2.326.355-4.944.759-8.165 1.254 1.951-7.064 10.337-5.692 11.932-10.674 2.415-.516 4.343-.567 5.928-1.332 5.045-2.432 9.989-5.085 14.908-7.775 1.043-.57 1.811-1.65 2.704-2.495.487-.459.912-1.207 1.473-1.333 4.406-1.002 8.781-1.971 12.256-5.239.252-.235 1.787.891 3.36 1.716.175-.356.67-1.375 1.08-2.221 1.561-.742 3.214-1.529 4.87-2.314 1.971.094 4.295 1.031 4.856-2.756 4.567 1.724 7.629-1.35 11.021-3.086.716-.364.682-2.042 1.175-3.025.667-1.329-.785-3.75 2.042-4.059.095-.009-.043-1.427.066-2.172.264-1.833.607-3.658.92-5.489l.034.003.026-.106c-.02.029-.04.057-.057.086-1.017-.785-2.278-1.398-2.977-2.401-1.163-1.673-1.046-3.194.481-3.266 1.034-1.747 1.874-2.793 2.298-3.987.392-1.109.885-2.742.375-3.498-1.452-2.166-3.395-4.005-5.526-6.403 4.672-.358 8.359 4.051 12.453-.287.101.401.201.808.304 1.212-.636.831-1.275 1.665-1.301 1.696.424 1.934 1.424 3.799.886 4.535-2.668 3.644-1.568 6.884.455 10.162-3.143 1.908-3.229 2.681-.607 5.322 2.143 2.16 1.441 3.765-1.298 5.389l.284-3.761a77.37 77.37 0 0 0-.949-.364c-.899 2.506-1.802 5.01-2.956 8.23h15.57c.43 1.782.696 2.885 1.152 4.765.011-.003.02-.003.028-.006 2.481-4.784 6.4-5.097 9.033-1.476 2.069-1.234 4.154-2.478 6.942-4.139-1.06 4.793-5.054 6.543-8.987 5.242Zm-30.728 31.379v-.003a8.78 8.78 0 0 0 0 .003c-.651.974-1.298 1.948-1.948 2.922.65-.977 1.297-1.951 1.948-2.922Zm-128.81 5.898c-.476.118-1.854-1.197-1.848-1.842.005-1.177.412-2.965 1.232-3.395 1.498-.79 3.426-.753 5.165-1.114 1.656-.344 3.294-.756 4.927-1.137.186 1.366-.089 3.039.622 3.922 3.042 3.773.567 5.274-2.429 6.743-2.152-2.028-4.255-4.025-7.669-3.177Zm-2.246-27.379c3.156 0 5.766.081 8.368-.028 2.051-.086 2.982.839 2.988 2.784.02 5.214.008 10.425.008 16.009-3.695.163-7.173 2.595-10.898-.453 1.172-.455 2.341-.911 3.51-1.366-.04-.198-.083-.396-.126-.591-1.393.253-2.785.507-3.85.705v-17.06Zm.125-84.926c3.484 4.984 8.048-1.868 12.591 1.125-.255 5.609-.524 11.482-.793 17.358-2.344 2.203-5.853 3.378-6.518 7.159 3.112 1 4.962.318 5.355-3.071.14-1.195.802-2.329 1.223-3.489.327 3.065.538 6.147 1.006 9.19.415 2.71.166 4.618-3.392 3.862 1.346 1.687 3.446 3.171 3.477 4.698.029 1.341-2.269 2.73-3.701 4.274 5.306 1.733 2.985 5.753 2.69 9.239-1.323.324-2.613.407-3.678.931-4.856 2.387-8.225.533-8.245-4.79-.052-15.415-.015-30.836-.015-46.486Zm9.941-34.524c-.389-.238.129-1.977.241-3.146 3.297 2.919 5.738 5.08 8.569 7.583l2.796-4.417c.745 1.217 1.567 2.163 1.936 3.257.596 1.785-.997 3.501-2.569 2.73a135.789 135.789 0 0 1-10.973-6.007Zm20.475 144.105c-3.65 2.793-7.279 1.04-10.754 1.902-.126-1.206-.287-2.083-.298-2.962-.089-6.861-.086-13.72-.258-20.578-.049-1.845.476-2.896 2.352-2.925 3.432-.054 6.864-.014 10.035-.014 0 4.42.046 7.841-.011 11.264-.066 3.796-.224 7.589-.353 11.654-2.538-1.22-4.248-2.04-5.955-2.859l-.37.696c1.713 1.169 3.429 2.335 5.612 3.822Zm1.562-61.949c.02 2.45-.837 3.14-3.1 3.378-2.243.235-4.421 1.037-6.724 1.616.169-.725.45-1.957.736-3.189-.229.135-.455.272-.682.407-.908-1.473-2.394-2.865-2.615-4.435-.839-6.007-.988-12.038 2.091-17.624-.547-.424-1.524-.831-1.541-1.275-.201-5.254-.318-10.517-.275-15.774.006-.762.986-1.512 1.679-2.506-.731-2.286-1.593-4.979-2.475-7.746 3.818 0 6.746-.029 9.677.008 2.297.032 3.289.86 3.254 3.55-.174 14.527-.143 29.06-.025 43.59ZM681.179 36.326c4.756-4.735 9.187-9.972 17.132-9.038-.814 2.403-1.55 4.578-2.252 6.658-1.315.226-3.581.057-4.939 1.085-.719.545.14 3.172.266 4.63 3.255-.977 5.959-2.487 8.586-2.366 2.455.111 4.833 1.959 7.735 2.541-1.103-1.401-2.266-2.759-3.286-4.22-.401-.582-.739-1.413-.667-2.083.366-3.552.412-3.546-2.378-5.208 5.543-2.066 14.854 3.678 15.458 9.683l-4.331.215c-.003.071-.003.146-.003.218 1.003.097 2.011.192 2.487.237.876 1.467 2.372 2.951 2.065 3.662-.69 1.604-2.134 3.83-3.509 4.013-3.81.507-6.604 2.28-9.635 5.42 1.757-.564 2.865-.919 4.014-1.286-1.693 5.896 4.005 4.271 6.377 6.856v-3.166c4.564-.172 2.338-4.005 3.458-6.366.765-.04 1.702-.091 2.785-.151-.542 2.117-.447 4.577-1.631 5.812-2.727 2.845-2.778 7.784-7.44 9.093-2.993.842-5.821 2.257-8.794 3.191-.682.212-1.656-.495-2.493-.779 1.802-5.526.264-7.921-5.062-8.457-.908-.091-2.12-.524-2.578-1.209-1.817-2.704-3.401-5.563-5.062-8.371-.012.003-.023.006-.035.006.613 1.911.212 3.157-2.108 3.455-1.318.172-2.587.685-3.951 1.06l-.126-2.618-2.283 2.538-.765-.467c.539-.837.925-2.192 1.65-2.407 2.464-.736 5.045-1.074 7.583-1.561v-.011c-3.016-.006-6.027-.006-9.714-.006 1.381-1.407 2.71-2.856 4.137-4.2 2.81-2.641 2.672-4.306-.691-6.403Zm36.18 107.573c-.313-.418-2.67.699-4.22 1.143-.212-.512-.527-.911-.519-1.306.201-9.929.49-19.856.636-29.785.046-3.048-.335-6.102-.412-9.153-.069-2.796-.149-5.606.155-8.371.065-.596 1.744-1.424 2.692-1.438 3.166-.052 6.34.215 9.511.361v50.463c-2.489-1.644-5.606 1.071-7.843-1.914Zm-4.318 52.18c-.128-2.134-.3-4.134-.352-6.134-.069-2.916-.246-5.853.069-8.729.083-.742 1.79-1.756 2.827-1.853 2.814-.255 5.667-.089 9.191-.089 0 6.219.014 11.998-.009 17.77-.009 2.206-.034 4.415-.175 6.615-.123 1.937-1.438 2.387-3.134 2.2-2.484-.269-4.964-.53-7.434-.793-1.464-7.108-1.355-7.58 2.799-9.463-2 .252-2.994.378-3.782.476Zm-35.632 226.294c.063-.29.089-.539.06-.74.029.201.003.45-.06.74Zm3.822 78.418c1.38-.212 2.263-.344 3.715-.564-.518 6.024-1.002 11.596-1.484 17.168-.455.015-.914.035-1.372.052-.748-3.14-1.914-6.26-2.043-9.422-.048-1.258 2.195-2.607 3.662-4.212-.676-.828-1.373-1.673-2.478-3.022Zm27.462-38.924c-3.727 1.653-7.498 3.32-11.273 4.996l.017-.017-.006.009c3.764-1.668 7.535-3.335 11.262-4.988Zm-15.035 3.962c1.453.358 2.656.653 3.828.945.512-.67 1.028-1.34 1.845-2.418-.82 1.08-1.335 1.754-1.84 2.418h-.005c-.003.003-.003.006-.006.006a692.968 692.968 0 0 0-3.822-.951Zm.991-8.096Zm.788-.278c-.209.075-.444.115-.644.201.2-.086.435-.129.644-.201Zm1.43-.444c.003 0 .006-.003.008-.003v-.003l.069-.017c-.026.006-.046.014-.069.02-.134.656-.272 1.315-.412 2.014.137-.693.272-1.352.404-2.011Zm-16.948 102.987a.138.138 0 0 1 .034-.012c-.012.003-.026.009-.034.012Zm-32.917-2.02c-5.807-.404-11.64-.441-17.455-.759-.585-.034-1.109-1.037-1.914-1.848l-1.324 1.427c-2.352.149-4.165.378-5.981.355-4.312-.048-8.626-.372-12.935-.289-2.976.054-5.939.639-8.912.928-.722.069-1.513.063-2.189-.158-2.243-.721-4.449-1.555-7.136-2.512a2723.93 2723.93 0 0 0 3.781-3.484c2.169 1.631 3.974 3.498 6.163.367.75-1.074 7.76-.12 9.261.467 1.413.556 3.112.679 4.65.562 5.068-.387 9.852-2.054 14.728-3.361 1.447-.389 3.335 1.143 5.079 1.51 2.031.43 4.131.581 6.205.782 2.882.284 5.825.269 8.629.885.906.204 1.937 1.957 2.054 3.089.149 1.466-.856 2.165-2.704 2.039Zm-41.964-118.216c-3.117-.888-6.168-1.753-9.224-2.627.504 1.083 1.108 1.962 1.787 2.63-.682-.67-1.286-1.547-1.79-2.633 3.059.877 6.11 1.742 9.227 2.63Zm65.988-8.755c-.146.143-.289.292-.441.404.152-.112.295-.261.441-.404Zm2.349-4.094c.399-1.171.805-2.374 1.249-3.692-.444 1.315-.85 2.518-1.249 3.692Zm3.713-3.578c.077-.183.112-.335.166-.501-.054.166-.089.318-.166.501Zm-.518 1.098c.086-.158.143-.304.22-.462-.077.158-.134.304-.22.462Zm-.676 1.163c.105-.172.197-.341.297-.51-.1.169-.192.338-.297.51Zm-.78 1.131c.017-.023.029-.048.043-.069-.014.021-.026.046-.043.069Zm-3.89 4.1c.106-.109.203-.227.304-.341-.101.114-.198.232-.304.341Zm1.223-1.547c.055-.023.112-.08.166-.106-.003.003-.003.003-.003.005h.003c-.023.061-.046.127-.068.19.022-.063.042-.129.065-.19-.054.026-.108.081-.16.104l.003.002.011.17-.005.005c-.098.095-.189.206-.287.312.098-.106.189-.217.287-.312l-.012-.18Zm377.653 50.392c-.36-6.283-1-12.542-1.38-18.822-.18-2.922-.03-5.87-.03-8.428 1.45-.255 2.63-.341 3.73-.679 2.36-.717 3.83.298 3.02 2.641-.82 2.372-.07 4.452-.08 6.661-.02 4.257 1.6 8.832-1.56 12.783-.41.521-.22 1.529-.34 2.635.75-.338 1.25-.561 2.08-.934-.56 4.69 1.03 9.511-3.76 13.029-1.22.903-.91 3.819-1.41 5.781-.65 2.527-2.07 4.063-5.3 3.381 4.64-5.286 5.4-11.554 5.03-18.048Zm-509.898 22.345c-.243.986-2.492 2.441-3.283 2.152-3.968-1.444-3.819.959-4.008 3.569-.636 8.881-1.378 17.753-2.644 26.689-5.432-7.575-2.662-16.527-4.71-24.732.404 6.815.705 13.636 1.261 20.44.232 2.842-1.782 4.254-3.558 4.564-2.315.401-2.187 1.547-2.072 3.011.317 4.031.731 8.047 1.075 12.075.06.676.203 1.55-.135 2.014-.762 1.057-1.8 1.913-2.727 2.85-.781-.916-2.182-1.799-2.238-2.758-.346-5.822-.53-11.663-.481-17.496.04-4.346-.347-4.89-4.515-4.18-5.303.906-6.457.774-10.534-1.412 3.527-.435 3.581-2.701 3.555-5.185-.023-2.584.244-5.174.396-7.959 4.145.542 1.988 3.676 2.678 4.839.579-2.948 1.289-6.328 1.894-9.735.344-1.925-.401-3.025-2.544-3.082-.997-.029-2.109-.278-2.934-.799-1.564-.989-4.013-2.043-.532-3.919.77-.416 1.18-1.502 2.102-2.745.519 2 .903 3.467 1.364 5.231 1.263-1.547 2.567-2.518.842-4.52-1.974-2.287-.473-6.337 3.025-7.555-.985-.762-1.899-1.189-2.372-1.908-.607-.925-.856-2.08-1.26-3.137.851-.295 1.747-.934 2.544-.825 3.627.499 6.242-.842 8.273-3.804 1.065-1.544 2.433-2.88 3.011-3.55-1.965-2.644-3.323-4.738-4.953-6.589-1.399-1.587-3.077-3.005-5.188-1.452-.822-2.043-1.656-4.111-2.49-6.177l-1.148-.135c.859-.89 1.684-1.819 2.598-2.65.301-.277.988-.183 1.229-.478.595-.736 1.034-1.598 1.535-2.406.364 1.197.745 2.389 1.081 3.595.117.43.127.891.32 2.283l.294-3.776c1.611-.383 3.158-.681 4.664-1.123 2.585-.762 4.581-1.008 5.135 2.659.149.977 2.386 1.641 4.048 2.693-1.206.275-2.458.556-3.69.836 1.338 2.799 3.888 3.728 8.821 3.086.716 1.667.728 2.581-1.61 2.913-1.369.195-3.011 1.315-3.759 2.501-1.767 2.802-1.578 2.92-4.985 2.581 1.078 2.928 2.095 5.679 3.106 8.426a.282.282 0 0 1 .046-.023v.003c.003.028.003.051.003.077 0-.023 0-.049-.003-.077-.015.008-.032.014-.046.023v-.003c-.02.008-.037.02-.057.026v.003c.647 2.93-.94 6.511 2.781 8.723 2.332-1.192 3.911-.567 4.894 2.269.355 1.011 2.013 1.979 3.205 2.174 1.415.235 3.114.221 2.696 1.885Zm-35.16 36.678-.851-.942 4.518-.737c.275 5.779.524 11.087.799 16.843l-4.477.79c-1.536-3.89-.393-7.351.344-10.903.329-1.593-.198-3.36-.333-5.051Zm-20.26-30.55c.341-4.607-.255-5.162-5.388-4.569v15.037c-.25.017-.499.031-.748.046-.381-5.398-.765-10.798-1.146-16.192-.427-.006-.854-.009-1.283-.014-.198.75-.396 1.506-.702 2.675-4.312-2.294-7.867-9.365-13.027-1.73-1.919-3.22.198-5.641 5.269-6.583-.238-1.742-.476-3.51-.788-5.83 2.028-.135 3.922-.264 5.813-.387.077-.805.229-2.332.406-4.154-1.171-.934-2.655-2.117-4.188-3.343l-3.993 3.541c0-2.587.567-5.154-.138-7.303-.945-2.87-3.876-1.678-6.096-1.805-.003.035-.009.058-.012.092h-.003a22.567 22.567 0 0 0-.074-.092c.029.003.06 0 .089 0 .26-2.979 1.426-3.976 4.392-2.265 1.787 1.031 3.878 1.541 6.517 2.543-.037.23-.229 1.476-.47 3.029 1.352-1.768 2.375-3.478 3.759-4.805 1.481-1.421 3.306-2.483 5.437-4.036.453-2.61.255-5.635-1.997-8.406-.481-.593-.154-2.853.281-3.013 2.14-.777 1.848-2.407 1.719-3.922-.349-4.023-1.005-8.028-1.186-12.055-.095-2.049.57-4.126.891-6.191.401.046.802.086 1.2.132v37.454c-.985.504-2.793 1.092-4.177 2.206-3.076 2.472-3.114 4.352-.753 8.102 1.057 1.673 1.851 3.52 2.988 5.13.484.685 1.55.96 2.79 1.676-.298 1.751-.656 3.865-1.077 6.326 3.561 1.103 7.526 2.326 11.723 3.627.384-1.244.759-2.478 1.14-3.707.272.023.542.051.811.077.206.745.409 1.487.662 2.398.484-.301 1.008-.53.985-.625-.349-1.429-.496-3.011-1.238-4.222-1.357-2.221-.753-3.023 1.86-3.218v2.072c2.426 1.873 4.222 3.251 6.013 4.638 2.392 1.859.702 3.816.083 5.701-.53 1.63-1.765 3.205-1.753 4.798.023 3.756.682 7.497.934 11.259.203 3.014.008 6.059.332 9.056.178 1.655 1.054 3.24 1.773 5.314-.051.074-1.025.842-.974 1.541.318 4.415-1.985 4.793-5.449 3.567 0 2.555-.005 4.924 0 7.288.003 2.26.296 4.678-3.417 5.446v-19l-5.822-.335c0-3.443-.077-6.838.026-10.227.08-2.739.258-5.486.642-8.196.14-1.006.985-1.917 1.387-2.647-3.856-.548-4.366-1.183-4.023-5.899Zm-26.803-29.258c.353-.175.47-.834.682-1.298-1.977-1.051-3.421.332-4.071 1.47.65-1.138 2.097-2.527 4.074-1.473-.003 0-.003.003-.003.003h.003c-.215.461-.33 1.123-.685 1.298Zm10.528-58.001Zm3.243-48.137c-.355-1.59-.561-2.891-.945-4.137-.278-.906-.607-1.92-1.24-2.57-1.152-1.183-2.542-2.131-3.828-3.174.209-.396.421-.785.633-1.178h5.002c-.811-2.151-1.51-4.008-2.458-6.543.08-.785.249-2.478.393-3.867l5.875 5.391c-.206.588-.756 1.848-1.06 3.16-.272 1.172-.278 2.401-.398 3.607.184-.095.367-.186.55-.278.673 1.819 1.344 3.641 2.017 5.463-.355-.034-.713-.068-1.069-.1-.948 1.152-1.893 2.303-3.472 4.226Zm-.601 65.555c.097.346.255.725.513 1.151h-.003a4.486 4.486 0 0 1-.51-1.151Zm.22-1.43c-.066.069-.14.141-.186.221.046-.08.12-.152.186-.221Zm1.175-.59c-.45.095-.805.244-1.054.444.249-.203.604-.349 1.054-.444Zm4.374-171.897-.398-.865c1.195-.556 2.367-1.49 3.59-1.561 1.361-.078 2.764.633 3.208.748.843-1.831 1.046-3.143 1.811-3.771 1.885-1.544 4.025-2.773 6.291-4.28.295 5.103 3.764 5.524 8.46 4.074.252-1.249.587-2.925 1.06-5.268 1.449.547 3.125 1.444 4.907 1.767 1.447.261 3.109.092 4.507-.381 1.171-.398 2.102-1.509 3.138-2.309.25.207.5.413.752.619-.496.739-.825 1.753-1.513 2.166-3.366 2.025-4.3 4.953-3.924 8.695.332 3.346-1.636 5.385-4.266 7.293-4.383 3.18-8.448 6.801-12.665 10.214-2.132 1.727-4.303 3.406-7.056 5.574l-2.181-8.459c1.642.114 2.822.197 4.762.338l-2.748-3.965c.628-.433 1.582-.911 2.295-1.63 1.35-1.358 2.286-2.69-.384-3.876-.853-.381-1.418-1.639-1.899-2.602-1.928-3.827-4.017-4.537-7.747-2.521Zm21.048 46.413c.072-.822 1.238-1.547 1.902-2.315.41.802 1.252 1.668 1.155 2.401-.994 7.305-1.037 7.299 6.463 7.108v-4.389c1.461 1.567 2.401 2.572 3.535 3.79 1.781-.754 4.002-1.688 5.695-2.401-.55-2.613-1.164-4.755-1.336-6.936-.036-.49 1.477-1.1 2.388-1.733 3.334 9.325 3.141 17.241-5.587 23.005-1.217-.459-2.463-.926-3.142-1.184l.404-7.425c-2.917.401-5.12 1.885-6.847-.702-.264-.393-2.137.183-3.226.473-2.507.664-4.991 1.426-7.635 2.194.155.705.355 1.63.639 2.925-2.627-.581-5.048-.759-7.09-1.73-.86-.41-1.344-2.541-1.195-3.796.1-.86 1.536-2.16 2.455-2.229 3.547-.261 7.128-.103 11.428-.103-.029-1.971-.229-4.481-.006-6.953Zm28.84 173.45c.026-.063.072-.109.1-.167-.028.058-.074.104-.1.167Zm3.868-1.702c-2.043.444-3.083.673-3.584 1.223.501-.55 1.538-.779 3.584-1.223Zm-3.937 4.529v-.003.003Zm-82.512 53.538c1.415-.416 2.831-.828 4.246-1.244-1.415.416-2.831.828-4.246 1.244.447 1.06.9 2.117 1.347 3.174-.447-1.057-.9-2.114-1.347-3.174Zm2.713-5.495-.011.14.011-.14Zm.562-.384Zm.527-.255Zm.496-.117Zm.902.197Zm-.438-.172Zm.848.493Zm.386.482c-.063-.095-.129-.164-.194-.244.065.08.131.149.194.244Zm-57.121-8.899h.003c.498 2.496 1.237 4.98 1.404 7.501-.167-2.521-.906-5.002-1.407-7.501Zm-194.154 11.803c.006.026.003.055.006.083-.003-.028 0-.057-.006-.083Zm-.169 1.908c.04-.117.092-.232.118-.352-.026.12-.078.235-.118.352Zm-.55 1.126Zm.742-2.054c.006-.069.023-.137.026-.209-.003.072-.02.14-.026.209Zm-118.368 6.437c.003-.008.003-.017.003-.023.031.021.066.041.097.061.473-1.464.934-2.92 1.324-4.166-.39 1.246-.848 2.702-1.315 4.174l-.009-.008a5.83 5.83 0 0 0-.097-.061l.08.081c-.017-.02-.08-.081-.08-.081 0 .009-.003.015-.003.023-.814-.601-1.627-1.2-2.553-1.89.928.69 1.745 1.292 2.553 1.89Zm377.413-207.019c-4.839 1.212-9.709 2.435-14.508 3.638.751-4.288.736-4.231 5.337-3.051.702.178 1.593-.495 2.418-.682.745-.169 1.521-.209 1.464-.203 1.67-2.146 2.925-3.756 4.441-5.698-.313-.831-.82-2.194-1.421-3.802h-5.423c1.776-4.122 2.042-4.202 8.01-2.463-2.043 2.85.223 4.199 2.475 5.85-1.943 1.79-3.681 3.4-5.756 5.314 1.141.421 2.072.767 2.963 1.097Zm-36.008 19.446a5734.227 5734.227 0 0 1-5.609-4.437c-.419.163-.837.32-1.252.481 0 1.335.129 2.69-.075 3.996-.066.43-1.1 1.132-1.495 1.017-1.585-.455-1.814-3.432-.427-4.512 1.249-.971 2.386-2.208 3.793-2.827 3.191-1.41 6.517-2.51 9.967-3.802.223-.504.495-1.558 1.094-2.366 1.779-2.404 1.26-5.048.937-7.661-.043-.366-.794-.882-1.258-.928-2.73-.263-2.982-1.885-1.799-5.085l-6.3 2.492c.367-2.46 3.535-4.629.132-6.606 4.183-5.406 7.6 1.828 11.628-.143-1.933 4.629 1.244 7.546 2.378 10.995.447 1.361.816 2.845.753 4.254-.128 2.888.45 4.04 3.243 5.137-.06 1.06-.117 2.14-.212 3.744 1.175-.664 1.94-1.103 2.716-1.541l3.258 6.048c-7.847-.419-14.322 5.345-21.472 1.744Zm36.833-49.796c.005.003.011.003.02.006l.005.034h-.014c-.006-.014-.008-.028-.011-.04l-3.716-1.137 3.716 1.137Zm-160.945 60.602c-.1-.363-.201-.73-.298-1.091 1.942-.977 3.887-1.957 5.821-2.928 3.183 4.764 3.756 4.73 7.99.733 2.289-2.163 4.928-3.959 7.583-5.815-1.108 1.899-.567 5.053-4.242 5.085-.195.003-.436.175-.568.335-2.501 2.994-4.993 5.999-7.483 9.001.02-.003.032 0 .052-.003.003 0-.092.052-.092.052l.04-.049c-3.921.573-3.197-2.71-4.265-4.752-1.287-.164-2.914-.364-4.538-.568Zm55.543-82.913Zm-.585.264c.052-.032.115-.055.167-.083-.052.028-.115.051-.167.083Zm-.627.788c-.026.071-.069.123-.086.2.017-.077.06-.129.086-.2Zm.324-.522c-.043.046-.101.08-.144.132.043-.052.101-.086.144-.132Zm-.447 1.304c0 .083-.02.146-.012.24-.008-.094.012-.157.012-.24Zm108.43-9.835c-.923.263-1.831.55-2.693.939.862-.389 1.77-.676 2.693-.939Zm615.338-121.992c.7-.59 1.22-1.384 1.83-2.089-.26-.189-.52-.381-.78-.573-1.7 1.143-3.35 2.361-5.12 3.387-.65.378-1.73.644-2.3.349-.58-.304-1.07-1.346-1.09-2.077-.1-4.466-.05-8.935-.05-13.401v-31.705c-2.68-.828-5.27-1.375-7.64-2.421-4.26-1.879-8.38-4.074-12.57-6.102-1.28-.619-2.61-1.117-4.64-1.976.39 4.471.68 7.751.98 11.263 1.81.41 3.51.797 5.2 1.181.16 2.719.97 5.615.3 8.116-.88 3.3.1 5.967.98 8.881.22.739-.45 1.753-.65 2.423-1.57-2.011-2.74-3.512-3.91-5.016-1.11 1.152-2.22 2.303-3.33 3.452-.31-1.424.3-2.759.58-4.168.29-1.513.58-3.14.32-4.627-.36-2.148-1.59-4.185-1.76-6.325-.23-2.942.34-5.942.25-8.907-.03-.985-.85-2.572-1.63-2.807-6.45-1.949-12.93-3.89-19.51-5.294-2.77-.593-6.04-.542-8.71.352-7.97 2.678-15.759 5.918-24.265 9.187 0-2.275-.037-3.945.009-5.609.085-3.205.171-6.408.343-9.608.115-2.169-.604-3.507-2.959-3.636-4.673-.257-9.351-.839-14.012-.742-3.383.072-6.829.742-10.095 1.673-2.599.74-4.902 2.169-2.94 5.75.573 1.046.304 2.687.101 4.008-.917 5.978-2.209 11.937-.278 18.059-.774.361-1.35.717-1.977.911-5.907 1.822-11.199.103-16.455-2.61-4.661-2.406-8.354-7.047-14.376-6.463-.278.029-.613-.28-.891-.472-13.539-9.425-28.966-15.117-43.771-22.022-1.47-.687-3.825-.598-5.32.095-6.432 2.982-12.663 6.388-19.023 9.525a25214.148 25214.148 0 0 1-69.268 34.022c-3.309 1.616-7.147 2.261-9.465 5.572-.292.422-.865.694-1.358.923-2.246 1.034-4.478 2.111-6.775 3.017-2.773 1.088-5.607 2.019-8.477 3.045V63.167c1.759-1.427 2.836-3.295 4.131-4.996.891-1.175 1.939-2.765 3.168-3.034 2.768-.608 4.524-2.003 5.613-4.49 1.22-2.781 2.558-5.46 6.176-6.004-.665-.415-1.212-.705-1.699-.63-3.254.495-4.197-1.126-4.174-4.088.02-2.625-.24-5.257-.515-7.873a1785.95 1785.95 0 0 0-2.373-21.434c-.226-1.951-1.186-2.891-3.437-2.808-8.695.315-17.398.441-26.099.587-3.965.066-7.927.012-11.992.012-.303-1.902-.581-3.639-.799-4.994-7.494-.77-14.765-1.564-22.05-2.248-4.627-.433-9.549-1.834-13.846-.785-6.778 1.653-13.138 5.016-19.69 7.614-.816.324-1.733.613-2.593.588-10.528-.298-21.05-.728-31.578-.977-6.12-.144-12.25-.026-18.441-.026-.034.544-.175 1.131-.083 1.676.289 1.687.642 3.363 1.008 5.036.96 4.383.41 5.518-3.486 7.987-.599.378-.988 1.47-1.043 2.261-.415 6.047-.857 12.1-1.008 18.16-.066 2.787.498 5.594.828 8.923 7.365-4.698 4.265-11.656 5.342-17.495.576 2.484 1.04 4.95 1.012 7.411-.023 2.031.243 3.487 1.916 5.017 3.066 2.801 2.252 6.955-1.412 9.092-1.324.771-2.679 1.481-4.125 2.284.868 3.074 3.131 3.764 5.795 3.95 2.458.172 4.91.43 7.282.645.149 1.894.244 3.097.264 3.372.639-1.086 2.066-2.584 2.378-4.289.355-1.934-.292-4.054-.502-6.093.353-.063.708-.126 1.063-.187.347.548.837 1.052 1.017 1.651 1.86 6.156 2.263 12.344.304 18.572-.264.828-.645 1.745-.507 2.544.461 2.704 1.656 5.377 1.636 8.056-.109 13.499-.797 26.997-.759 40.496.08 29.316.489 58.634.721 87.95.018 2.432.694 5.065-1.615 7.07-.304.264.017 1.444.266 2.117 1.785 4.845 2.384 9.752 2.043 14.963-.527 8.105-.625 16.246-.642 24.374-.052 20.727.083 41.454.017 62.183-.008 2.719.178 5.08 2.16 7.188.765.817 1.126 2.263 1.181 3.444.501 10.863 1.274 21.732 1.226 32.595-.069 16.023-.78 32.043-1.1 48.069-.026 1.424.828 2.868 1.401 4.707-.834 0-2.358.049-3.879-.012-1.814-.074-3.676-.567-5.421-.28-1.693.275-3.286 1.257-4.878 2.025-.808.39-1.542.931-2.298 1.427 3.527-.845 5.733.364 8.311 4.681l3.979-2.157c-.183-.651-.378-.989-.347-1.304.106-1.169.284-2.335.436-3.501.621.954 1.702 1.868 1.782 2.865.335 4.22.378 8.46.527 12.697l-.063-.017c-.063 2.002-.138 4.008-.189 6.013-.017.633-.129 1.309.034 1.899.622 2.215 1.725 4.363 1.943 6.604.555 5.812 1.592 11.788.739 17.441-.485 3.197-1.436 6.425-1.464 9.769-.043 5.265.097 10.536-.175 15.79-.178 3.407-.948 6.787-1.453 10.182-.478-.034-.959-.069-1.44-.1 0-1.513-.029-3.023.008-4.53.063-2.618.88-5.46-2.552-6.849-.339-.138-.204-1.444-.29-2.209.777.344 1.556.685 2.349 1.031 2.046-4.268 2.106-4.649.135-5.778-1.175-.673-2.484-1.258-3.802-1.515-4.328-.848-8.127 2.552-7.952 6.921.071 1.684.011 3.375.011 5.059-.324 0-.65.003-.98.003l-3.329-12.728c2.519-2.209.897-5.352-.174-8.271-1.327-3.601-1.355-6.818 1.793-9.68a44.925 44.925 0 0 1-.868-.387c-.911 1.335-1.828 2.667-2.825 4.122-.727-.67-1.429-1.326-2.048-1.899 1.367-1.584 2.564-2.976 3.753-4.36-1.455.825-2.971 1.679-5.26 2.971-.152-2-.352-3.604-.384-5.211-.074-3.378.138-6.776-.129-10.136-.429-5.446-1.26-10.863-1.658-16.312-.089-1.169.931-2.421 1.529-3.842-.71-3.06-2.727-4.208-6.405-3.696-4.045.562-2.206 3.816-3.481 6.143-.181-1.264-.129-2.172-.455-2.914-.424-.957-1.046-2.392-1.768-2.515-1.04-.172-2.389.444-3.34 1.108-.785.548-1.08 1.745-1.774 2.487-1.318 1.398-2.764 2.679-4.984 4.793-.193-5.753-2.948-4.758-5.636-3.87-.636.212-1.38.962-1.802.793-3.44-1.406-4.678 1.329-6.339 3.237-1.252 1.438-2.433 2.945-3.61 4.381.473 2.074 1.53 2.67 3.693 2.208 3.119-.661 6.34-.853 9.522-1.243.109.404.218.811.33 1.218-1.513.796-3.025 1.595-4.495 2.374.369.519.908 1.278 1.375 1.931-4.177.762-8.199 1.493-12.224 2.226.054.252.114.505.169.754l3.618.229c-.226 1.112-.636 2.023-.55 2.882.481 5.056-2.865 7.835-6.437 10.018-5.228 3.197-5.988 5.363-2.576 10.374.129.189.396.34.419.533.163 1.269.842 3.048.269 3.698-.796.905-2.527 1.152-3.902 1.323-1.12.138-2.303-.257-3.598-.432-1.003-2.604.776-2.753 2.79-2.825.673-.023 1.338-.412 2.006-.633.037-.438.068-.871.106-1.306-3.685 1.338-4.914-.556-5.017-3.343-.16-4.292-.043-8.595-.043-12.895l.496-.029c.43 4.358.859 8.718 1.286 13.073.427-.046.848-.098 1.272-.144l-1.641-18.856c-.373.006-.745.017-1.118.029-.166.839-.329 1.681-.527 2.687-.47-1.324-.682-2.481-1.249-3.429-2.587-4.306-1.776-6.24 3.114-6.77 3.716-.398 7.452-.556 10.637-.782.467-1.879.888-3.114 1.049-4.38.106-.868.175-2.086-.312-2.627-1.722-1.9-1.688-3.306.71-4.249-.53-1.157-1.117-2.039-1.344-3.005-.776-3.263-3.248-3.884-5.981-3.741-3.252.169-6.486.676-9.993 1.065.484-.982.785-1.589 1.083-2.2-.226-.172-.45-.346-.676-.524-.579.965-1.157 1.931-1.736 2.894l-1.301-.293c-.349-6.5-.716-12.997-1.051-19.501-.347-6.783-.659-13.57-.994-20.54-1.928.441-2.888.662-3.994.914-.108 1.862-.272 3.684-.306 5.506-.129 6.053-.272 12.109-.29 18.163-.008 3.1-1.718 3.291-4.067 2.744-1.505-.349-3.017-.673-4.43-.988-.679 1.544-1.16 2.627-2.005 4.535 3.303 1.06 6.34 2.031 9.145 2.933l2.406 6.077c-5.506.885-7.434 3.672-6.689 8.471.106.673-.659 1.487-1.023 2.232-.616-.656-1.306-1.261-1.799-2-.161-.235.355-.836.312-1.243-.223-2.258.281-5.312-.98-6.569-2.091-2.083-4.787-1.189-6.428 1.635-.281.479-1.115.78-1.739.889-4.254.75-7.804 2.724-9.435 6.783-.939 2.335-2.122 1.487-3.414 1.043-.644-.223-1.137-.888-1.699-1.352-.077.415-.16.825-.237 1.24-3.218-.203-6.435-.401-9.265-.575-.35-3.186-1.029-5.584-.734-7.853.29-2.257 1.567-4.383 2.455-6.698-.32 0-.899-.146-1.363.023-2.501.926-4.272.822-4.779-2.211-.424.157-.845.32-1.269.481-1.57 2.011-3.134 4.022-4.838 6.208-1.029-1.367-1.894-2.521-2.762-3.673-.189.129-.375.264-.564.398.693 1.078 1.386 2.155 2.056 3.2-3.346 4.65-3.305 4.59-7.58 1.484-.725-.53-2.037-.255-3.079-.332-.301-.02-.602.029-.969.049v-3.094c1.278-.327 2.475-.628 4.458-1.135-1.243-.126-1.716-.068-2.091-.232-1.035-.455-2.029-1.003-3.839-1.919l4.24-.521c-.198-2.272-1.04-4.53-.387-6.206.922-2.369 2.945-4.305 4.034-5.792h23.608v-6.939l1.768-.324 1.518 3.685c.466-.668.982-1.399.972-1.384l13.461-2.117c0-2.424.112-4.475-.028-6.506-.158-2.226.149-4.971-1.035-6.486-1.048-1.347-3.861-1.318-6.291-2.006 5.693-6.528 7.815-14.412 7.32-23.196 3.228-.945 6.557-1.922 9.732-2.85v-5.481c.277-.1.555-.203.836-.303 1.221 3.446 3.277 5.706 6.89 3.798 2.504-1.32 4.844-3.154 6.838-5.171 1.292-1.309 1.828-3.366 2.702-5.088-.373-.214-.745-.429-1.118-.641-.592.699-1.183 1.401-1.595 1.89l-4.965-3.792c.702-1.146 1.447-2.355 2.192-3.564-3.584 3.372-3.321 3.423-10.912.979-1.232-.395-2.083-1.965-3.114-2.993.232-.218.469-.436.701-.651 1.29.275 2.579.548 3.865.823.052-.301.097-.602.146-.903-1.704-.195-3.406-.387-5.108-.581-.146 1.475-.289 2.947-.47 4.824-4.686.59-.197 4.392-1.421 6.979l-1.982-3.424-6.01 3.051c-.264-.2-.53-.398-.794-.596.676-1.148 1.335-2.306 2.031-3.44.376-.608 1.12-1.152 1.169-1.771.235-2.853-.195-5.443-3.847-6.03 1.177-2.169 2.18-4.019 2.965-5.463 2.197 1.24 4.031 2.28 6.723 3.801-1.154-1.558-1.664-2.243-1.678-2.263 1.068-1.833 1.847-3.177 2.63-4.518l.077.089.026-.034-.029-.017c-.037-.834-.284-1.737-.037-2.479.619-1.87 1.85-3.658-1.032-4.873-.444-.189-.779-2.028-.401-2.546 2.544-3.481 5.999-5.128 10.388-4.504 1.519.215 3.045.361 4.55.536 2.389-4.87 2.423-9.62 1.114-14.227-1.894.267-3.544.499-5.395.762.147-1.759.233-2.804.31-3.747h-5.443c-2.301 2.934-2.243 3.338 1.444 5.177-3.372 3.094-6.567 6.076-9.847 8.964-.295.261-1.12-.083-1.355-.109l1.98-5.311c-1.627-2.158-2.77-3.673-4.088-5.418a839.841 839.841 0 0 1-.461 3.037c-3.461-2.054-6.673-4.455-10.385-2.12-1.43-1.988-2.669-3.713-4.13-5.747.909-.409 1.783-.845 2.683-1.206 1.177-.476 2.888-.57 3.419-1.421.529-.842-.12-2.421-.24-3.558 3.27-.985 6.515-1.962 9.793-2.954-.081 1.539-.29 2.974-.192 4.387.1 1.466.498 2.913.773 4.405 1.037-.2 2.08-.403 3.014-.587.143 1.298.258 2.318.372 3.338.705-.164 1.639-.098 2.075-.527 1.386-1.373 2.589-2.931 3.904-4.461 1.155.888 2.04 1.567 2.464 1.891 1.604-.338 2.67-.739 3.744-.762 5.312-.132 7.655-3.659 5.395-8.374-.668-1.401-1.676-2.638-2.561-4.008 1.277-1.404 1.114-2.919-1.665-3.254-2.822-.344-4.311-2.051-6.068-3.793-1.246-1.241-2.77-2.203-4.196-3.309l1.509-2.137c-.114-.075-.226-.152-.341-.227l-5.469 3.937c-.538-2.765-2.217-2.014-3.486-1.152-2.971 2.014-5.795 4.243-8.687 6.394l1.536 1.756c-2.469 1.012-4.701 1.837-6.838 2.862-.438.212-.805 1.206-.714 1.759.284 1.656.809 3.269 1.528 5.996-2.14-.699-3.796-.991-5.194-1.753-2.839-1.541-4.893-.773-5.535 2.318-8.351-.92-8.351-.92-12.869 2.039a1.963 1.963 0 0 0-.223-.329c-.665-3.1.372-7.162-4.449-7.706-.352-6.119 7.022-11.162 13.848-8.887l-4.807 2.089c2.47 5.864 4.504 6.248 11.405 2.541l-3.134-3.928c4.604.633 8.013-1.318 6.99-4.383-1.026-3.091-.673-7.165-4.69-8.758-.272-.109-.352-.702-.315-.616 1.931-.627 3.833-.951 5.419-1.839 1.875-1.043 3.476-2.576 5.195-3.896l1.046.04c-2.152 4.214 1.094 4.042 2.727 4.904 1.805-1.716 3.513-3.34 5.638-5.365l7.982 7.279 5.127-2.779c.261.699.287 1.135.51 1.298 1.06.771 2.481 2.283 3.195 2.011 1.318-.498 2.295-2.028.309-3.403-.249-.172-.192-.831-.223-1.266-.169-2.502-.023-5.068-.539-7.492-.891-4.2 2.109-10.03 5.747-9.674 3.538.343 2.991-1.779 4.054-4.22-1.854 1.111-2.905 1.741-4.048 2.423a2242.89 2242.89 0 0 1-4.57-5.454c3.14-1.14 5.844-2.123 8.824-3.203.189 1.954.278 2.893.272 2.856 1.573-.934 3.355-1.994 5.907-3.512-.458 1.739-.65 2.458-.839 3.18.175.22.349.441.521.667.992-.702 2.693-1.272 2.848-2.125.676-3.736-1.074-8.549-3.054-8.887-1.653-.281-3.822-.665-4.979.138-1.169.807-1.378 3.008-1.988 4.557-1.178-.283-2.352-.57-4.189-1.017 3.169 3.925 3.172 4.054-.962 5.747-.971.398-2.149.416-3.226.398-2.79-.057-5.715-.581-7.95 1.622-1.3 1.283-2.088.516-3.463.198-1.831-.419-3.988.547-6.002.919.796 3.596-2.83 5.383-3.504 8.423-.177.799-1.301 1.793-2.143 1.971-2.429.51-4.936.647-7.913.991.349-1.538.628-2.762.952-4.18-.905-.169-1.845-.347-3.379-.63 1.305-1.215 2.247-2.094 3.203-2.982 2.098 2.501 5.922 3.128 8.172 1.521 1.807-1.292 3.478-6.131 2.704-7.916 1.427-.521 3.054-1.759 4.243-1.426 3.873 1.086 7.093-.547 10.047-1.252-.559-1.997-1.035-3.696-1.527-5.435-.714.178-1.86.459-3.822.946 1.782-1.645 2.919-2.693 4.057-3.748-.121-.16-.241-.326-.364-.487a3587.76 3587.76 0 0 0-6.884 3.791h-.006c-.748-.677-1.667-1.238-2.2-2.049-1.393-2.123-2.272-2.504-5.392-1.593 1.501 1.688 2.874 3.229 4.263 4.793l3.338-1.154c-1.189.954-2.264 2.484-3.587 2.741-2.676.522-5.034.788-3.679 4.891-.65.332-1.303.667-1.954 1.005-.349-1.103-.696-2.206-1.052-3.309l-.914-.134c-.337 1.426-.996 2.864-.941 4.277.083 2.1-.633 2.959-2.753 2.833-.112-.458-.212-.877-.249-1.034-2.524 2.117-5.269 4.412-8.011 6.709-.343-.361-.69-.719-1.034-1.08 1.983-2.237 3.967-4.472 5.372-6.059-3.974 1.401-8.577 3.025-13.187 4.647-.169-.31-.344-.622-.513-.931 3.1-2.498 6.203-4.994 10.107-8.142-2.108-.65-3.615-1.682-4.581-1.309-2.801 1.086-5.54 2.736-6.208 5.996-.398 1.954-.071 4.059-.071 6.185l-4.083-.335c-.028.094-.054.189-.085.283.664.21 1.329.413 2.99.929l-5.597 4.801c-1.158-1.392-2.501-2.673-3.427-4.203-1.733-2.859-4.277-3.134-7.397-2.658.029-.607.195-1.186.046-1.667-.2-.648-.644-1.218-.985-1.823-.487.51-1.447 1.092-1.381 1.516.536 3.495-1.965 3.217-4.077 3.464-.515.06-1.025.123-1.693.206.413 1.183.736 2.117 1.066 3.071-.756.464-1.564.685-1.865 1.2-1.166 1.994-2.464 3.272-5.117 3.066-2.122-.161-2.088 1.856-1.212 2.893 2.55 3.019 1.121 6.512 1.645 9.755 3.607-.642 1.762 2.469 2.532 3.796.654-.742 1.295-1.473 2.095-2.384 3.234 6.672 6.205 13.118 5.377 20.463-.241 2.158-1.45 4.209-2.252 6.4-2.275-1.489-3.87-2.337-5.225-3.475-1.562-1.309-1.507-2.724.504-3.615.656-.295 1.467-.246 2.206-.352.175-.296.349-.582.527-.877l-5.798-5.231c.896-1.367 1.787-2.728 2.781-4.249-1.352-.742-2.306-1.26-3.111-1.702-.381.556-.937 1.771-1.209 1.708-1.028-.229-2.051-.47-3.088-.716-.063-.164-.129-.33-.192-.49l-.865.229c-.049.014-.103.026-.158.04.055-.014.109-.026.158-.04-2.934-.716-5.942-1.501-9.259-2.346.822 1.988.008 4.601 3.48 5.835-6.826-.025-6.832 5.776-8.646 9.153.588 2.186 1.043 3.891 1.493 5.575.221-.04.527-.002.65-.134 2.69-2.879 5.561-4.635 9.477-1.994.318.215 1.361-.705 2.097-1.026.627-.278 1.298-.452 1.951-.67.1.748.564 1.856.244 2.18-2.344 2.349-4.848 4.541-7.297 6.784.266.862.518 1.682.862 2.782h-9.56c.353 2.397-1.355 3.051-3.944 2.575l-2.138-2.564c1.146-1.154 2.292-2.309 3.819-3.842h2.793c-1.137-1.893-1.684-3.944-2.985-4.707-2.168-1.266-2.759-2.549-.948-4.446 3.091-3.234 2.644-6.113-1.117-8.399-1.146.55-2.175 1.048-4.275 2.062 1.908-4.56-2.933-5.592-2.807-9.061.026-.676-2.773-2.298-3.805-1.98-1.601.493-2.807 2.278-4.411 3.725-.771-.814-2.003-2.12-3.395-3.599-1.897 5.02 5.724 3.997 4.747 8.506-1.41-.309-2.544-.559-2.791-.61-1.174 1.939-2.094 3.452-2.987 4.936l2.374 1.495c-1.558 1.123-2.383 1.708-3.197 2.301-.641.467-1.879 1.131-1.799 1.386.312 1.026.917 2.636 1.627 2.756 3.175.536 2.616 3.217 3.693 5.114-3.114 1.283-5.956 2.458-8.929 3.681.249 1.312.149 3.951.891 4.214 5.036 1.779 4.875 7.214 7.454 9.503-.943 2.094-1.61 3.572-2.435 5.397l-7.131-2.994c.819-2.2 1.776-4.761 2.745-7.356-3.458-1.788-6.959-1.333-8.812 1.601.827.372 1.799.564 2.406 1.14 1.195 1.135 2.189 2.484 3.266 3.748-1.063.607-2.123 1.217-2.925 1.678.639 1.189 1.51 2.819 2.386 4.452-3.672-1.722-7.062-4.833-11.172-.63a533.825 533.825 0 0 1-1.075-1.513c-4.466 1.768-8.631 3.418-12.794 5.068.132.321.264.642.395.968.568.066 1.129.135 1.693.207-.75.916-1.867.997-2.423 1.592-1.066 1.152-2.842 2.963-2.521 3.856 1.664 4.67 7.973 5.306 10.857 1.335 3.931-5.405 9.635-5.044 12.691 1.158-2.592-1.793-5.047-4.335-8.488-2.429-3.484 1.93-2.845 5.42-2.561 7.82-5.79-1.432-11.296-2.793-16.533-4.09.235-1.083.587-2.713.917-4.246l-7.732-.748v7.174c-4.644.3-2.301-2.799-2.676-4.048l-7.772-2.39c.278-.756.55-1.366.725-2.002.18-.653.269-1.332.398-1.997l.003-.003c1.008-2.598 2.019-5.191 3.085-7.924h2.873c.061 1.347.121 2.55.17 3.639 3.088.229 6.027.011 8.697.759 2.925.819 5.068.765 6.168-1.33-.965-2.821-1.745-5.09-2.521-7.359.266-.095.53-.187.796-.284.613.53 1.226 1.057 1.842 1.584.387-1.338.433-2.598-.166-3.314-2.034-2.421-.364-3.842 1.183-5.317.934-.891 2.201-1.502 2.96-2.51 1.541-2.051 3.555-1.435 4.669-.284 1.192 1.23 3.478 3.166.161 5.117-2.822 1.656-3.063 4.12-1.158 7.182l4.097-7.609c.33.1.659.195.986.292-.072.848-.513 1.923-.152 2.496.851 1.358 1.87 2.928 3.217 3.555 1.289.604 3.082.132 4.778.132a2423.338 2423.338 0 0 0-5.809-4.478c3.357-3.005 3.274-2.974 2.071-6.245-.648-1.751-.839-3.667-1.447-5.435-.378-1.103-1.149-2.071-1.745-3.1l-.593.21v3.939c-1.945-.719-3.543-1.309-5.314-1.966.8-.624 1.341-1.051 1.275-.999l-7.019-3.252c.04-.321.078-.644.112-.965 1.791.129 3.584.26 5.394.392.499-.644 1.29-1.67 2.255-2.922-1.16-.074-2.28-.049-3.36-.238-2.215-.389-2.948-2.231-1.828-4.412.301-.398.607-.79.908-1.188 1.96.028 3.916.054 5.873.077.355.232.707.464 1.06.693-2.12 2.813 2.466 3.613 1.888 5.128 1.002-.447 2.389-1.467 3.799-1.495.607-.015 1.552 1.953 1.827 3.142.504 2.172.871 4.129 3.547 3.089 0 .77-.344 2.019.057 2.337 3.596 2.888 5.406-.687 7.761-2.306-1.53-2.813-4.819-5.26-2.24-8.139-1.759-1.126-3.693-1.899-4.933-3.288-1.272-1.416-1.865-3.435-2.754-5.194 1.235.114 2.444.226 3.653.34-.748-1.097-1.842-2.054-2.636-1.844-3.334.865-4.812-1.324-6.955-3.751 3.595.052 2.865-1.973 2.111-3.973l3.893-.65c-1.363-3.464-3.463-.78-4.924-.762-.88-.923-1.567-1.648-2.484-2.607 1.16-1.035 2.24-1.994 3.332-2.965.796.753 1.458 1.383 2.885 2.733-.677-2.796-1.106-4.587-1.536-6.357 1.2-.757 2.435-1.53 3.667-2.306-.115-.187-.232-.373-.347-.562-.853.413-1.71.825-2.65 1.278-.063-.78-.103-1.301-.106-1.338-2.882 1.925-5.709 3.902-8.626 5.732-2.068 1.298-3.993 1.931-5.967-.63-.624-.811-2.959-.891-4.226-.458-1.174.398-2.807 1.988-2.735 2.939.117 1.556 1.455 3.017 2.263 4.492-3.83 1.447-3.83 1.447-2.183 7.331l4.016.845c.032.43.069.86.103 1.289-1.882.573-3.764 1.149-5.712 1.742-1.12-2.899-.163-7.354-5.068-4.724-.564-3.283-.238-4.398 2.464-4.698 2.994-.341 1.598-2.708 2.487-3.951-1.112-.547-2.209-1.123-3.335-1.624a7.728 7.728 0 0 0-1.794-.533c-3.595-.624-7.067-1.836-10.639.788-1.848 1.358-4.573 1.518-6.899 2.223-1.469.636.132 4.773-4.228 2.633.255.928.243 1.435.492 1.701 2.564 2.705 2.461 3.452-1.085 4.633-1.138.378-2.478.14-3.739.155-.564 1.134-1.134 2.263-1.727 3.44.593-1.177 1.16-2.306 1.727-3.44.02-.038.037-.075.057-.112-.051.028-.103.057-.157.083v.003l-5.587 3.042c2.204-1.2 3.902-2.126 5.587-3.045.458-1.298.914-2.599 1.372-3.899-1.109-.138-2.214-.378-3.323-.387-1.547-.017-3.094.143-4.893.241-.341-.378-.98-1.086-1.203-1.335-2.178 1.045-3.833 2.188-5.661 2.635-3.441.845-2.404-3.311-4.578-4.646.475 1.887.851 3.374 1.295 5.145.504.083 1.418.24 2.693.455-.59.754-.88 1.218-1.264 1.587-.344.33-.79.55-1.767 1.212 1.398.682 2.208 1.364 3.079 1.453 3.925.392 4.04.507 2.292 4.056 1.639.444 3.226.871 4.985 1.347.453.876 1.117 2.154 2.06 3.965-1.837.424-3.555.75-5.229 1.232-.899.26-2.343.641-2.472 1.211-.453 2.008-.444 4.123-.639 6.549 2.825-1.269 5.529-2.489 8.42-3.79-.284 4.292 1.111 6.145 4.793 6.956l-3.192-6.902c3.292-.75 5.896-1.687 3.238-5.466-.25-.352 1.2-1.807 1.71-2.827.269-.55.269-1.232.369-1.865l-.14.026c.043-.009.092-.017.14-.029v.003c.052-.014.112-.023.164-.032-.037-.034-.078-.068-.118-.106 1.536-.607 3.077-1.223 5.028-2.002.851 1.338 1.985 3.117 3.088 4.859l8.411-3.55c1.986 1.433 3.054 2.636 4.369 3.043 1.539.472 3.292.252 4.481.306 1.355 4.945 2.61 9.517 3.638 13.264l-10.554 3.664c-.344.857-.682 1.708-.937 2.344 2.02 1.87 3.55 4.154 5.667 5.059 3.489 1.495 1.882 2.756.464 4.372-.109.123-.06.384-.092.633.822.232 1.653.461 3.223.899-1.249 1.02-2.025 1.659-2.804 2.298-.596-.731-1.37-1.378-1.748-2.206-.98-2.143-1.825-4.294-4.927-2.745.06-.73.103-1.297.194-2.423-5.082 4.692-3.672 10.949-5.506 16.109-1.641 2.211-1.641 2.211-3.721.85.289-.338.578-.679 1.541-1.802l-19.601 6.973c-.011.02-.026.046-.034.066-.02.003-.043 0-.066.003l-3.776 5.346c.954 2.899 2.785 3.902 8.271 3.383 3.337-.312 3.337-.312 4.626 2.361-.962.08-1.842.286-2.69.203-2.819-.278-5.428 1.994-4.775 4.69.232.948 2.1 1.498 3.217 2.229l1.352-.539c-.676 2.232-.957 4.707-2.14 6.629-1.424 2.315-1.381 3.106 1.452 3.435 5.157.608 6.191-.143 7.208-5.437.192-.991.923-1.882 1.533-3.068.779 1.358.584 2.793-.811 7.637 1.533-.455 2.791-1.172 3.985-1.083 1.106.086 2.47.808 3.083 1.691.318.458-.648 1.922-1.201 2.836-.26.432-1.057.532-1.346.959-.722 1.075-1.851 2.304-1.753 3.369.086.911 1.656 1.679 3.056 2.957.061 1.601-1.664 5.119 3.407 5.257-1.925 1.409-3.925 2.733-5.764 4.245-2.112 1.742-3.364.791-4.707-1.025-.989-1.332-2.361-2.381-3.458-3.641-.51-.585-.779-1.376-1.077-1.934-.713.567-1.593 1.272-2.951 2.349 0-1.309.123-2.518-.014-2.55-3.739-.825-3.283-4.337-3.429-6.569-.204-3.137-.719-4.93-3.229-4.798-.35-2.103-.086-4.463-1.114-5.89-2.212-3.063-5.111-.075-7.81-.017a5076.75 5076.75 0 0 1-3.211-5.455c4.165.648 7.503 1.163 10.992 1.699.08-.212.155-1.438.776-1.859 1.327-.906 2.848-1.897 1.556-3.349-.828-.934-2.79-.894-4.266-1.192-.352-.072-.779.252-1.467-.003 1.232-1.146 2.464-2.292 3.962-3.681-.733-.341-1.12-.473-1.464-.685-1.171-.725-2.329-1.475-3.489-2.217.782-1.052 1.536-2.129 2.361-3.149.805-.991 1.561-2.105 2.578-2.824.61-.43 1.653-.25 2.527-.31l.034-.046c.023-.008.043-.017.066-.023.436-.816.86-1.655 1.421-2.761-1.037-.668-2.263-1.272-3.252-2.146-1.151-1.011-1.988-2.381-3.151-3.369-1.412-1.197-2.951-2.802-4.581-2.991-1.025-.117-2.314 2.037-3.483 3.174.209.247.421.496.633.742-1.132.192-2.266.381-3.398.573.046.198.095.398.146.599l2.997-.498c.301 1.446.14 3.414.905 3.887 2.908 1.796 1.647 3.126.298 4.509-.547-1.134-1.077-2.229-1.601-3.32-1.625.799-3.315 1.487-4.845 2.438-1.022.636-1.687 1.911-2.741 2.435-2.536 1.266-3.544 3.323-2.369 6.391-1.539-.518-2.776-.933-4.008-1.349l.693-.616a8162.964 8162.964 0 0 0-3.942-5.858c-.943 2.171-1.527 3.515-2.381 5.489-.69-2.246-1.146-3.722-1.604-5.212.816-.191 1.475-.346 2.129-.501-2.496-4.154-6.2-3.985-9.417-3.704.318.676.71 1.518 1.109 2.363-.914-.129-1.908-.074-2.725-.429-1.363-.59-2.613-1.444-3.907-2.183-.261.186-.522.375-.78.558.748 1.519 1.502 3.037 2.358 4.779-5.472-1.063-3.452-4.412-3.091-7.664l-12.158 11.176c-.355 3.014 1.074 4.251 5.738 3.154 1.263 3.544 2.541 7.111 3.816 10.677-.023-.005-.046-.014-.063-.02-.622 1.519-1.249 3.037-2.028 4.931-1.693-3.962-4.576-4.197-7.965-2.69-.507.226-1.148.696-1.538.547-1.335-.507-3.509-1.043-3.698-1.922-.608-2.868-2.069-3.135-4.449-2.59-.957.22-2.034.051-3.034-.092-2.713-.39-5.418-.857-8.494-1.355 3.348 5.128 4.423 5.558 9.439 2.957 1.854-.963 3.106-.47 3.584.936.788 2.309.968 4.828 1.455 7.543l-2.137-1.492c-2.326 1.315-4.323 2.495-6.365 3.586-2.072 1.109-4.67 1.697-6.114 3.327-.974 1.1.014 3.732-.539 5.463-.498 1.552-1.908 2.813-2.916 4.202.277.207.559.413.837.619.987-1.2 1.979-2.4 2.824-3.423 3.149.727 6.271 3.976 8.695-.86.092-.183.816.017 1.209-.097 1-.301 1.957-.779 2.974-1.003 1.633-.364 3.297-.578 4.947-.859.287.255.567.51.851.765l2.575 3.271c-.237 1.756-.343 3.326-.69 4.839-.249 1.091-.519 2.541-1.301 3.085-2.46 1.725-3.939 3.607-2.735 6.621 1.068.624 2.068 1.212 3.288 1.928-5.947 3.627-5.947 3.627-4.924 7.881.719-1.212 1.323-2.24 1.713-2.896 3.369-.25 6.414-.473 8.987-.665l2.595 4.415c-4.291 3.515 3.587 5.423 1.625 8.855 1.698.398 3.091.722 4.601 1.074 1.804-2.297 1.314-6.36 5.199-7.07.003-.026.009-.052.012-.08-.012-.012.048.06.048.06-.023.003-.037.014-.06.02a870.495 870.495 0 0 0-.716 5.652c1.258.711 2.999 2.008 4.95 2.724 3.152 1.155 6.217 2.278 8.715 4.679.817.782 2.323 1.633 3.226 1.389 2.432-.656 4.71-1.888 6.678-2.736 0-1.475-.152-2.913.031-4.306.373-2.804-1.203-4.414-3.847-3.391-1.716.661-3.166 2.022-4.959 3.22-1.954-2.321-.238-4.192.229-5.401 4.314.651 5.936-3.079 8.677-4.102-1.097-.212-2.194-.421-3.288-.633.002-.215.002-.427.005-.642.843-.306 1.685-.619 2.55-.937-2.965-3.549-2.959-3.541.96-6.428.329-.244.395-.891.733-1.072 2.106-1.134 4.051-.478 5.561 1.052.664.67 1.277 2.495.911 2.913-2.791 3.163-.121 5.014 1.283 7.695 2.209-1.47 4.04-2.687 5.395-3.587-.983-2.996-1.891-5.77-2.458-7.5 1.16-2.237 1.979-3.821 2.801-5.408-.318-.376-.641-.751-.959-1.126-3.074 1.126-6.148 2.257-9.383 3.446 1.596-3.177 4.355-4.309 7.437-4.945 3.332-.687 4.464-2.294 3.994-5.397 2.873.802 5.827 1.624 8.783 2.447-.028.28-.057.558-.088.839-1.756 0-3.561-.232-5.254.1-.814.161-1.418 1.387-2.118 2.132.817.49 1.588 1.254 2.461 1.406 1.659.295 3.378.238 5.283.341l-.865 3.06c1.535-1.003 2.524-1.645 3.707-2.421.819 1.819.782 4.948 4.529 1.922l-17.074 16.742c.089.046-.647-.355-2.26-1.237 1.168 2.088 1.845 4.457 2.635 4.5 4.223.218 4.601 3.409 5.578 6.237 1.309.286 3.237 1.177 3.733.667 1.982-2.028 3.779-1.254 5.927-.621 1.413.415 3.043.077 5.383.077-1.521-1.945-2.538-3.249-3.549-4.538.816-.536 1.636-1.077 2.681-1.762l-1.888-1.704c.547-.41 1.083-.817 1.63-1.229-.547-.811-1.043-1.547-1.541-2.283l.639-.82 4.982 3.114c.412-1.194.779-2.254 1.088-3.142 1.353.1 2.484.186 3.808.283-.817 1.55-1.347 3.298-2.458 4.512-1.945 2.129-1.169 4.575.278 5.578 1.484 1.028 4.122.914 6.122.553 2.254-.401 4.36-1.641 6.749-2.607-.169-.413-.653-1.604-1.303-3.214 4.211 2.051 6.935.246 9.213-3.636.077 1.533.123 2.427.169 3.381 1.109-.049 1.965-.089 2.822-.132l-.516.759c.805.891 1.458 2.046 2.45 2.624 1.796 1.057 3.795 1.774 5.712 2.633l.292 1.243c-3.973 1.98-7.941 3.962-11.92 5.933-.187.089-.459.066-.679.029-3.361-.576-7.383 1.381-9.325 4.034-1.206 1.647-3 2.87-4.529 4.282-1.118-1.44-2.249-2.873-3.344-4.331-.249-.335-.372-.762-.647-1.349-2.195 1.658-4.226 3.194-6.002 4.532 3.341.028 4.208 3.068 5.122 5.678.301.868-.618 2.621-1.498 3.311-.848.668-2.363.482-4.042.743.309.85.418 2.793 1.432 3.612 2.782 2.246 10.975.453 12.259-2.833 1.595-4.074 5.01-5.567 8.365-7.486.172-2.776 1.458-3.902 5.374-4.492.052.673.124 1.341.146 2.005.026.725.006 1.456.006 2.232 3.518-.888 3.518-.888.943-6.431 1.845-.376 3.819-1.373 5.38-.923 1.527.438 2.633 2.349 3.89 3.584-.951-3.458-.04-5.326 2.636-6.486 2.59 3.088 5.03 6.005 7.471 8.918.075.095 6.833 4.965 6.99 4.996v4.272c1.089-1.782 1.96-3.203 2.983-4.882.828 1.272 1.335 2.054 1.845 2.833.243-.128.489-.257.733-.389-2.719-5.326-5.435-10.651-8.19-16.054l8.66-4.103c-3.515-1.796-5.504-.123-7.635 1.553-1.054.825-2.667 1.767-3.727 1.495-.868-.226-1.286-2.174-2-3.546a4022.51 4022.51 0 0 1-4.506-1.332c.799-1.316 1.143-2.725 1.96-3.092 3.967-1.784 5.749-5.431 8.173-8.628 1.839-2.427.186-3.834-.725-5.564-.493-.931-1.183-1.759-1.782-2.635.261-.247.521-.493.782-.734 1.562.705 3.12 1.413 4.736 2.143l.071-1.243 7.922 3.131c3.523-1.613 3.741-3.736 2.549-6.475-.395-.911.006-2.18.08-3.286.175-2.492.37-4.981.53-7.133-5.11 1.716-9.534 3.197-14.644 4.913.833-2.409 1.3-3.75 1.764-5.093l-.911-.353c-.381.974-.593 2.08-1.203 2.885-.541.716-1.51 1.478-2.323 1.521-.874.043-1.788-.733-2.688-1.154-.346-.447-.696-.894-1.045-1.341 1.143-.576 2.426-.983 3.38-1.782.788-.662 1.186-1.785 1.754-2.707-.954-.367-1.906-.736-2.865-1.094-.361-.132-.983-.132-1.063-.353-.957-2.601-1.776-1.04-2.756-.005-.745.787-1.662 1.406-2.644 2.214-.006-.011.175.421.338.819l-11.179 1.461c.255-1.24.292-3.314.765-3.42 2.627-.582.997-1.991.49-2.619-2.048-2.515-4.234-4.552-1.117-8.121 1.341-1.536 1.071-4.478 1.51-6.804-.015 0-.023 0-.032.003a.442.442 0 0 0 .04-.072c-.006.023-.006.049-.008.069 6.119-.768 6.19-.725 7.15 3.79.542 0 1.115.057 1.676-.009 4.415-.527 8.818-1.358 13.167.547.865.379 2.134.341 3.042.012 3.14-1.14 4.867.358 6.036 3.157.788-.338 1.759-.447 1.943-.882 2.532-6.06 7.121-4.18 11.462-2.997 3.967 1.086 4.308 1.945 2.481 5.973 2.979-.134 5.847.012 8.608-.467 2.579-.444 2.854.882 3.192 3.091-2.584-.908-4.933-1.438-5.217 1.496-2.364-.444-4.885-.267-6.535-1.378-2.4-1.613-4.082-1.722-6.213.386 2.647 4.106-1.547 4.779-3.533 6.707 3.152.888 2.879 2.49 1.206 4.349-2.512 2.801-3.059 5.735-.971 8.485 1.61 2.117 3.773 3.816 5.761 5.773-.504 1.59-1.031 3.254-1.561 4.919l1.175.395c.613-1.922 1.226-3.842 2.019-6.337 1.814.868 3.67 1.756 5.859 2.799-1.169 1.45-2.08 2.581-3.023 3.747 1.553 4.401-.544 5.022 12.236 2.536.057 1.372.12 2.718.149 3.429 2.512 1.478 4.687 2.847 6.956 4.048.601.315 1.615.381 2.203.086 1.979-.994 3.816-2.272 5.789-3.272.519-.261 1.507-.126 1.983.226.335.25.309 1.691.215 1.716-3.152.825-1.507 3.516-2.123 5.295.017.005.032.005.046.011-.017.02-.043.04-.063.063-.545.587-1.206 1.126-1.693 1.739.484-.613 1.148-1.152 1.693-1.739.011-.026.011-.052.017-.074-3.744-1.287-4.22 1.054-4.097 3.363-2.406.977-4.409 2.034-6.543 2.601-2.315.616-4.031 1.656-4.781 3.67.266.143.538.289.805.43l-1.209 1.403a6.656 6.656 0 0 1 .404-1.833c-1.501-.805-3.011-1.613-4.61-2.472-1.209.928-2.329 1.784-3.526 2.704-1.103-3.587-2.444-4.332-5.999-3.561-3.541.768-4.169 1.779-3.639 5.755 1.567.109 4.312-.12 4.452.379.934 3.34 3.017 1.796 4.885 1.601.776-.083 1.593.206 2.535.349-.793 1.45-1.366 2.499-2.045 3.748 1.438.487 2.561.868 4.028 1.363-.547-1.79-.963-3.148-1.367-4.463 1.576-.963 2.928-1.785 4.272-2.604 4.093 4.088 4.83 4.062 6.629-.33h3.652v4.745c-2.12.71-4.357 1.678-4.864 3.214-.96 2.925.398 5.537 2.495 6.437-1.283 2.034-2.767 3.81-3.44 5.85-.029.086.037.2.137.329 3.721-4.406 4.936-4.724 10.918-3.019-1.011 4.667-4.75 6.632-8.354 8.419.186 1.548.579 2.908.41 4.197-.083.628-1.206 1.121-1.857 1.679-.163-.727-.369-1.446-.475-2.183-.218-1.53.094-3.374-.665-4.535-1.418-2.18-3.438-3.967-5.111-5.809.751-1.224 1.427-1.949 1.628-2.785.163-.662-.032-1.719-.49-2.129-.45-.404-1.459-.381-2.169-.252-1.647.295-3.24.877-4.887 1.146-2.172.355-4.14.639-2.241 3.538a23.123 23.123 0 0 1 1.88 3.484c.275.641.209 1.426.298 2.146-.676.048-1.688.401-1.977.088-1.63-1.756-3.638-1.114-5.589-1.355-1.974-.243-3.816-1.464-5.767-2.088-.863-.272-1.854-.135-2.859-.189a252.47 252.47 0 0 1-.207-2.129c-1.572 1.117-2.323 2.321-1.495 4.524.347.914-.587 3.054-1.53 3.587-3.781 2.131-7.792 3.847-12.232 5.961 1.664 1.387 3.059 3.283 4.87 3.865 1.893.601 4.185-.072 5.999-.172.699 1.578 1.292 2.916 2.108 4.753 1.639-2.031 2.822-3.496 4.337-5.378 2.43 3.51 9.119 1.691 8.801 8.222-2.263.705-4.386 1.364-7.179 2.238 1.22 1.111 1.942 1.464 2.103 1.988.257.842.504 2.008.12 2.664-1.329 2.258-6.337 2.369-6.214.212l2-.458c-2.917-1.513-5.108-2.258-7.81.028-4.168 3.527-6.168 3.117-9.015-1.017-.143-.206-.516-.252-1.017-.478.364.917.624 1.576.928 2.346-.934 0-2.223-.08-2.237.015-.293 2.082-1.782 2.687-3.501 3.142-.278.072-.602.628-.599.957.009.86-.029 2.344.329 2.464 1.195.404 2.556.321 3.851.415 1.478.109 4.228.101 4.248.327.361 4.271 3.301 3.968 6.438 3.641l1.406 3.426c.842-.298 1.759-.472 2.515-.922 1.424-.851 2.756-1.859 4.126-2.802-.163-.243-.33-.49-.496-.733 2.169-.318 4.335-.639 6.667-.986.126-.753.3-1.816.504-3.059 3.695 4.489 4.357 4.563 7.199.793 1.003 1.321 1.968 2.596 2.808 3.696l3.999-2.647c-.791 3.397-.791 3.397-5.833 4.085 3.277 4.864-2.81 2.613-3.549 4.97l14.06 7.566 1.049 6.323c-.688-.083-1.049-.034-1.109-.146-2.332-4.38-5.074-4.759-8.6-1.166-.88.899-1.702 1.859-2.622 2.716-.905.842-1.902 1.584-2.747 2.28l2.303 2.412c-1.383 1.178-2.773 2.358-4.294 3.65 1.335 2.283 3.031 4.208 6.108 2.959-.29 2.963-.579 5.988-.874 9.01l.029-.02c-.911 1.793-1.822 3.59-2.73 5.386-2.693.484-5.372 1.166-8.082 1.318-.665.037-1.432-1.656-2.538-3.04 1.581-.298 2.369-.226 2.844-.576 1.272-.936 2.845-1.873 3.415-3.188.252-.587-1.426-2.372-2.555-3.12-2.61-1.736-5.81-2.727-6.982-6.082 4.04-3.266 3.444-6.242-1.283-8.846-1.263-.697-2.206-2.456-2.707-3.925-.533-1.564-.367-3.369-.484-4.804 1.584 0 4.303.22 4.345-.035.45-2.549 3.172-5.053.737-7.718-.782-.862-2.355-1.859-3.206-1.598-1.209.369-2.088 1.839-3.105 2.836.223.278.444.559.664.833-1.727.247-3.458.493-4.973.708l3.816-5.202c-1.562.521-3.51 1.888-4.604 1.386-2.149-.979-3.824-2.999-5.761-4.646.874-1.235 1.616-2.286 2.358-3.338-1.232.636-1.808 1.922-2.794 2.472-1.475.817-4.271 1.991-4.698 1.484-1.985-2.343-3.489-.037-4.632.453-1.338.576-2.089 2.524-2.885 3.601.642.564 1.908 1.132 1.954 1.79.341 4.664.607 9.348.504 14.018-.034 1.645-1.063 4.604-1.828 4.67-4.031.341-4.575 3.243-5.44 6.085-.699.272-1.398.547-2.1.825-.35-.187-.702-.37-1.057-.559v.006c-.003-.003-.003-.006-.003-.006s-.006.106-.009.103c-.043-.596-.083-1.186-.18-2.707-1.533 2.942-2.641 5.065-3.91 7.503-4.066-.817-8.38-1.685-12.838-2.584-.103-.903-.212-1.905-.395-3.57-4.867 3.017-1.094 6.801-1.049 10.064-4.466-.392-8.405-.739-12.565-1.106v-5.555c-.876 5.653-1.667 10.784-2.463 15.935l-5.466 1.908c.765 1.017 1.369 1.822 2.406 3.205-2.065 0-3.403-.014-4.744.003-2.103.026-4.607-.604-4.567 2.894.003.275-.839.839-1.16.759-.366-.098-.747-.728-.839-1.183-.146-.725.034-1.516-.083-2.252-.456-2.851-1.375-3.269-3.667-1.59-1.685 1.232-3.255 2.618-5.3 4.277-1.1-.679-2.679-1.644-4.372-2.69-1.286 2.521-2.578 4.842-6.202 3.389 1.739-2.71 4.14-5.036 4.718-7.746.605-2.854-.533-6.077-.925-9.311-1.925.983-4.057 1.481-5.26 2.819-1.977 2.197-4.268 1.727-6.265 1.114-1.238-.381-2-2.3-2.344-2.736 2.496-3.492 4.484-6.276 6.472-9.061l-.713-1.134c-5.04 1.08-10.079 2.163-14.846 3.185h6.234a933.82 933.82 0 0 0-1.08 2.808c2.209-.358 3.953-.639 5.695-.92l.298 1.014c-.948.278-1.879.651-2.847.808-1.43.238-2.963.083-4.315.522-4.329 1.403-7.944 5.918-13.324 2.103-.527 2.704-.943 4.618-1.263 6.548-.742 4.421 1.157 7.197 6.165 8.142-1.135 1.072-1.937 2.438-2.756 2.45-1.029.017-2.077-1.075-3.513-1.926-.727.384-1.902 1.078-3.137 1.619-.71.315-1.535.561-2.297.524-1.55-.071-3.088-.352-5.372-.641-1.323-2.218-1.088-2.713 4.246-6.727-2.807-1.355-3.638-1.117-4.69 1.344-1.421 3.317-3.661 5.726-7.474 5.861-4.967.181-9.949.324-14.911.103-2.321-.106-4.601-1.1-7.142-1.756a899.918 899.918 0 0 0 2.142-3.355c.674-.851 1.34-1.701 2.012-2.555 2.753-.911 5.509-1.816 8.262-2.724l-.006.005c.519.046 1.049.204 1.547.126 1.937-.292 4.633.012 5.627-1.134 2.14-2.478-.164-4.469-2.14-5.956-3.006-2.26-6.14-4.352-9.214-6.512 1.613-3.217 6.652-5.085 2.871-9.508-.04-.046.046-.215.094-.315 1.665-3.28-2.208-3.842-2.916-5.959l-3.9 1.521c-.418.163-.841.318-1.007.384-.356-1.441-.705-2.856-1.017-4.111-1.842 1.155-3.163 1.985-4.484 2.81-.174-.232-.346-.467-.524-.702l1.143-2.366c-.198-.106-.392-.212-.59-.315-1.504 1.971-3.005 3.945-4.693 6.156h-6.995c.392.055.79.101 1.183.172 3.515.654 7.652-.467 10.029 3.57.215.369 1.427.332 2.12.201 1.507-.29 2.983-.763 4.544-1.181.722 2.352 1.58 4.506-1.407 5.696-5.079-2.817-5.079-2.817-6.411 3.108 2.054-.43 3.939-.751 5.772-1.258.582-.16 1.029-.805 1.535-1.229.17.757.336 1.513.537 2.398l3.778 1.22c-3.699.926-6.394 1.616-9.104 2.266-.518.127-1.409.321-1.567.098-2.086-3.02-4.054-.739-5.861.209-1.785.94-3.341 2.303-4.796 3.337-1.1-.813-2.023-1.498-3.3-2.443.736-.41 1.529-.851 2.598-1.441l-6.409-2.475c-.363.234-.727.472-1.091.707.169-1.237.178-2.521.541-3.698.422-1.37 1.155-2.639 1.751-3.954-.298-.146-.602-.292-.9-.435 2.687-1.745 3.47-4.524 3.364-7.635-.058-1.719 1.286-4.879 2.303-5.008 5.457-.704 7.314-5.872 12.456-8.021-4.226-1.47-6.666-1.736-8.904 1.773-1.681 2.636-4.426 4.839-7.15 6.492-2.822 1.716-5.446-.799-7.667-2.169-1.157-.713-1.168-3.283-1.535-4.489-2.65-.644-5.148-1.255-7.119-1.733.432-2.426 1.541-4.604.879-5.641-2.478-3.876-8.119-3.787-10.565.055-1.072 1.678-1.324 3.873-2.134 6.414-.76.602-2.676 1.432-3.464 2.876-1.69 3.097-3.538 5.205-7.325 5.956-1.559.307-3.882 3.458-3.624 4.928.621 3.555 2.555 6.884 3.87 10.086-.785.447-1.862 1.06-2.936 1.674a5943.13 5943.13 0 0 0 3.819 5.612l-1.651 2.151c.009.006.015.014.023.017-.008-.003-.014-.011-.023-.017-.04-.023-.071-.057-.108-.074a.844.844 0 0 0-.081.1c-1.985.02-3.987-.12-5.927.172-.928.14-2.544 1.401-2.441 1.776.682 2.541 1.275 5.329 2.799 7.363 1.63 2.171 3-.754 4.541-1.25-1.12 2.172-2.312 4.309-3.332 6.527-.395.853-.364 1.902-.613 2.839-.278 1.04-.65 2.939-.988 2.939-2.831.003-5.664-.341-8.704-.599.817-2.979 5.509-4.698 1.716-8.485 3.481-.845 4.12-2.859 2.859-5.919-3.403-.172-6.855-.129-10.235-.576-3.252-.43-6.65-.891-9.595-2.206-3.472-1.555-6.342-4.174-6.205-8.534-7.016 4.171-14.877.493-22.03 2.873-.112-1.931-.209-3.558-.335-5.758.309-.086 1.515-.137 2.334-.725.966-.693 2.441-2.146 2.226-2.764-1.168-3.372.86-3.713 3.226-3.959l-4.14-.37c1.456-1.238 2.564-1.811 3.049-2.722.346-.65-.146-1.747-.264-2.647-3.856 1.115-4.246-2.698-5.773-3.753.791-1.856 1.728-3.311 1.94-4.87.089-.667-1.324-1.538-2.054-2.315-1.315 1.702-2.63 3.401-3.865 4.997-1.28-.232-2.804-.507-4.326-.779.568 1.206 1.135 2.406 1.691 3.589-3.031 0-6.291.126-9.534-.043-2.51-.132-4.12-.014-3.581 3.323.209 1.275-1.032 2.788-1.61 4.189l-1.078-.596c.379-.874.754-1.745 1.049-2.424-3.002-3.549-5.936-7.019-8.875-10.488.676.536 1.346 1.072 2.017 1.607 2.36-3.449 4.718-6.904 6.655-9.734-2.221-2.604-4.255-5.014-6.32-7.392-.281-.32-.702-.661-1.097-.716-4.776-.644-6.584-3.587-6.123-8.545-1.922 0-4.289-.665-5.059.163-1.009 1.08-.751 3.335-1.244 6.337-1.398-1.868-2.681-3.014-3.222-4.444-.717-1.882-1.522-2.847-3.693-2.509-3.785.579-7.601.954-11.147 1.384-1.255-.811-2.63-1.702-4.647-3.009l-1.971 13.262c-.284-.04-.57-.078-.854-.121.316-2.586.579-5.185.957-7.76.525-3.564-.498-4.879-3.959-5.037-.745-.031-1.598-.129-2.2-.512-2.745-1.759-5.415-3.627-8.331-5.604l-1.172 2.951c-3.532-1.917-3.512-1.877-7.09.269-.702.418-1.659.404-2.498.593-.08-.69-.146-1.378-.244-2.06-.303-2.249-1.146-3.985-3.859-3.481-2.016.373-4.007.9-5.998 1.396-4.871 1.209-9.715 2.532-14.614 3.615-2.08.458-4.546-.613-6.096 1.836-.218.347-1.418.496-1.839.23-4.759-3.034-10.391-2.043-15.487-3.461v179.451c1.363.081 2.733.227 4.099.227 73.204.011 146.412.02 219.616-.041 2.464-.002 5.028-.446 7.375-1.214 37.995-12.416 76.702-22.116 115.995-29.247 31.393-5.701 62.926-10.706 94.508-15.246 23.322-3.355 46.793-5.782 70.253-8.048 22.896-2.211 45.86-3.71 68.798-5.491 1.716-.135 3.45-.018 6.271-.018-2.976 2.942-5.153 5.088-7.33 7.237 2.177-1.519 4.388-3.031 6.087-4.988 1.917-2.203 4.157-2.899 6.904-2.982 39.589-1.195 79.169-3.022 118.767-3.466 35.142-.39 70.308.406 105.45 1.323 25.05.653 50.1 2.014 75.104 3.724a2138.01 2138.01 0 0 1 76.622 6.612c25.147 2.633 50.211 6.048 75.301 9.231 8.11 1.034 16.18 2.426 24.54 3.695v-61.129c0-43.992-.01-87.984.02-131.976 0-1.386.36-2.773.56-4.266 4.39 1.937 2.3 4.048 1.37 6.472 1.9-.748 4.55-1.942 4.49-2.976-.11-1.78-1.62-3.77-3.06-5.094-1.55-1.407-2.24-2.235-1.86-4.481.04-.269-.7-.67-1.14-1.02v.009c0 .006-.1-.077-.1-.077.03.023.07.048.1.068v-8.694c.09-1.593-.35-3.255-.35-4.919-.04-59.7-.02-119.402-.1-179.102-.01-1.865-1.06-3.733-1.63-5.595l-1.51.166c3.13-4.884 4.25-9.995 2.42-16.034l-8 3.483c1.07 1.765 1.79 2.963 2.98 4.928-2.51-.166-3.86-.221-5.19-.358-2.84-.295-5.66-.842-8.49-.908-3.91-.086-4.49.673-4.48 4.658v7.531c3.86-1.074 7.28-2.028 10.26-2.856V317.81c-1.58-1.103-2.25-1.567-3.59-2.501.3 3.215.46 5.704.78 8.168.52 3.959 1.56 7.99-2.88 10.791 1.16.857 2 1.479 3.33 2.456-1.5.951-2.59 2.243-3.7 2.251-5.04.035-10.09-.286-15.14-.507-.16-.005-.31-.263-.65-.567.75-.415 1.43-.791 1.53-.851-.69-1.08-1.98-2.174-1.94-3.22.16-4.46.72-8.909 1.15-13.51l-1.92.097c.6-4.478 1.75-8.68 1.54-12.817-.18-3.81-.85-7.471.99-11.041.18-.347.29-.991.09-1.232-2.43-3.031-1.58-6.543-1.52-9.929.1-5.607.83-8.154-7.09-6.019-.16.043-.38-.175-.65-.301-.08-.284-.26-.616-.23-.925.17-1.63.09-3.372-1.94-3.295-.6.023-1.62 2.097-1.62 3.235-.09 19.113-.04 38.227-.03 57.341 0 2.504.58 4.51 3.49 4.538-1.94 2.049-4.42 3.739-5.59 6.079-2.24 4.507-4.01 9.165-9.05 11.368-.48 4.63-1.23 9.253-1.36 13.894-.08 3.109 1.68 6.352-1.5 9.345 3.9 2.215-.02 3.928-.56 6.67 1.08-1.166 1.69-1.828 3.06-3.295-.55 4.486-.99 7.93-1.39 11.382-.09.805-.25 1.682-.04 2.429 1.04 3.681.66 4.381-3.52 5.718-.14-.745-.28-1.475-.41-2.203-.77 2.842-1.21 5.736-.67 8.426.84 4.085 1.55 7.886.03 12.075-1.59 4.386 1.09 7.073 5.93 6.48-.25 1.556-.5 3.083-.78 4.756.72 0 1.19-.092 1.61.014 2.4.584 5.41.149 6.14 3.567.66 3.076.15 5.661-2.96 7.248-.5.252-.72 1.025-.53.736 1.04 2.111 2.17 3.552 2.46 5.148 1.86 10.078.07 20.079-.9 30.098-.46 4.738-.84 9.485-1.25 14.226-.64-2.209.12-4.81-.78-6.526-2.2-4.148-.57-7.912 0-11.863.13-.963-.37-2.051-.71-3.04-.36-1.042-1.23-2.028-1.25-3.051-.13-7.141-.24-14.292-.07-21.431.07-3.275-1.4-4.272-4.29-4.045-3.43.269-6.845.644-10.272.833-6.463.364-7.385 1.146-7.818 7.796-.163 2.492.08 5.022.246 7.528.31 4.676 1.066 9.357.989 14.024-.215 12.934-.768 25.857-1.212 38.786-.009.249-.344.487-.765 1.04a9277.206 9277.206 0 0 1-3.005-7.878c-.427.091-.851.177-1.278.266v5.756c-4.403-.298-8.319-.754-12.235-.783-6.632-.045-13.29-.111-19.885.43-2.787.229-5.566 1.765-8.099 3.16-.75.415-.641 2.381-.931 3.633.997.214 1.98.501 2.985.63 1.745.223 3.504.35 5.641.553-1.596 1.524-3.102 2.532-3.991 3.933-.87 1.37-1.108 3.134-1.922 5.653-.255-2.602-.281-4.355-.653-6.031-.175-.773-1.02-1.398-1.555-2.091-.662.622-1.84 1.2-1.888 1.865-.244 3.157-2.057 6.259-.218 9.551.418.748-.017 2.309-.559 3.186-1.203 1.939-2.724 3.687-4.366 5.847 4.295.212 4.936 3.882 5.615 7.059.691 3.263.545 6.703.719 9.345 2.014.702 3.281 1.143 4.621 1.612 2.043-3.26 2.046-6.909.665-10.972-.751-2.22-.135-4.898-.135-7.374 1.536 7.443 4.424 14.863.161 22.314.828.118 1.409.201 1.991.281.003.424.005.851.005 1.275-16.492.957-32.985 1.911-49.558 2.873l-1.409-6.784a3.9 3.9 0 0 1 .068.081c.003-.098.003-.195.006-.295-.014.037-.029.068-.046.106-.47-2.519-1.246-5.043-1.252-7.561-.002-2.675-.398-4.913-3.045-5.875-2.713-.992-3.701-2.802-3.81-5.529-.183-4.458-.639-8.904-.814-13.359-.338-8.572-.581-17.152-.828-25.729-.352-12.23-.85-24.463-.936-36.692-.058-7.773.613-15.55.773-23.328.08-3.931-.252-7.87-.369-11.073-1.636-.559-3.054-.851-3.043-1.068.08-1.545.453-3.074.733-4.61.347.032.691.066 1.038.097.595.975 1.191 1.948 1.936 3.172.427-.98.831-1.579.948-2.229.668-3.698-.137-4.738-3.833-5.841-.716-.215-1.272-1.398-1.63-2.246-.338-.811-.324-1.768-.544-3.152-2.73 2.097-4.461 3.699-3.395 6.899.671 2.008-.011 3.784-2.309 4.664-2.177.833-3.306 2.415-3.326 4.91a969.114 969.114 0 0 1-.438 22.294c-.035 1.249-.874 2.487-.854 3.721.072 3.681-2.679 7.308-.069 11.107.499.725.169 2.679-.498 3.406-1.541 1.679-1.957 3.112-.834 5.194 1.138 2.092 2.332 4.343-.375 6.403-.341.264.114 1.622.261 2.464.338 1.956 1.117 3.942.988 5.861-.258 3.753-.94 7.483-1.63 11.187-.112.599-1.043 1.049-1.659 1.556-.037.003-.083.003-.123.006.008.023.011.048.02.074.006-.006.109-.08.109-.08 2.395.765 3.309 2.535 3.203 4.899-.098 2.145-.888 4.446-.335 6.385.676 2.367-.565 2.782-2.026 3.464.493-4.509-2.822-3.363-5.194-3.406-2.277-.043-4.197.547-4.059 2.764 2.148 1.252 3.801 2.22 5.686 3.321.797-.568 1.989-1.421 3.18-2.272 3.232 3.363 2.799 7.434 2.189 11.516-.604 4.068-2.845 5.114-6.423 3.303-1.527-.776-3.289-1.398-4.976-1.484-4.228-.214-8.474-.126-12.714-.065-.842.011-2.269.217-2.424.679-1.037 2.982-3.211 2.251-6.016 1.36.224 4.541.416 8.497.608 12.453 2.767-.4 4.555-.32 6.225.158 3.017.865 3.968-.106 3.781-3.521-.057-1.091.903-2.303 1.573-3.352.573-.89 1.398-1.624 2.206-2.535 4.217.481 8.657.988 13.087 1.496.1 1.26.171 2.183.326 4.111.298-1.748.421-2.478.542-3.166h3.168c1.733 4.016.59 6.068-3.859 7.729a4207.5 4207.5 0 0 1-3.346 9.102c.825.47 2.484.962 2.501 1.512.04 1.226-.636 2.527-1.212 3.707-.358.742-1.658 1.524-1.518 1.934.882 2.555-1.14 3.16-2.576 3.601-2.36.731-4.878 1.206-7.351 1.289-5.076.175-10.173-.166-15.246.069-2.819.129-5.73 1.813-7.285-.685-1.608.797-2.731 1.708-3.957 1.883-2.481.349-5.019.34-7.537.409-8.961.249-17.922.456-26.886.708-3.767.106-7.46.335-8.695 4.993-.143.547-1.137 1.226-1.75 1.241-8.54.2-17.123.911-25.428-2.057-1.226-.436-2.682-.184-4.017-.353-3.87-.49-7.786-.79-11.582-1.63-3.08-.679-5.936-2.486-9.027-2.985-5.412-.874-10.927-1.117-16.395-1.647-.662-.066-1.31-.264-1.966-.404.032-.398.063-.796.098-1.195 2.028 0 4.154-.392 6.067.078 4.512 1.103 8.059.71 9.666-4.372.126-.395.556-.693.754-.925 1.484.169 3.105.879 4.056.358 2.974-1.622 5.836-.694 8.861-.659 7.904.094 15.831-.41 23.721-1.006 4.813-.361 4.921-.868 2.833-5.678h-35.194c5.526-1.951 11.608.679 17.171-2.658-1.592-2.868-3.125-5.633-4.99-8.999h6.606c-.189 1.023-.349 1.874-.636 3.412 4.974-6.148 3.066-12.691 3.452-19.005-3.397-.67-4.767-2.655-4.443-5.924.183-1.862.407-3.779.178-5.615-.436-3.501.358-6.051 4.526-6.727-1.117-4.054 1.06-8.193-2.14-11.972-1.123-1.323-1.272-5.337-.221-6.271 2.561-2.272 1.052-2.515-.736-3.294-.607-.267-1.535-.677-1.616-1.144-.515-2.987-2.234-1.664-3.721-1.145-.911.323-1.793.736-2.753 1.134l-.685 11.783c-3.366-8.801.502-18.005-2.346-26.898-1.908.871-3.203 1.464-3.747 1.714-2.478 3.927 2.312 9.152-3.587 11.476l1.289 14.258c-1.346.504-2.893 1.091-4.666 1.762.12.808.329 2.229.667 4.486-1.544-.934-2.527-1.469-3.444-2.097-.825-.564-1.575-1.223-2.357-1.842-.45.945-1.138 1.859-1.284 2.851-.163 1.097.175 2.271.293 3.412.189-.018.375-.032.567-.049v-5.274c.361-.037.719-.08 1.08-.123.26 2.042.515 4.085.885 6.998-2.346.542-4.953 1.951-7.119 1.453-3.022-.699-3.338.581-3.756 2.716-.309 1.578-.811 3.122-1.223 4.681-.37-.08-.739-.158-1.112-.235 0-2.309-.968-5.61.187-6.735 3.122-3.046 2.988-6.449 2.927-10.116-.088-5.119-.229-10.245-.068-15.361.046-1.415 1.083-2.799 1.547-3.905-5.581.639-7.025 2.18-7.137 8.331a27.97 27.97 0 0 0 .041 2.406c.487 7.713 1.12 15.419 1.418 23.14.117 3.048-.656 6.119-.734 9.187-.149 6.125.556 12.379-3.965 17.75 4.438.089 4.541.244 3.478 4.051-.12.43-.094.902-.137 1.355l-.221.264c-1.137 3.816-.636 4.383 4.968 5.981-3.303.487-6.638.462-9.927.834-1.507.175-3.864.802-4.214 1.796-1.467 4.163-4.197 5.031-8.133 4.464-2.094-.304-4.269-.055-6.374-.055.384-.596 1.014-1.406 1.469-2.309.51-1.008.857-2.1 1.278-3.154.095-.14.186-.281.278-.418 1.535-.012 3.14-.31 4.589.043 1.842.447 6.629-1.232 7.285-3.005 1.857-5.02.012-9.368-2.472-13.817 1.458-2.584 3.985-3.301 6.887-2.656 2.203.49 3.449-.272 3.544-2.372.263-5.801.687-11.666-2.106-15.854.848-1.842 1.894-3.022 1.782-4.077-.323-3.039-1.111-6.03-1.722-9.038-.005-.009-.017-.014-.02-.02-.469.791-.776 1.785-1.446 2.318-2.295 1.827-4.805 3.426-5.054 6.758l-2.933 2.973c-.611-.215-1.439-.272-1.757-.702-.229-.312.035-1.32.404-1.673 1.06-1.011 2.287-1.847 3.195-2.555-1.819-3.418-3.581-6.529-5.12-9.746-.424-.894-.644-2.498-.146-3.06.599-.682 2.063-.598 3.85-1.005l-1.604 3.469.473.344c.782-1.037 1.561-2.074 1.997-2.65 2.75 1.873 5.448 3.701 8.141 5.529.003-.009.006-.02.012-.029a.627.627 0 0 1 .008.049c.041.026.081.049.115.074.607-.57 1.728-1.108 1.756-1.704.258-4.982.404-9.975.341-14.963-.014-.902-1.152-1.788-1.942-2.934.386-.507 1.232-1.575 2.031-2.678 2.232-3.083-.218-4.707-2.06-6.518a.278.278 0 0 0-.049-.02l1.507-6.743c2.158.882 4.618 1.781 6.973 2.907.585.278 1.172 1.284 1.16 1.943-.054 3.446 1.863 5.096 4.98 5.615.312 3.28.598 6.325.888 9.376.286-2.859-.192-5.701-.029-8.508.106-1.791.94-3.65 1.856-5.251.851-1.499 2.241-2.693 3.389-4.017.891.567 2.536 1.619 3.908 2.498 1.026-1.252 1.538-2.518 2.289-2.678 2.189-.464 4.469-.487 6.85-.694l1.773 5.343 3.515-1.163c.37-4.498.37-4.498 2.049-4.612-.582 4.775 1.303 6.297 7.374 5.297.389 3.85 1.114 7.669 1.102 11.485-.022 10.064-.509 20.125-.544 30.186-.026 7.535.292 15.075.668 22.604.054 1.105.997 2.632 1.965 3.148 5.263 2.813 8.803 1.372 10.9-4.157.321-.845.605-1.702.977-2.756 2.564 2.513 2.077 4.415-1.031 6.062 2.358 1.837 4.486 3.498 6.618 5.16-.969-4.286 2.272-8.136.825-12.391 1.329-.203 2.194-.335 2.59-.398.742-1.916 1.335-3.455 1.928-4.993-.275-.212-.556-.424-.831-.636-.396.942-.794 1.885-1.089 2.601-2.524-1.209-6.185-2.561-6.082-2.973.894-3.602-2.051-5.088-3.432-7.377-.094-.152-.338-.213-.515-.316-.616.195-1.232.384-2.029.633.106-1.168.195-2.165.284-3.125 5.406-.63 5.406-.63 7.457 2.707.716-1.63 1.659-2.773 1.65-3.913a4070.41 4070.41 0 0 0-.636-47.017c-.069-3.538.481-7.326-2.512-10.411-.588.266-1.281.415-1.748.822-2.475 2.169-4.211-.154-5.563-1.349-.934-.819-1.433-3.928-.863-4.369 3.613-2.77 4.79-6.578 5.581-10.697.043-.226.496-.375.814-.596.782.682 1.518 1.326 2.117 1.851-.691-4.174-.396-4.326 11.467-5.638 1.791 4.108 4.375 5.068 7.28 1.724 2.739-3.148 4.426-7.279 6.234-11.141.859-1.828.928-4.028 1.435-6.454 2.994 2.716 6.025 4.707 7.993 7.457 2.189 3.057 2.306 6.887 1.401 10.525-.49.112-.98.224-1.47.338-1.005-3.277-2.011-6.555-3.025-9.852-1.739.736-2.848 1.209-3.787 1.607v14.763c1.564.283 3.28.595 5.096.928.367 3.512.702 6.678 1.031 9.838l1.416-.347-1.756 7.852c1.008-1.464 1.621-2.352 2.446-3.552.287 2.063.172 3.813.791 5.251 2.097 4.905.687 9.4-1.172 13.909-.235.212-.47.424-.705.633-.209 2.292-1.458 5.36-.432 6.721 2.781 3.692 1.275 7.182 1.252 10.153-2.828-.55-5.409-1.055-8.248-1.61.315 6.019.573 10.98.831 15.942-.599.035-1.204.063-1.805.098l-.777-12.13-3.469 1.756c-1.415-1.759-3.959-3.34-1.739-5.225-.656-.92-1.427-1.501-1.406-2.054.097-2.965.478-5.919.598-8.887.167-4.039-.607-8.285 3.203-11.387l-1.994-2.161v-10.465c-4.051-4.526-1.174-9.709-1.716-13.759-3.197-2.329-5.589-.937-7.892 1.188-1.418 1.31-3.06 2.378-4.469 3.699-1.694 1.587-1.665 3.18.088 4.893.848.831 1.788 2.109 1.794 3.194.117 17.748.086 35.495.112 53.243 0 .727.226 1.455.346 2.183 2.601-4.369 7.082-4.163 11.488-5.395-1.65 5.128-3.188 9.918-4.495 13.978l4.435 3.612c-1.301 1.335-2.598 2.664-4.266 4.38.527 1.361 1.301 3.335 2.046 5.246-1.353 1.071-1.353 1.071-7.987.349l-.866-3.357c-.633.905-1.567 1.676-1.727 2.587-.307 1.773-.272 3.627-.178 5.434.029.556.989 1.037 1.075 1.619.567 3.862 3.291 4.638 6.517 4.681 3.36.049 6.721.072 10.078-.003 3.504-.074 7.011-.447 10.511-.378 2.642.052 5.263.742 7.907.88 3.163.163 6.334.04 8.918.04v-7.392l-3.111-.977c3.28-5.11 6.392-9.957 9.729-15.151-3.065-.476-6.835-1.057-10.691-1.653 2.068-3.261 7.95-4.475 9.68-2.433 1.785-.991 3.524-1.959 5.091-2.824-.571-4.916-1.189-9.884-1.716-14.866-.453-4.286 2.618-8.073 2.034-12.45.452 2.171.902 4.374.931 6.583.114 9.156.16 18.312.097 27.468-.02 2.495.393 3.629 3.283 2.879 2.318-.602 4.804-.542 7.732-.825 1.043-3.847 1.023-8.087-.696-12.319-1.885.267-3.796 1.181-3.572-1.856.358-4.793.146-9.632 1.157-14.373.266-1.263.605-2.515 1.043-4.331l2.057 2.609c0-5.489.567-10.215-.172-14.728-.648-3.956-2.762-7.674-4.326-11.751a5929.74 5929.74 0 0 1 3.369-1.882c-.444-1.146-1.174-2.2-1.22-3.28-.333-8.116-.642-16.232-.711-24.354-.026-3.066.155-5.81-4.257-6.117 1.61-.59 3.223-1.18 3.951-1.449.868-4.203 1.61-7.824 2.214-10.754 3.922-.195 6.853-.347 9.766-.493.166-.745.361-1.49.487-2.246.513-3.134.969-6.417-3.14-7.412-3.005-.73-3.793-2.77-4.179-5.342-.081-.528-.315-1.029-.341-1.118-5.317 3-10.5 5.928-15.974 9.019 1.329 1.232 1.959 1.81 2.466 2.283l-2.054 4.627c.805-.699 1.172-1.02 1.925-1.676v43.092l-1.363.017c0-3.394-.02-6.786.008-10.181.015-1.828.301-3.673.106-5.472-.197-1.851-.882-3.197-3.42-2.403-1.951.61-4.143.455-6.372.658-.022-1.418 4.12-3.134-.338-3.767 1.713-3.446.427-6.016-4.159-8.23.257-1.484.521-3.02.805-4.67-1.674-.404-3.249-.653-4.699-1.218-.467-.177-.61-1.191-.899-1.822h3.529c1.541-1.143 3.063-2.269 4.18-3.094a792.665 792.665 0 0 1-.602-3.088c.462-.043.92-.086 1.381-.126v5.045l2.874 1.114c-.401 2.479-1.146 4.948-1.075 7.397.052 1.708 1.106 3.45 1.951 5.048.562 1.057 1.553 1.888 2.252 2.707 2.587-.57 1.75-2.807 1.57-5.016-.092-1.057.596-2.22 1.083-3.263.258-.547 1.022-.862 1.266-1.412 1.298-2.957.782-5.647-1.2-8.196-.642-.826-1.195-2.029-1.141-3.026.118-2.306.631-4.592 1.023-7.127 2.905-.909 6.575-6.314 5.953-9.789-1.174.936-2.678 1.564-3.157 2.647-.819 1.862-2.028 1.71-3.552 1.613a12.09 12.09 0 0 0-3.489.286c-2.324.556-4.578 1.69-6.916 1.862-6.383.481-12.806.444-19.189.94-1.578.12-3.022 1.573-4.592 2.266-1.08.475-2.357 1.143-3.397.942-2.542-.475-5.16-1.203-5.343-4.5h-5.621c.206-.278.412-.562.619-.845-1.398-1.51-2.596-3.355-4.286-4.398-.862-.53-2.607.367-3.953.619-1.992-.063-3.473-2.627-6.274-1.028-.556.317-2.012-.934-3.051-1.459 1.956-.535 3.807-.003 5.065-.644 2.945-1.496 5.638-.479 8.396.1 3.003.627 3.851-.805 3.793-3.647-2.455.479-4.844.713-7.073 1.444-2.438.793-3.899.089-5.566-1.759-1.819-2.02-4.232-3.498-6.552-5.346-2.226 9.955-10.863 9.721-16.49 12.497 2.037 1.432 4.355 3.056 6.667 4.678-4.876.026-3.037 5.019-5.269 6.635 5.87 2.128 6.503 1.816 8.03-3.776 1.493.069 2.937.364 4.297.149 1.797-.284 3.559-.785 5.323-1.258.123-.175.249-.344.37-.518.289.066.578.126.868.189-.413.106-.825.22-1.238.329-1.257 1.782-2.607 3.512-3.635 5.418-1.115 2.059-1.828 4.337-2.831 6.804-4.718-1.387-9.485-2.043-12.963 3.022 1.289.146 2.513.283 4.197.47.221 1.842.453 3.753.682 5.663-.335.287-.668.573-1 .86-.284-5.099-2.426-5.879-5.993-3.561-.238.157-.805-.192-1.518-.39.504-.888.885-1.561 1.272-2.237-2.513 1.441-5.401 2.484-5.87 5.898 1.515-.369 2.658-.65 3.807-.928.054.272.115.55.172.825-.946.505-1.891 1.006-2.862 1.524.848 1.189 1.558 2.189 2.501 3.513-3.209.237-6.082 2.435-8.088-.401-.69 1.922-1.489 4.136-2.286 6.354-4.918-1.55-5.698-1.433-7.236 1.444 3.956.128 6.686 3.392 11.161 2.569 2.103-.384 5.541 1.736 6.933 3.725 1.217 1.736 2.312 2.899 4.137 3.781 1.421.685 1.839 1.395 1.604 2.112-.066.085-.126.16-.195.252.04-.012.072-.015.115-.026-.264.498-.831 1-1.627 1.492-.877-1.438-1.659-2.715-2.037-3.334-1.925.358-3.166.587-4.409.819l-1.14-.57c4.42-1.991.779-3.656 1.077-5.352-2.198-.229-4.123-.581-6.048-.584-2.071 0-3.942.378-4.621 3-.232.905-1.762 1.478-2.698 2.203-.101-1.049-.204-2.097-.327-3.45-1.808-1.065-4.079-2.415-6.331-3.747.561-1.278 1.034-2.349 1.507-3.42l-.553-.502-4.332 3.066c2.298-3.246-4.079-8.228 1.702-10.225l-1.974-1.424c.771-.725 1.513-1.478 2.321-2.165 1.005-.854 2.062-1.645 3.102-2.464-1.197-.848-2.297-1.943-3.618-2.478-1.404-.57-3.02-.61-4.486-.871.177-1.1.292-1.793.452-2.768-1.636.178-2.876.31-4.116.447-2.67.31-4.495-.24-4.246-3.572.051-.682-.977-1.447-1.507-2.174.029.418.06.839.095 1.254a3699.667 3699.667 0 0 0-4.879 3.418l-.702-.822c.593-.885 1.189-1.774 2.28-3.398-1.839.863-2.802 1.315-3.936 1.845.026-3.847-2.22-8.316 1.896-10.531-1.051.387-2.094.776-3.171 1.175 1.003-9.194.092-10.337-6.526-8.323 4.088-2.518 8.807-4.337 11.74-9.531-4.532 2.937-5.97 2.599-9.087-1.103-.799-.948-2.048-1.512-2.71-1.982-2.825 2.979-5.254 5.543-7.907 8.339-.774 2.381 3.252 6.137-1.094 8.056a11335.83 11335.83 0 0 0-6.787-4.532c1.727-.986 3.426-1.957 4.976-2.839a2796.03 2796.03 0 0 1-2.501-5.83c-1.702.438-3.587.925-5.472 1.412l-.449-.899c1.773-1.006 3.549-2.011 5.617-3.186-.968-1.61-1.813-3.011-2.859-4.747 1.834-.942 2.73-3.672 5.67-2.177.375.189 1.461-.126 1.552-.418.92-2.986 4.034-2.908 6.352-4.269-2.372-1.793-4.269-3.876-7.409-1.481.201-1.26.791-2.054.762-2.825-.034-.891-.75-2.558-.928-2.529-3.372.593-4.549-1.894-5.956-4.109a563.83 563.83 0 0 0 2.092-2.231c-2.381.653-4.343 1.581-6.329 1.624-1.913.04-3.844-.828-5.767-1.298 1.072-1.449 2.049-2.569 2.865-2.457 4.037.549 4.713-2.152 5.463-5.037.184-.722.894-1.825 1.375-1.83.866-.012 1.751.656 2.605 1.082.452.227.836.702 1.3.783 4.412.759 8.752 1.062 12.345-2.418.12-.115.395-.072.75-.129.376.739.765 1.515 1.258 2.492 3.844-2.467 6.827-1.166 9.895 2.768.372-2.186.63-3.679.842-4.925 1.748-.201 3.639-.413 5.529-.627-.028-.376-.054-.751-.086-1.126h-5.784c0-5.435.101-10.554-.025-15.671-.127-5.028-.619-10.05-.657-15.077-.011-1.41 1.023-2.825 1.688-4.509-2.762-1.868-.708-3.444 1.192-4.73-.82-1.493-1.865-2.69-2.14-4.045-1.035-5.1-1.215-10.222.641-15.23.192-.507.47-1.06.421-1.564A452.36 452.36 0 0 0 705.9 289.3c-.284-2.243.73-3.392 2.807-3.928 4.32-1.106 8.637-2.226 12.932-3.423 5.56-1.547 11.359-2.653 15.438-8.059-.017 3.529 1.963 2.77 3.598 2.237 8.583-2.813 17.143-5.698 25.701-8.583.507-.172 1.349-.598 1.335-.873-.19-4.006 3.114-3.518 5.405-4.246 3.705-1.186 7.415-2.361 11.167-3.36 1.673-.45 3.481-.379 5.197-.702 2.882-.548 5.744-1.218 9.11-1.943-1.498-1.799-2.334-2.807-3.397-4.082.871-.816 1.61-2.02 2.661-2.424 6.328-2.42 12.711-4.701 19.111-6.933 1.086-.375 2.427-.028 3.504-.421 9.001-3.277 17.971-6.646 26.574-9.852-.146 1.407-.364 3.47-.536 5.12 5.907 1.02 9.606-1.479 12.826-4.762 3.349 2.355 5.165 2.39 6.185-.498 1.031-2.928 3.67-2.662 4.95-2.312 3.782 1.028 4.105-1.338 4.581-3.716.344-1.724.069-3.618.622-5.248.673-1.982.031-5.059 3.475-5.277.003-.003.003-.009.005-.014 0-.006.006-.009.009-.012-.607-7.589-1.114-15.189-1.896-22.763-.241-2.335-1.215-4.599-1.937-7.177l3.148 1.006a39.132 39.132 0 0 0-.143-.633c1.14-.221 2.275-.444 3.412-.665.249.212.501.421.751.633-3.851 2.074-4.149 4.277-.909 6.667.167.12.024.644.038.982.157 3.759.226 7.52.513 11.267.3 3.957-.258 7.598-2.977 10.683.003.006.003.015.003.023-.009 0-.012.003-.017.003-.573 1.604-1.152 3.2-1.728 4.796-.1-.055-.206-.115-.306-.169-.106 1.799-.207 3.604-.338 5.95 1.624-.375 3.188-.51 4.555-1.097 4.36-1.877 8.568-4.117 12.983-5.836 2.73-1.063 5.79-1.258 8.574-2.209 1.272-.432 2.243-1.756 3.613-2.896 2.472 1.974 4.326-.341 6.526-2.005 1.653-1.255 3.555-2.349 5.52-2.968 1.579-.496 3.624.326 5.103-.29 5.801-2.44 11.447-5.245 17.188-7.835.883-.395 2.103-2.802 2.911.132.046-.034.089-.069.132-.1.003 0-.129.106-.129.106 0-.003 0-.003-.003-.006-1.45 1.057-2.793 2.392-4.412 3.065-11.711 4.879-23.44 9.723-35.254 14.35-7.632 2.991-15.416 5.598-23.059 8.354.341 1.335.613 2.381.971 3.773-1.275.089-2.151.269-3.008.189-4.403-.418-5.406.358-5.895 4.575-.115.988-.456 1.954-.72 3.025-.908-.235-1.604-.412-2.584-.665.118 1.25.207 2.201.313 3.284a88246.33 88246.33 0 0 0-21.81 10.445c1.398.312 2.613.103 3.781-.247 3.945-1.174 7.839-2.552 11.824-3.555 3.211-.811 7.047-.51 7.187-5.921 1.218 2.254 1.991 4.205 1.991 6.159.003 2.014-.693 4.042-1.18 6.042-1.409 5.778-1.43 5.784-7.242 6.122-1.828.106-3.659.132-5.489.189-8.577.275-17.152.547-25.726.819.112 2.304-1.315 5.272 2.326 6.117 1.96.455 4.031.621 6.045.587 8.448-.138 16.905-.206 25.331-.722 3.469-.212 4.778 1.203 5.251 4.188.143.903.283 1.814.309 2.722.435 16.467.868 32.931 1.269 49.395.298 12.31.593 24.617.785 36.93.049 3.068-1.137 3.661-3.925 2.384-1.392-.636-2.778-1.625-4.222-1.728-2.224-.16-4.575-.009-6.724.567-4.306 1.158-9.666-3.581-13.112 2.338-.135.232-.923.077-1.404.103-.032.295-.063.593-.097.888 1.32.204 2.967-.02 3.899.691 3.389 2.609 3.457-.061 4.136-2.229.195-.616 1.049-1.026 1.602-1.533.177.229.358.456.533.685a678.074 678.074 0 0 1-.602 3.102c.559-1.211 1.114-2.42 1.702-3.689 3.996.741 8.061 1.501 12.126 2.254-2.704 2.596-5.46 4.615-8.497 6.028-.819.381-2.489-1.072-3.996-1.791-.914 1.258-1.802 2.484-2.696 3.719 1.318.871 2.335 1.55 3.876 2.569-5.216.82-8.872 4.504-9.37 8.569-.167 1.355-.651 2.673-1.078 4.355 2.421 3.26 4.601 3.959 6.183 1.352 1.524-2.51 3.134-1.69 4.821-.742 3.782 2.12 7.314 5.271 11.25 2.355.344 2.524.676 4.924 1.043 7.634 1.003.464 2.315 1.072 3.621 1.679.845 3.914.536 8.322 5.291 10.872.439-.756 1.015-1.747 1.224-2.103 2.102 1.378 3.867 2.272 5.308 3.538 1.951 1.711 5.197 1.785 6.724-.232 1.713-2.26 3.323-4.603 5.151-7.145-.164-.111-1.327-.787-1.278-.899 1.103-2.387 1.467-4.552.123-7.154-.381-.739 1.627-2.71 2.538-4.116.273.12.542.24.808.361v3.134l.722.286c2.054-2.713 4.106-5.431 5.478-7.245 4.526-.908 8.242-1.65 11.957-2.392a78.55 78.55 0 0 0-.203-1.011c-3.177.524-6.354 1.045-9.531 1.57l-.252-.914 6.669-2.169 6.025-7.766c-2.387-1.754-3.163-6.503-1.708-8.558 2.326-3.288 4.392-6.457 3.842-10.94-.501-4.048-.075-8.211-.017-12.325.003-.209.349-.415.681-.784l1.029 2.578a13.162 13.162 0 0 0-.344-5.082c-.461-1.742-1.507-3.372-1.733-5.123-.312-2.366-.077-4.801-.083-7.208-.014-3.469-.289-6.843-3.61-9.273 3.22-1.928 3.132-4.833 3.017-7.947-.138-3.996.034-8.013.301-12.006.261-3.893-1.261-5.687-5.068-4.804-2.739.636-4.315.005-4.991-2.427h-9.101c-1.607.791-3.592 2.197-5.793 2.736-2.486.61-5.165.533-7.76.573-1.636.026-3.281-.287-4.384-.392-.343-7.343-.59-14.118-1.017-20.888-.183-2.922-.252-5.552 3.656-6.738-1.349-.556-2.696-1.109-3.498-1.438 0-2.713-.069-5.077.04-7.434.04-.931.424-1.868.765-2.759.281-.725 1.112-1.441 1.023-2.063-.247-1.678-.545-3.483-1.384-4.91-1.558-2.653-1.799-4.847 1.066-6.612-2.043-2.564-1.733-4.91.707-5.592 1.055-.295 2.261-.115 3.392-.034 3.361.246 6.718.55 10.225.845-.264 1.512-.837 3.395-.874 5.285-.095 4.263-2.068 9.228 3.621 11.21-1.581 1.891-3.1 3.475-4.331 5.257-.708 1.02-.96 2.361-1.421 3.558 1.274-.011 2.718.364 3.79-.103 4.068-1.776 8.013-3.827 11.874-5.709-.114-.161-.619-.843-1.071-1.464 2.214-.198 4.171-.888 5.801-.424 5.446 1.552 9.672-.98 14.063-3.418 1.321-.731 2.931-1.086 4.452-1.272 4.272-.53 5.272-1.455 5.713-5.755h-.003l-.152.022c.052-.005.1-.014.152-.022 1.086-.954 2.103-2.009 3.286-2.811 1.278-.865 2.936-2.32 4.062-2.042 3.32.81 5.048-1.404 7.24-2.86 5.91-3.933 11.828-7.84 17.727-11.785 1.879-1.255 3.555-2.089 5.97-.754 1.043.576 3.057-.097 4.4-.707 1.493-.685 2.39-.811 3.905.229 2.613 1.782 5.615 2.994 8.119 4.274-.845.911-2.363 1.997-3.123 3.475-1.956 3.822-6.288 4.524-9.293 1.404-.653-.679-1.997-1.292-2.785-1.077-.793.217-1.598 1.429-1.847 2.352-.533 1.991-4.269 3.784-6.16 2.693.404-.611.811-1.221 1.404-2.117-3.681-.708-7.277-3.773-9.818 1.521-.272.567-1.65.576-2.486.916-1.075.433-2.117.943-3.301 1.479 3.496 4.071 3.493 4.039 7.549 3.543 5.105-.624 10.076-1.039 14.384 2.928 1.138 1.049 3.152 2.238 5.22.536.842-.693 2.321-.616 3.509-.888-1.097 1.596-2.558 3.587-3.873 3.495-3.449-.244-6.033 1.198-8.671 2.876-1.957 1.247-3.498 2.753-2.014 5.237 1.664 2.791 3.715 3.192 6.168 1.845 2.102-1.157 4.423-1.908 6.44-2.753.713 4.759 1.615 8.887 1.867 13.055.175 2.911-.664 5.87-.79 8.818-.075 1.704.366 3.435.575 5.148.107-.035.213-.075.318-.112-.518 3.558-1.037 7.116-1.552 10.675l1.249.486c1.469-1.386 3.074-2.655 4.383-4.179 2.266-2.639 4.506-2.255 7.197-.341-.998.782-1.866 1.343-2.587 2.054-2.851 2.804-5.891 5.457-8.409 8.537-2.403 2.936-2.031 5.257.381 7.569-3.437 6.726-3.011 8.03 4.134 10.138-5.956 1.109-6.635 5.085-5.818 9.225.687 3.475-2.06 8.024 2.836 10.345-3.146.137-3.63 1.667-2.209 7.225 7.088-.842 14.172-1.682 20.792-2.464 0-7.858-.17-15.072.05-22.271.14-4.48-1.07-9.245 2.62-13.616-1.37.312-2.12.481-2.92.664 0-7.139.03-13.988-.01-20.838-.02-3.435-.58-6.93-.09-10.282.42-2.882 2.09-5.569 2.96-8.417.24-.811-.05-2.189-.64-2.79-4.1-4.246-3.56-8.809-1.2-13.556-2.99-4.424-2.97-4.389-8.07-2.57-.69.24-1.57-.077-2.36-.12-1.709-.101-3.423-.316-5.127-.244-2.06.08-4.114.407-6.168.63l-.284-1.343c1.224-.304 2.667-1.175 3.624-.797 2.493.986 3.959-.146 5.343-1.802 2.106-2.526 4.362-2.529 6.722.026 4.33-2.438 6.1-6.191 6.08-11.098 0-1.438 1.09-2.876 1.65-4.326.11-.261.1-.564.15-.96-.92.098-1.69.175-2.61.27-.68-2.292-1.35-4.495-2.01-6.701-.67.04-1.35.086-2.53.16 1.46-1.186 2.49-2.022 3.53-2.862-.19-.229-.37-.461-.56-.693-3.88 1.854-6.41 5.429-8.709 8.136l-4.208-6.128c-1.169.877-1.794 1.352-2.421 1.825-.55.413-1.094.828-2.011 1.521 1.833-5.036 3.762-6.062 6.827-3.93.596-.745 1.197-1.498 2.3-2.868-.281 1.822-.447 2.879-.69 4.461 2.632-2.934 4.902-5.461 7.262-8.088-1.32-.899-2.15-1.464-2.94-2.005 3.13-2.335 7.44 3.114 10.44-1.937-.21 1.438-.43 2.877-.64 4.318.18.08.37.166.55.249.63-1.077 1.25-2.154 1.89-3.263 6.37-.375 10.31-5.025 13.45-9.534 1.5-2.152 3.27-2.997 5.02-4.174 2.04-1.384 2.76-.092 2.46 1.951 1.41-1.158 2.83-2.315 4.25-3.47.2.252.41.507.61.757-.81.621-1.63 1.24-2.78 2.122 3 1.456 5.46 1.459 7.83-.151 3.08-2.092 4.32-4.753 1.66-8.449 2-.303 3.33-.484 4.66-.713.7-.123 1.61-.109 2.06-.541 1.27-1.258 2.33-2.736 3.53-4.08 2.44-2.736 5.53-4.205 9.11-4.684 1.74 4.816 2.51 5.039 8.22 2.054-2.55-1.229-4.71-2.272-7.03-3.389V163.83c-.03-.015-.07-.035-.1-.052-.01-.014-.01-.026-.01-.04-1.33.776-2.75 1.453-3.96 2.386-.66.505-1.53 1.785-1.31 2.201 2.39 4.583-1.79 4.219-3.92 5.371-1.13.605-2.24 1.258-3.43 1.696-1.41.51-2.94.688-4.32 1.243-1.49.596-3.13 1.187-4.22 2.269-1.94 1.946-3.46 3.997-6.52 1.559-.58-.453-2.53.275-3.48.957-2.84 2.011-5.39 5.895-8.24 6.062-4.47.263-6.03 3.42-9.02 5.566-.67-.762-1.36-1.553-2.29-2.616-2.1 1.693-4.1 3.312-6.1 4.931-.27-.189-.53-.379-.79-.568.57-.827.97-1.853 1.71-2.446 3.74-2.968 7.56-5.821 11.35-8.715l-.57-.768-2.15 1.567c-4.43 3.249-8.83 6.527-13.3 9.724-1.57 1.128-3.14 1.303-4.42-.871-2.08 1.776-4.726 2.879-4.826 6.637-.071 2.622-4.758 4.409-7.746 4.12-1.292-.129-2.708 1.031-4.615 1.839-3.192-2.286-6.117-.644-8.369 2.633-.936 1.358-1.254 3.14-1.853 4.73-.387-.152-.774-.307-1.158-.459.384-.802.768-1.604 1.167-2.432l-3.533-3.862c-1.014.688-1.942 1.315-2.578 1.745-4.446-.962-8.606-1.871-12.823-2.787 1.848-2.384 4.191-3.321 7.202-1.777 2.851 1.462 5.687 1.361 8.022-.756 2.455-2.229 4.125-6.025 6.901-7.041 4.647-1.697 8.185-7.208 14.373-4.507-.195 1.137-.424 2.461-.777 4.532 1.917-.725 3.808-.962 5.037-1.991 3.476-2.919 7.026-5.878 9.866-9.373 1.89-2.327 3.61-4.077 7.04-4.177-.63 1.051-1.16 1.945-1.7 2.836.07.103.13.206.2.309 2.74-2.389 5.49-4.778 8.23-7.17l.84.699c-.14.553-.28 1.108-.4 1.572l16.7-9.044c.29.304.57.605.86.911-.77 1.192-1.53 2.384-2.3 3.576l.51.704c1.43-1.163 3.23-2.08 4.22-3.538 2.37-3.506 6.08-4.601 9.63-6.03.38-.152 1.02.358.84.286 5.15-2.664 9.84-5.085 14.52-7.503l.44.619c-.61.691-1.21 1.378-2.08 2.372 1.02-.295 1.71-.495 2.65-.77.16 1.217.32 2.386.49 3.549.04-.02.08-.037.11-.06v.152c.96.484 1.92.968 2.87 1.458.37-.298.73-.599 1.09-.9-4.37-.596-2.9-2.864-1.75-4.297 1.33-1.633 3.34-2.693 4.99-4.079Z" style="fill:#490100;fill-rule:nonzero" transform="translate(0 -.002) scale(4.16667)"/>
</svg>
