<svg xmlns="http://www.w3.org/2000/svg" xml:space="preserve" style="fill-rule:evenodd;clip-rule:evenodd;stroke-linejoin:round;stroke-miterlimit:2" viewBox="0 0 10838 3325"><path d="M603.475 708.676 592.665 798h124.538l-11.946-89.324H603.475ZM652.934 314.814h-1.438l-38.704 316.809h82.429l-42.287-316.809Z" style="fill:#3c6c7f;fill-rule:nonzero" transform="scale(4.16667)"/><path d="M223.441 798c-5.438-4.923-10.558-10.268-15.087-16.395-23.06-31.177-34.582-76.031-34.582-134.575V372.152c0-93.897 24.605-152.549 73.827-175.965 18.152-8.598 40.136-12.9 65.941-12.9 88.64 0 132.96 55.906 132.96 167.724v86.726h-92.823v-80.636c0-32.49-2.745-55.728-8.241-69.703-5.496-13.98-16.25-20.968-32.252-20.968-16.013 0-27.124 7.409-33.333 22.222-6.215 14.813-9.317 37.511-9.317 68.093v294.587c0 33.933 2.983 58.181 8.96 72.751 5.971 14.581 16.845 21.865 32.614 21.865 15.77 0 26.638-7.403 32.609-22.222 5.972-14.812 8.96-39.299 8.96-73.469v-90.31h94.255v89.234c0 60.927-10.874 106.03-32.609 135.294-3.705 4.986-7.905 9.389-12.33 13.525h97.708l86.648-607.547h126.868L806.382 798h3.839V.244H0V798h223.441Z" style="fill:#3c6c7f;fill-rule:nonzero" transform="scale(4.16667)"/><path d="M2504.02 245.217v4.541h30.88v-4.445c0-2.739-1.06-4.515-3.17-5.339-2.11-.819-6.12-1.234-12.05-1.234h-1.65c-5.02.032-8.61.479-10.77 1.329-2.16.857-3.24 2.569-3.24 5.148ZM2504.26 373.699c0 2.207.93 3.755 2.78 4.637 1.85.888 4.78 1.33 8.77 1.33h39.67c5 0 8.48-.378 10.44-1.133 1.97-.76 2.95-2.313 2.95-4.663 0-2.351-1.01-3.898-3.02-4.643-2.02-.739-5.47-1.111-10.37-1.111h-39.62c-4.03 0-6.97.383-8.82 1.138-1.85.755-2.78 2.239-2.78 4.445Z" style="fill:#00303d;fill-rule:nonzero" transform="scale(4.16667)"/><path d="M2519.82 225.792c8.44 0 14.85 1.201 19.21 3.6 4.36 2.398 6.55 6.854 6.55 13.363v7.003h33.53v12.954h-85.04v-19.526c0-6.6 2-11.12 6.01-13.555 4.01-2.43 10-3.712 17.95-3.839h1.79Zm37.45 65.837c7.83 0 13.59 1.489 17.27 4.446 3.69 2.967 5.54 7.721 5.54 14.283 0 6.551-1.86 11.321-5.56 14.299-3.7 2.978-9.45 4.472-17.25 4.472h-63.25v-12.954h63.01c4.48 0 7.2-.207 8.17-.627.96-.415 1.84-.925 2.63-1.521.79-.595 1.18-1.829 1.18-3.696 0-1.866-.54-3.206-1.64-4.014-1.1-.798-2.46-1.287-4.08-1.468-1.63-.181-3.72-.266-6.26-.266h-63.01v-12.954h63.25Zm-1.93 63.491c8.31 0 14.51 1.483 18.6 4.445 4.09 2.962 6.14 7.705 6.14 14.23s-2.05 11.305-6.16 14.352c-4.11 3.042-10.3 4.568-18.58 4.568h-38.9c-15.59 0-23.39-6.365-23.39-19.09 0-6.573 1.98-11.295 5.95-14.182 3.96-2.882 9.77-4.323 17.44-4.323h38.9Zm23.77 76.091c-.64.319-10.8.484-30.49.484-3.77 0-6.27.452-7.51 1.35-1.24.904-1.9 2.723-1.96 5.462l-.19 4.153h40.15v12.953h-85.04v-21.408c0-4.446.89-7.764 2.68-9.955 1.78-2.191 4.28-3.632 7.49-4.323 3.21-.692 7.39-1.037 12.56-1.037 5.17 0 9.11.548 11.82 1.643 2.7 1.095 4.52 3.121 5.46 6.089.51-2.936 2.49-4.978 5.94-6.137 3.45-1.164 10.62-1.744 21.53-1.744 10.9 0 16.76-.16 17.56-.479v12.949Zm-55.33 49.896v12.079h-8.89c-3.9 0-6.64.412-8.21 1.233-1.58.822-2.37 2.367-2.37 4.64 0 2.271.94 3.874 2.83 4.807 1.88.933 5.22 1.401 10.02 1.401h36.87c5.58 0 9.46-.417 11.65-1.257 2.19-.838 3.29-2.47 3.29-4.903 0-2.433-1.18-4.156-3.54-5.172-2.35-1.015-6.31-1.52-11.88-1.52h-11.45v6.522h-9.43v-17.83h46.44v5.798l-8.36 1.981c2.87.676 5.12 2.159 6.77 4.446 1.64 2.286 2.46 4.929 2.46 7.923 0 5.35-2.1 9.529-6.3 12.542-4.21 3.012-10.69 4.517-19.45 4.517h-36.97c-7.86 0-13.85-1.539-17.98-4.616-4.12-3.076-6.18-7.963-6.18-14.666 0-8.34 3.11-13.642 9.33-15.897 3.73-1.353 8.84-2.028 15.31-2.028h6.04Zm-48.85-286.704v355.343h125.16V194.403h-125.16Z" style="fill:#00303d;fill-rule:nonzero" transform="scale(4.16667)"/><path d="M2504.02 438.214v4.398h24.89v-5.169c0-1.643-.37-2.861-1.11-3.648-.75-.787-2.02-1.335-3.82-1.643-1.8-.303-4.56-.457-8.27-.457h-.53c-4.6 0-7.62.383-9.03 1.159-1.42.771-2.13 2.558-2.13 5.36ZM1047.2 383.766h62.77V336.69h-62.77v-94.153h67.6v-46.88H993.279v354.089h53.921v-165.98ZM1154.43 247.967h53.32v301.779h-53.32zM1153.83 173.93h53.71v46.274h-53.71zM1314.37 323.011c0-10.863 2.18-19.513 6.54-25.956 4.36-6.438 10.3-9.654 17.8-9.654 7.52 0 13.25 2.484 17.21 7.441 3.95 4.967 5.93 11.807 5.93 20.522v234.382h53.31V312.148c0-45.2-17.43-67.799-52.3-67.799-11.94 0-22.34 3.688-31.19 11.064-8.85 7.376-14.62 16.428-17.3 27.161v-34.607h-53.31v301.779h53.31V323.011ZM1515.56 438.489c0-14.08 2.94-24.472 8.85-31.18 5.9-6.709 17.3-13.814 34.2-21.325v102.4c-1.07 5.635-3.72 10.696-7.94 15.192-4.23 4.495-9.67 6.736-16.3 6.736-6.64 0-11.43-3.048-14.38-9.15-2.95-6.102-4.43-16.199-4.43-30.279v-32.394Zm1 114.273c10.74 0 19.89-3.184 27.47-9.556 7.57-6.368 12.71-14.183 15.39-23.436v29.976h53.71V334.477c0-30.041-5.73-52.575-17.2-67.599-11.46-15.018-30.78-22.529-57.94-22.529-27.16 0-46.07 7.511-56.73 22.529-10.66 15.024-16 36.82-16 65.386v9.052h52.71v-13.478c0-14.617 1.41-25.013 4.23-31.185 2.81-6.166 8.41-9.252 16.8-9.252 8.38 0 13.74 2.918 16.09 8.753 2.35 5.831 3.52 16.932 3.52 33.295v26.353c-2.82 1.079-7.68 2.885-14.58 5.434-6.91 2.549-12.31 4.561-16.2 6.036-21.46 8.179-36.68 16.629-45.67 25.35-13.95 13.277-20.92 32.79-20.92 58.542v19.317c.26 26.554 4.62 46.909 13.07 61.058 8.45 14.15 22.54 21.223 42.25 21.223ZM1716.95 323.011c0-10.863 2.17-19.513 6.53-25.956 4.36-6.438 10.29-9.654 17.81-9.654 7.5 0 13.24 2.484 17.2 7.441 3.95 4.967 5.93 11.807 5.93 20.522v234.382h53.32V312.148c0-45.2-17.44-67.799-52.32-67.799-11.93 0-22.32 3.688-31.18 11.064-8.84 7.376-14.61 16.428-17.29 27.161v-34.607h-53.32v301.779h53.32V323.011ZM1941.67 553.369c25.35 0 43.52-7.951 54.52-23.842 11-15.895 16.5-38.594 16.5-68.102v-30.578h-51.5v40.036c0 5.228-.21 9.789-.61 13.678-1.61 16.634-8.38 25.018-20.32 25.149-8.72 0-14.59-3.487-17.61-10.462-3.01-6.97-4.52-17.903-4.52-32.791V330.453c0-14.351 1.64-25.014 4.93-31.988 3.28-6.97 8.82-10.462 16.6-10.462 7.77 0 13.31 2.348 16.6 7.044 3.28 4.697 4.93 16.228 4.93 34.603v35.003h51.5v-33.192c0-28.169-5.5-49.728-16.5-64.681-11-14.957-28.84-22.431-53.52-22.431-24.67 0-43.11 6.101-55.32 18.305-15.29 15.289-22.94 44.863-22.94 88.723v97.774c0 33.799 5.33 59.62 16 77.459 10.66 17.837 31.08 26.759 61.26 26.759ZM2058.76 173.93h53.71v46.274h-53.71zM2059.35 247.967h53.33v301.779h-53.33zM2215.27 438.489c0-14.08 2.95-24.472 8.86-31.18 5.89-6.709 17.3-13.814 34.2-21.325v102.4c-1.08 5.635-3.72 10.696-7.95 15.192-4.22 4.495-9.66 6.736-16.3 6.736-6.64 0-11.43-3.048-14.38-9.15-2.95-6.102-4.43-16.199-4.43-30.279v-32.394Zm1.01 114.273c10.73 0 19.89-3.184 27.46-9.556 7.58-6.368 12.7-14.183 15.39-23.436v29.976h53.72V334.477c0-30.041-5.73-52.575-17.2-67.599-11.47-15.018-30.78-22.529-57.94-22.529-27.16 0-46.07 7.511-56.73 22.529-10.67 15.024-16 36.82-16 65.386v9.052h52.71v-13.478c0-14.617 1.41-25.013 4.23-31.185 2.81-6.166 8.41-9.252 16.79-9.252 8.38 0 13.75 2.918 16.1 8.753 2.34 5.831 3.52 16.932 3.52 33.295v26.353c-2.82 1.079-7.68 2.885-14.59 5.434-6.91 2.549-12.31 4.561-16.19 6.036-21.47 8.179-36.69 16.629-45.67 25.35-13.96 13.277-20.92 32.79-20.92 58.542v19.317c.26 26.554 4.62 46.909 13.07 61.058 8.45 14.15 22.54 21.223 42.25 21.223ZM2363.95 192.642h53.11v357.104h-53.11z" style="fill:#00303d;fill-rule:nonzero" transform="scale(4.16667)"/><path d="M2438.43 663.862h11v129.971h-11zM2512.78 719.615l1.11 44.751-31.9-100.504h-7.67v129.971h10.33V731.06l-.73-35.15 29.9 97.923h8.56V663.862h-9.6v55.753ZM2582.65 667.628c-3.16-3.594-8.39-5.392-15.69-5.392-7.32 0-12.96 2.601-16.91 7.796-3.97 5.189-5.95 15.665-5.95 31.416v51.769c0 17.872 2.24 29.612 6.72 35.222 3.64 4.577 9.08 6.869 16.32 6.869s12.58-2.312 16.02-6.941c1.63-2.166 3.08-5.748 4.36-10.746 1.28-4.998 1.92-13.183 1.92-24.555v-10.338h-11.08v10.417c0 12.551-.72 21.216-2.18 25.99-1.45 4.774-4.54 7.164-9.26 7.164-4.73 0-7.88-2.403-9.45-7.203-1.58-4.794-2.37-13.473-2.37-26.03v-52.132c0-10.239.9-17.745 2.7-22.526 1.79-4.774 5.03-7.158 9.71-7.158 1.52 0 2.88.27 4.06.81 2.16.988 3.84 3.326 5.02 7.013 1.18 3.694 1.77 11.003 1.77 21.934v12.557h11.16v-11.227c0-11.964-.82-20.946-2.44-26.951-.69-2.562-2.17-5.15-4.43-7.758ZM1051.1 689.116l-15.94-17.259c-5.35-5.71-9.05-10.406-11.1-14.063-2.05-3.666-3.08-8.581-3.08-14.737 0-6.156 1.01-10.771 3.03-13.845 2.01-3.082 5.31-4.623 9.89-4.623 4.58 0 7.67 2.036 9.29 6.108 1.61 4.063 2.41 10.786 2.41 20.17v13.845h27.16v-11.979c0-17.365-2.66-30.577-7.97-39.628-5.32-9.052-15.49-13.577-30.51-13.577-15.02 0-25.61 3.885-31.77 11.655-6.152 7.769-9.231 19.635-9.231 35.613 0 9.822 1.85 18.467 5.552 25.945 3.699 7.47 8.889 14.696 15.559 21.655l14.29 14.729c6.37 6.594 11.02 12.92 13.96 18.962 2.93 6.043 4.4 13.139 4.4 21.274 0 8.135-.83 13.999-2.48 17.584-1.65 3.593-5 5.385-10.06 5.385-5.06 0-8.5-2.173-10.33-6.537-1.83-4.363-2.75-11.93-2.75-22.701v-19.457h-27.921v17.259c0 18.468 2.988 32.523 8.961 42.159 5.97 9.635 16.56 14.452 31.77 14.452 15.2 0 25.85-4.323 31.93-12.969 6.08-8.645 9.12-22.019 9.12-40.122 0-10.479-2.03-20.155-6.09-29.019-4.07-8.873-10.1-17.625-18.09-26.279ZM1209.63 741.551c0 11.144-.84 19.003-2.53 23.585-1.68 4.575-5.2 6.87-10.55 6.87-5.35 0-8.89-2.238-10.61-6.708-1.72-4.468-2.58-12.384-2.58-23.747v-90.246c0-9.083 1-15.734 3.02-19.952 2.02-4.217 5.53-6.318 10.55-6.318 5.02 0 8.39 2.101 10.12 6.318 1.72 4.218 2.58 10.901 2.58 20.058v90.14Zm-12.53-142.023c-28.95 0-43.42 17.737-43.42 53.205v88.493c0 18.833 3.46 32.921 10.38 42.264 6.93 9.344 17.81 14.015 32.65 14.015 14.85 0 25.63-4.655 32.38-13.958 6.74-9.311 10.11-23.415 10.11-42.321v-88.493c0-17.438-3.28-30.666-9.84-39.685-6.56-9.011-17.31-13.52-32.26-13.52ZM1358.62 601.839h-29.46v193.469h66.72v-25.062h-37.26V601.839ZM1538.64 745.071c0 5.791-.21 10.536-.61 14.234-.41 3.706-1.52 6.796-3.35 9.286-1.83 2.498-4.88 3.739-9.13 3.739-4.25 0-7.05-.892-8.41-2.692a29.12 29.12 0 0 1-3.46-5.986c-.95-2.198-1.43-8.394-1.43-18.581V601.726h-29.45v143.897c0 17.737 3.38 30.811 10.16 39.238 6.78 8.435 17.62 12.644 32.54 12.644 14.91 0 25.74-4.193 32.48-12.587 6.74-8.386 10.11-21.493 10.11-39.295V601.726h-29.45v143.345ZM1650.8 627.339h22.64v167.969h29.35V627.339h21.76v-25.5h-73.75v25.5ZM1809.47 601.839h29.46v193.469h-29.46zM1990.12 741.551c0 11.144-.84 19.003-2.53 23.585-1.68 4.575-5.2 6.87-10.55 6.87-5.35 0-8.89-2.238-10.61-6.708-1.72-4.468-2.58-12.384-2.58-23.747v-90.246c0-9.083 1-15.734 3.02-19.952 2.01-4.217 5.53-6.318 10.55-6.318 5.02 0 8.4 2.101 10.12 6.318 1.72 4.218 2.58 10.901 2.58 20.058v90.14Zm-12.53-142.023c-28.95 0-43.42 17.737-43.42 53.205v88.493c0 18.833 3.46 32.921 10.39 42.264 6.93 9.344 17.8 14.015 32.64 14.015 14.85 0 25.63-4.655 32.38-13.958 6.74-9.311 10.12-23.415 10.12-42.321v-88.493c0-17.438-3.29-30.666-9.85-39.685-6.55-9.011-17.31-13.52-32.26-13.52ZM2170.13 665.158l2.09 52.759-41.01-116.078h-23.08v193.469h27.15v-69.362l-1.65-50.788 42.1 120.15h20.89V601.839h-26.49v63.319ZM2342.51 689.116l-15.94-17.259c-5.35-5.71-9.05-10.406-11.1-14.063-2.05-3.666-3.08-8.581-3.08-14.737 0-6.156 1.01-10.771 3.03-13.845 2.01-3.082 5.31-4.623 9.89-4.623 4.58 0 7.68 2.036 9.29 6.108 1.61 4.063 2.42 10.786 2.42 20.17v13.845h27.15v-11.979c0-17.365-2.66-30.577-7.97-39.628-5.31-9.052-15.49-13.577-30.51-13.577-15.02 0-25.61 3.885-31.77 11.655-6.15 7.769-9.22 19.635-9.22 35.613 0 9.822 1.84 18.467 5.54 25.945 3.7 7.47 8.89 14.696 15.56 21.655l14.29 14.729c6.37 6.594 11.03 12.92 13.96 18.962 2.93 6.043 4.39 13.139 4.39 21.274 0 8.135-.82 13.999-2.47 17.584-1.65 3.593-5 5.385-10.06 5.385-5.05 0-8.5-2.173-10.33-6.537-1.83-4.363-2.75-11.93-2.75-22.701v-19.457h-27.92v17.259c0 18.468 2.99 32.523 8.96 42.159 5.98 9.635 16.56 14.452 31.77 14.452 15.2 0 25.85-4.323 31.94-12.969 6.07-8.645 9.12-22.019 9.12-40.122 0-10.479-2.04-20.155-6.11-29.019-4.06-8.873-10.09-17.625-18.08-26.279Z" style="fill:#9b9ca0;fill-rule:nonzero" transform="scale(4.16667)"/></svg>