<svg xmlns="http://www.w3.org/2000/svg" xml:space="preserve" style="fill-rule:evenodd;clip-rule:evenodd;stroke-linejoin:round;stroke-miterlimit:2" viewBox="0 0 2700 480">
  <path d="M273.793 748.947v.844h.352c.562 0 .843-.281.843-.844v-.772h-.422c-.516.095-.773.351-.773.772Zm-2.107 68.576v1.195l2.107-.421v-.422l-2.107-.352Zm-.773-11.101-.422.844c.093.515.351.772.773.772h1.264c0-.422-.539-.959-1.615-1.616Zm-.844-12.296v.773h.422v-.773h-.422Zm-.422 6.535v.421h1.266v-.421h-1.266Zm-.421-14.756v2.46l.843-.422.844.422v-.422c-.563-.655-.844-1.335-.844-2.038h-.843Zm0-34.077v.422h.843v-.422h-.843Zm-.421-5.761c.421 1.124.842 1.686 1.264 1.686l.844-1.265-1.266-.772-.842.351Zm-.352 48.059v.422h1.194v-.422h-1.194Zm-.843-56.631v.422l.422 2.88h1.194c.562 0 .843-.28.843-.843-.375-1.124-1.054-1.943-2.037-2.459h-.422Zm-.422 55.366v.422h1.265v-.422h-1.265Zm-.421-47.145v.351h.843v-.351h-.843Zm-.773 80.38v.422h.773v-.422h-.773Zm0-6.114v1.617c1.639-.562 2.459-1.1 2.459-1.617v-.42c-.421.28-1.242.42-2.459.42Zm-2.459-79.606v.421c0 .422.538.961 1.616 1.616.562 0 .843-.281.843-.843v-.773l-2.459-.421Zm-1.265 45.951v.773c.562 0 .843-.257.843-.773h-.843Zm-.421-6.182-.422.842 2.108 1.617h.351v-1.195c0-.468-.679-.889-2.037-1.264Zm-3.304-41.034v.843h1.266c0-.562-.281-.843-.844-.843h-.422Zm-.35 42.719v.774h.35c.563 0 .845-.257.845-.774h-1.195Zm-1.686 43.071v.351h.842v-1.194c-.561.094-.842.376-.842.843Zm-2.038-50.097v.843h1.265c0-.562-.281-.843-.843-.843h-.422Zm-2.037 49.676v.421h.843v-.421h-.843Zm-.422-87.407v.422h2.037c-.28-.468-.421-1.007-.421-1.616h-.351c-.422 0-.843.398-1.265 1.194Zm-1.265 37.31v.843h.422v-.843h-.422Zm-1.616-3.654v.421h1.265v-.421h-1.265Zm-1.616 52.064v.422h.773v-.422h-.773Zm0-4.496c.093.561.351.843.773.843h.421v-.843h-1.194Zm0 6.183-.421.772v.422c0 .422.819 1.124 2.459 2.108v-.422c0-1.405-.68-2.365-2.038-2.88Zm-.421-51.291h.843v-.844c-.562.094-.843.376-.843.844Zm-.844-12.296v.421h.844v-.421h-.844Zm-.772-17.286.351 2.881h.421l.422-2.459-.843-.422h-.351Zm-.422 19.745v.772h.773c0-.515-.258-.772-.773-.772Zm-.843 56.63c.093.517.374.774.843.774 1.077-.375 1.616-.774 1.616-1.194v-.422h-1.616c-.562.094-.843.375-.843.842Zm0-7.447v1.265h.421v-1.265h-.421Zm-.843-45.53v.422h.843v-.422h-.843Zm-.773 54.172v2.038h.422c0-.796.397-1.194 1.194-1.194v-.422l-1.616-.422Zm0-4.918c.046.562.304.843.773.843v-.843h-.773Zm0-72.652v.422h.773v-.422h-.773Zm-.844 75.111v.422h1.266v-.422h-1.266Zm0-66.468v1.265h2.46v-1.265h-2.46Zm-.842-12.296v.843h.421c.562 0 .843-.28.843-.843h-1.264Zm-.773 76.727v1.194h.351v-1.194h-.351Zm-.844-68.506v1.194h.844c.514 0 .773-.257.773-.772l-1.617-.422Zm-1.616 8.15v.422h.773v-.422h-.773Zm19.252-31.969c7.307 1.312 12.507 3.232 15.598 5.761 5.762 5.435 8.643 11.852 8.643 19.252v10.259c-.563 2.764-1.944 4.145-4.146 4.145h-10.258c-1.781 0-3.139-1.241-4.075-3.724.281-3.84.421-7.119.421-9.836v-.422c0-3.514-2.46-5.832-7.377-6.956-3.841.891-5.762 2.67-5.762 5.34v6.956c0 5.199 5.34 11.359 16.02 18.478 10.118 7.496 15.177 16.793 15.177 27.895v9.415c0 12.601-6.722 21.079-20.166 25.435l-5.691.421c-10.774 0-18.292-6.018-22.554-18.057-.562-1.077-.984-2.716-1.264-4.918 0-.515.14-2.975.421-7.378l-.421-4.918c0-2.997 4.238-4.497 12.717-4.497 3.84.703 5.761 2.202 5.761 4.497v10.68c0 2.624 1.921 4.661 5.762 6.113h2.037c3.841 0 5.762-4.239 5.762-12.718 0-8.196-3.56-14.473-10.68-18.83-13.163-9.696-19.744-17.495-19.744-23.397-.328 0-.867-1.92-1.615-5.762.28-1.873.421-3.372.421-4.497 0-.562-.141-.843-.421-.843l.421-2.037v-5.341c1.92-7.26 5.737-12.857 11.453-16.792 4.683-2.482 9.204-3.724 13.56-3.724ZM319.885 827.782v.351h.843v-.351h-.843Zm-.773-93.59v.844h.422v-.844h-.422Zm-.422 50.098h.844v-.844c-.562.095-.844.376-.844.844Zm0-48.059-.421.842v.422h1.265v-.422c0-.561-.281-.842-.844-.842Zm-.842 92.324v.842h.421v-.842h-.421Zm-1.617-47.568v1.195h.422v-1.195h-.422Zm0-46.373h.773v-.842c-.516.093-.773.375-.773.842Zm-.421 47.99v.842h.843v-.842h-.843Zm-.843 42.297v1.617c.421 0 .843-.422 1.264-1.266l-.843-.351h-.421Zm-.773-44.756v.42c.046.563.304.844.773.844.702-.562 1.264-.844 1.686-.844v-1.264c-1.124.562-1.944.844-2.459.844Zm-.422-43.914v.421c0 .421.397.843 1.195 1.265v-.844c0-.561-.258-.842-.773-.842h-.422Zm-1.686 87.827v.843h.421v-.843h-.421Zm0-1.265v.844h.421v-.844h-.421Zm-.351-43.844v.774h1.194c.562 0 .843-.257.843-.774 0-.561-.281-.843-.843-.843h-.422c-.515.095-.772.376-.772.843Zm-.843 48.411c-.562.891-.844 1.571-.844 2.037l.844.422c.374 0 .773-.422 1.194-1.264 0-.374-.398-.773-1.194-1.195Zm-1.265-41.033v.773h.421v-.773h-.421Zm0-48.41v.421h1.686v-.421h-1.686Zm-.773 83.682v.422h.773v-.422h-.773Zm0-86.985v1.265h1.194c.562 0 .844-.281.844-.843l-.844-.422h-1.194Zm-.422 89.444c0 1.359.679 2.46 2.038 3.302l.422-2.108v-.351c-.422 0-.961-.281-1.617-.843h-.843Zm0-31.969v.772h.422v-.772h-.422Zm-.421-5.34v.351h.843v-.351h-.843Zm0-5.34v.773h1.616v-.352l-1.616-.421Zm0-48.411h.843c.515 0 .773-.281.773-.843h-.773c-.562.094-.843.375-.843.843Zm-1.265 91.482v.772h.421v-.772h-.421Zm0-62.393v.843h1.265v-.843h-1.265Zm0-18.058v.843c.562 0 .843-.28.843-.843h-.843Zm-.351-10.257v.842h2.037v-1.264c-.469.281-1.148.422-2.037.422Zm.351 52.977c0 .656-.258 1.335-.773 2.037l1.616.422.422-.843c-.281-.468-.422-1.007-.422-1.616h-.843Zm1.265-9.907c0-.515-.281-.773-.844-.773h-.421c-.516.094-.773.351-.773.773 0 .375.819 1.078 2.459 2.107h.422c1.639-.748 2.459-1.31 2.459-1.685v-.774c0-.561-.281-.843-.843-.843-1.078.797-1.897 1.195-2.459 1.195Zm-2.038-27.473v.844h.773v-1.616c-.516.047-.773.304-.773.772Zm-.843-10.68v.422c0 .421.538.984 1.616 1.686l.843-1.265v-1.194l-2.459.351Zm-.421 78.413v.773h.843v-.773h-.843Zm0-25.013v1.616c.562 0 .843-.281.843-.844v-.772h-.843Zm-.422-32.04v.844h.422v-.844h-.422Zm-.351 43.914v2.038h.773v-1.195c0-.562-.259-.843-.773-.843Zm0-4.146v1.265h.773v-.421c0-.562-.259-.844-.773-.844Zm0-40.611v.422h.773v-.422h-.773Zm-.422 22.976c.422 0 1.639.281 3.653.842v-1.194c-1.64 0-2.458-.561-2.458-1.685h-.422c-.516 0-.773.678-.773 2.037Zm-.422 40.26v.773c.094.562.375.843.844.843l1.194-1.616h-2.038Zm.422-5.34-.422.773.844.422.351-.774-.773-.421Zm-.422-45.952v.774h.422c.515 0 .773-.257.773-.774h-1.195Zm-1.615 20.517v2.038h1.194c-.562-.89-.843-1.569-.843-2.038h-.351Zm-.422-51.713c.093.563.351.843.773.843v-1.686c-.516.094-.773.375-.773.843Zm-1.265-15.177h6.956c1.92 0 3.021.141 3.302.422 1.873-.281 3.373-.422 4.497-.422h14.826c3.559 0 5.339 1.219 5.339 3.655v9.063c-.375 3.561-1.756 5.34-4.145 5.34h-16.793v27.894c10.399.609 15.599 1.827 15.599 3.654v11.101c0 2.858-2.203 4.356-6.605 4.497h-8.994v27.542c1.733.797 3.092 1.195 4.076 1.195h6.182c1.499 0 3.396-.141 5.692-.421 3.325.561 4.988 1.944 4.988 4.145v7.799c-.188 4.357-1.71 6.534-4.566 6.534h-30.775c-2.156 0-3.514-1.499-4.076-4.497v-3.723c0-1.733.141-3.513.422-5.34a12.232 12.232 0 0 1-.422-3.233c0-.233.141-1.053.422-2.459l-.422-.842.422-1.617c0-.608-.141-2.13-.422-4.567.281-3.372.422-5.152.422-5.34 0-.655-.141-1.732-.422-3.231.281-3.186.422-6.206.422-9.065v-2.037c0-1.451-.141-2.693-.422-3.724.281-1.405.422-2.763.422-4.076v-2.879c0-2.109-.141-4.029-.422-5.762.281-1.311.422-3.092.422-5.34v-.773c0-.609-.141-1.17-.422-1.686.281-.516.422-.914.422-1.195 0-1.872-.141-3.513-.422-4.918.281-3.84.422-7.541.422-11.102 0-1.357-.141-3.395-.422-6.112.281-.609.562-1.851.843-3.725-.235-1.638-.515-2.459-.843-2.459l.422-2.459-.422-5.761c1.17-2.716 2.67-4.076 4.497-4.076ZM388.391 779.301v.844h.351v-.844h-.351Zm0-24.17v.843c.514 0 .772-.281.772-.843h-.772Zm0-10.68v.421h.772v-.421h-.772Zm-.844 25.435v1.264h.422v-1.264h-.422Zm-.421-12.296c.093.562.374.844.843.844h.422v-.422c-.282-.515-.422-.937-.422-1.265-.562.094-.843.375-.843.843Zm-.843 17.636v1.616h.421c.562 0 .843-.257.843-.773 0-.562-.281-.843-.843-.843h-.421Zm0-3.302v1.265c.562 0 .843-.282.843-.844v-.421h-.843Zm-2.038-28.667v1.194h.422v-1.194h-.422Zm-.422 39.767v.844h.422v-.844h-.422Zm0-4.075c0 .61-.14 1.149-.421 1.616h.843c1.077-.42 1.616-.842 1.616-1.264l-.773-.352h-1.265Zm-1.615-38.573-.422 1.616h1.264v-1.616h-.842Zm-.844 44.265c.094.562.375.843.844.843h.421v-.843h-1.265Zm-2.459-.351v.351c.094.562.374.843.843.843l.843-1.194h-1.686Zm-2.881-46.795v.422h.843v-.422h-.843Zm-.773-4.145v1.686c.515 0 .773-.281.773-.844 0-.561-.258-.842-.773-.842Zm-1.264 52.555v.844c0 .375.421.773 1.264 1.194h.352v-2.038h-1.616Zm-2.881-52.555v.422c0 .42.421.842 1.265 1.264v-.844c0-.561-.281-.842-.844-.842h-.421Zm-4.075 4.145v1.194h.421v-1.194h-.421Zm-2.038 6.112v37.38l3.654 1.195c.281 0 .703-.117 1.265-.352l2.037.352c3.841 0 5.761-2.997 5.761-8.993 0-10.727.257-18.526.773-23.398-1.499-4.638-3.959-6.956-7.377-6.956h-5.34c-.516.095-.773.352-.773.772Zm-.421 44.758v.421h1.194v-.421h-1.194Zm0-48.833v.844h.421v-.844h-.421Zm-2.881-2.037v.422c0 .375.678.913 2.038 1.615.28-.514.421-.913.421-1.194-.281-.562-.421-.983-.421-1.265-.469.282-1.149.422-2.038.422Zm-.843 63.587v.844h.421v-.844h-.421Zm-1.195 4.919v.421h.773v-.421h-.773Zm.422-73.846-.422.843v.352c.094.562.351.842.773.842l.843-1.194-1.194-.843Zm-.844 91.06v.422h.844v-.422h-.844Zm0-80.802v.422c.609 0 1.148.141 1.617.422.281-1.125.702-2.084 1.264-2.881l-.843-.422h-.421c-.328 0-.868.82-1.617 2.459Zm-.842 39.417v.352c.093.562.374.842.842.842h.844v-.42c0-.515-.281-.774-.844-.774h-.842Zm.421 4.075c-.562 2.249-.843 3.468-.843 3.655l.843.421c.281-1.358.562-2.038.843-2.038l-.422-.843c.282-.515.422-.913.422-1.195h-.843Zm-1.194 22.555v.421h.773v-.421h-.773Zm0-32.813v.422h.773v-.422h-.773Zm0-20.938.773.422v-1.265c-.516.095-.773.375-.773.843Zm0-18.478v1.264c.046.562.304.843.773.843h.842v-.421c0-.422-.539-.984-1.615-1.686Zm-.422 41.033h.773v-.774c-.516.048-.773.306-.773.774Zm0-5.34v1.265h1.195c0-.422-.399-.844-1.195-1.265Zm0-20.517v.421h.773v-.421h-.773Zm-.843 64.852v.843h1.265c0-.562-.282-.843-.844-.843h-.421Zm0-12.718v1.616h.843v-1.616h-.843Zm0-20.095v1.617h.843c.515 0 .773-.257.773-.773 0-.562-.258-.844-.773-.844h-.843Zm0-50.096v1.264h.421v-1.264h-.421Zm-.843 52.555v1.617h.421v-1.617h-.421Zm0-39.417v.422h.843v-.422h-.843Zm0-4.496v.843h1.264c0-.563-.281-.843-.843-.843h-.421Zm5.34 47.989c0 .843-.258 1.264-.773 1.264h-.422c-.562 0-.843-.28-.843-.843-1.921.282-2.881.704-2.881 1.265.843 0 1.265.539 1.265 1.616-.281.516-.422.938-.422 1.265l-2.037-.422-.422.773.773.421h2.108l-.422-.772c.468 0 1.148-.281 2.038-.843.562.656.843 1.194.843 1.615h1.616l-.421-.772c0-.281.14-.422.421-.422l-.421-.843c.093-.562.374-.843.843-.843l2.459.421v-.772h-.843v-.844h1.265v-.421c-.61 0-1.172-.14-1.687-.422-.516.282-.913.422-1.194.422 0-.562-.281-.843-.843-.843Zm-6.535-40.612v.844h.422v-.844h-.422Zm0 71.808.422.844-.843 1.194v.843c.796-.562 1.897-.843 3.302-.843v-.773c-.469 0-1.172-.421-2.108-1.265h-.773Zm-.421-19.251v.772h1.616v-.422l-1.616-.35Zm0-39.417v.843h2.037c.562 0 .843-.282.843-.843-.281-.516-.421-.914-.421-1.195h-.422c-.89.797-1.57 1.195-2.037 1.195Zm0-26.278.421 2.107h1.195v-1.265c0-.561-.258-.842-.773-.842h-.843Zm-.422 48.059v.351c.093.562.375.843.843.843v-1.194h-.843Zm0-6.605v.421h.843v-.421h-.843Zm-.422-18.057.844.421v-1.194c-.562.047-.844.305-.844.773Zm-.421 8.221v1.194h.421v-1.194h-.421Zm.421-43.493h1.265c2.295 0 5.152.281 8.572.843 1.124-.562 1.944-.843 2.459-.843 20.798 0 31.197 8.9 31.197 26.7v21.711c0 13.303-6.137 22.203-18.409 26.699-2.764.516-5.246.773-7.447.773h-5.692v30.354c0 .656.116 1.218.351 1.685-.843 2.998-2.343 4.497-4.496 4.497h-10.259c-1.64 0-2.857-.96-3.653-2.88-.281-8.056-.422-13.255-.422-15.598.281-3.373.422-5.152.422-5.341-.281-.515-.422-.913-.422-1.194l.422-.843c0-.89-.141-1.568-.422-2.038.281-3.559.422-6.44.422-8.642v-4.497c0-6.931-.281-11.172-.843-12.718.281-1.498.421-2.74.421-3.723v-4.075c0-4.543.141-8.103.422-10.68-.281-2.107-.422-5.667-.422-10.68 0-1.405.141-2.623.422-3.653a35.116 35.116 0 0 1-.422-5.341v-6.534c0-1.592.141-3.794.422-6.605-.281-.467-.422-1.147-.422-2.037 0-2.67 2.178-4.45 6.534-5.34ZM439.049 735.809c.094.562.375.843.844.843v-.843h-.844Zm-4.848-5.34v.843h.773c0-.562-.258-.843-.773-.843Zm-2.881 6.956v.422c.282.797.538 1.194.773 1.194.562-.234.984-.352 1.265-.352 0-.421-.421-.842-1.265-1.264h-.773Zm-3.302-1.194c-.281.515-.421.913-.421 1.194.562.89.842 1.57.842 2.037-.28 0-.421.141-.421.422h1.265l-.422-.843c.562 0 .844-.257.844-.773v-1.616l-1.687-.421Zm-1.194 38.433v.351h.773v-.351h-.773Zm0-31.127c0 .422.397.844 1.194 1.266h.421v-1.266c0-.515-.28-.772-.842-.772-.516.094-.773.351-.773.772Zm-.422 28.246h.422c.514 0 .773-.281.773-.844-.236 0-.352-.14-.352-.42.515 0 .773-.257.773-.774v-1.616c-.609 0-1.148 1.219-1.616 3.654Zm-.843-29.861v.421h.843v-.421h-.843Zm-.351 82.558v.421h1.616l-.422-.773c-.516.235-.913.352-1.194.352Zm0-72.3v.351c.046.562.304.843.772.843v-1.194h-.772Zm0-15.949v2.037h.351v-2.037h-.351Zm-1.265 36.747v1.264h.421c.563 0 .844-.281.844-.843v-1.195h-.422c-.562.095-.843.352-.843.774Zm-.421 26.208v.42h1.686v-1.264c-.703.562-1.265.844-1.686.844Zm-.422-46.233v.421h1.686v-.421H423.1Zm-.773-9.416v.422l2.881.422c0-.422-.562-.96-1.686-1.616h-.422c-.516.094-.773.351-.773.772Zm0 41.736-.422 2.038v.421c.375 0 .773-.421 1.195-1.264-.235-.515-.351-.913-.351-1.195h-.422Zm-1.265 5.34v.773h1.687v-.773h-1.687Zm-.351-53.61v.422h.351c2.014 0 3.115-.398 3.302-1.194v-.422c-2.436.328-3.653.726-3.653 1.194Zm-4.146 1.686c.844 0 1.265.821 1.265 2.459h.773l.421-2.107v-.773l-.421-.843c-1.359.375-2.038.797-2.038 1.264Zm-1.616-6.534c0 .469-.398 1.149-1.194 2.037h2.037v-1.264c0-.515-.281-.773-.843-.773Zm-4.496 4.497v.351c.093.562.374.844.843.844v-1.195h-.843Zm-6.113-12.296 4.075.421h4.919c2.201 0 4.777-.14 7.728-.421.562.281.984.421 1.265.421.608 0 1.147-.14 1.616-.421 4.871.281 8.829.421 11.874.421h4.497c1.124 0 2.623-.14 4.497-.421 2.997.797 4.497 2.155 4.497 4.076v10.609c0 2.764-2.179 4.146-6.535 4.146h-8.993v89.091c-.563 2.718-1.922 4.076-4.075 4.076h-11.454c-1.171-.562-2.131-1.78-2.88-3.654 0-.983.14-2.224.421-3.723-.281-4.731-.421-7.73-.421-8.995 0-3.372.14-6.487.421-9.344-.281-5.059-.421-9.298-.421-12.717 0-3.419.14-9.814.421-19.182-.281-3.278-.421-5.737-.421-7.378l.421-4.075c0-.608-.14-1.147-.421-1.616.281-2.342.421-4.262.421-5.762v-11.452c0-.562-.421-2.318-1.264-5.269h-9.767c-2.483 0-4.122-1.101-4.918-3.303l.422-.843c0-.281-.141-.679-.422-1.194l.422-2.038c0-1.124-.282-3.443-.844-6.956 1.546-2.997 3.185-4.497 4.919-4.497ZM528.097 757.871v1.265h.422v-1.265h-.422Zm-2.037 7.799v.352h.773v-.352h-.773Zm-.422-23.748v.843h.843c0-.563-.281-.843-.843-.843Zm-1.617 84.665v1.195h.422c.516 0 .773-.281.773-.843l-.773-.352h-.422Zm0-54.383.774.422c.748-.141 1.311-.843 1.686-2.107h-.421c-1.36.749-2.039 1.311-2.039 1.685Zm0-25.364.774.422h.421v-1.265h-.421c-.516.094-.774.375-.774.843Zm-.842 13.068v.844h.842v-.844h-.842Zm-.422 13.912v.844h.422v-.844h-.422Zm-.773-33.936v.844h.351v-.844h-.351Zm-1.265 29.44v.843h.422v-.843h-.422Zm-.772-31.056v.421c.234.516.35.914.35 1.195l.844-.422c-.281-.515-.422-.913-.422-1.194h-.772Zm-.422 90.709v.42h.772v-.42h-.772Zm-1.265-49.817v.352h1.265v-.352h-1.265Zm-.421-42.508c-.235 1.405-.352 2.203-.352 2.389l.773.421c.562 0 .844-.257.844-.773v-1.264c0-.515-.282-.773-.844-.773h-.421Zm-.774 42.087v.421h.774v-.421h-.774Zm0-2.038c.282.516.422.913.422 1.195.609 0 1.007-.679 1.195-2.038l-.843-.421c-.516 0-.774.421-.774 1.264Zm-.842 51.081v.843h.422v-.843h-.422Zm-2.46-2.038c.094.563.375.843.844.843v-.843h-.844Zm-.422-88.741v2.038h.844l.422-2.038h-1.266Zm-2.809 92.394v.422h2.036v-.842l-2.036.42Zm-.422-4.917v1.686h.422v-1.686h-.422Zm-3.302-1.617v.422h.843v-.422h-.843Zm-.352-30.213c0 .141-.14.68-.421 1.617l.773.422.843-1.265c0-.515-.281-.774-.843-.774h-.352Zm-.843-53.961v1.195h1.195v-1.195h-1.195Zm-.422 87.477c.422 1.078.844 1.616 1.265 1.616h.352v-2.46c-1.078.236-1.617.517-1.617.844Zm-1.194-30.705.773.422v-1.194c-.516.094-.773.351-.773.772Zm-1.686-2.037v1.265h.421v-1.265h-.421Zm-2.038 35.553v1.264h.843c.563 0 .843-.281.843-.844v-.42h-1.686Zm0-91.13v.421c.094.516.374.773.843.773.375 0 .773-.397 1.195-1.194h-2.038Zm-.421 4.075c.093.561.374.843.843.843h.421v-.843h-1.264Zm-.351 80.52-.422 3.724.773.421h1.264v-1.265l-.843-2.88h-.772Zm-.422-15.106v.421h.773v-.421h-.773Zm0-11.031.773.421 2.107-.421v-1.616c-1.921.75-2.88 1.289-2.88 1.616Zm-.422 22.905v.422h.844v-.422h-.844Zm0-78.062v.774h.844c0-.516-.282-.774-.844-.774Zm-1.194.774v.843h.351v-.843h-.351Zm-.422 2.881v1.194c.515 0 .773-.257.773-.773v-.421h-.773Zm-.843 82.557v.422h.843v-.422h-.843Zm-.422-2.459h.844v-.773c-.562.048-.844.306-.844.773Zm-.773 1.265v.773h.773c0-.515-.257-.773-.773-.773Zm-.842-77.71v1.265h.842v-.422c0-.562-.28-.843-.842-.843Zm-1.195 55.999v.843h.351v-.843h-.351Zm-.422 5.761v1.195h.422v-1.195h-.422Zm17.566-85.017 1.616.773c.141 0 .678-.141 1.615-.421 5.903.937 10.962 3.256 15.178 6.956 4.356 5.105 6.534 11.1 6.534 17.986v7.378c0 13.631-6.675 25.483-20.025 35.553-7.354 6.651-11.031 12.507-11.031 17.565v6.605c2.763.797 4.801 1.194 6.113 1.194.889 0 3.208-.141 6.955-.421 4.216.28 7.894.421 11.032.421l1.616-.421c3.559.609 5.34 2.108 5.34 4.496v8.994c-.281 3.28-1.64 4.918-4.075 4.918h-42.509c-1.921-1.169-2.881-2.81-2.881-4.918 0-3.418-.14-8.455-.421-15.106.281-2.249.562-3.606.843-4.075 0-.281-.14-.703-.422-1.265 0-10.259 5.316-20.188 15.95-29.792 10.352-8.805 15.527-16.301 15.527-22.483v-8.221c0-3.559-2.177-6.018-6.533-7.378h-1.687c-3.232.844-4.848 2.484-4.848 4.919v10.258c0 3.795-2.318 5.691-6.956 5.691h-5.761c-3.795 0-5.692-1.498-5.692-4.497l-.421-2.037c0-.281.141-.679.421-1.194-.28-1.873-.421-3.373-.421-4.497 0-5.012 1.779-10.891 5.34-17.636 5.526-6.23 12.061-9.345 19.603-9.345ZM586.134 791.808v.842h.421v-.842h-.421Zm-.422 24.521v.422h.843v-.422h-.843Zm0-46.584v.774h.422v-.774h-.422Zm-.422 3.654v.421h.844v-.421h-.844Zm1.265-6.956c0 .562-.421.843-1.265.843v.422h.844c.514-.281.913-.422 1.194-.422v-.843h-.773Zm-1.265-14.685v.773h.422v-.773h-.422Zm-.772 50.659v.844c.092.561.351.843.772.843l.844-1.265-.844-.422h-.772Zm.421-27.753-.421 2.037.772.422c0-.281.141-.422.422-.422-.281-.468-.422-1.147-.422-2.037h-.351Zm-.843 24.522c.562 0 .843.398.843 1.194h.773c0-.422.281-.96.843-1.616 0-.563-.281-.843-.843-.843h-.422c-.375 0-.772.421-1.194 1.265Zm-.422 24.942v.352h.844v-.352h-.844Zm0-11.452v.772h1.265c0-.514-.281-.772-.843-.772h-.422Zm0-5.762v.843h.422v-.843h-.422Zm0-33.515v1.265h.422v-1.265h-.422Zm0-25.365.422.844c-.562.094-.843.375-.843.843h.843l.843-.422-.421-.843c.281-.515.421-.913.421-1.194h-.421c-.563.094-.844.35-.844.772Zm-.843 37.661v.421h1.265v-.421h-1.265Zm0-13.069v.773h.422v-.773h-.422Zm-.351-27.402h.773v-.843c-.517.095-.773.375-.773.843Zm-.421 22.905v1.195h2.037c0-.375-.422-.773-1.265-1.195h-.772Zm-.844 53.118v.422h.844v-.422h-.844Zm0-4.496v.843c.562 0 .844-.281.844-.843h-.844Zm-.421-36.396v.421l2.88.422h.422v-.843c-.282 0-.702-.14-1.265-.421l-2.037.421Zm-.352 38.012v.421h1.195v-.421h-1.195Zm0-31.056v.843h.352v-.843h-.352Zm0-10.188v.773c.515 0 .773-.257.773-.773h-.773Zm-.421-35.975v1.195c.093.562.351.844.773.844v-2.039h-.773Zm-1.265-3.301c.094.561.374.842.843.842h1.195v-.842h-2.038Zm-.773 85.86.773.421v-1.265c-.516.095-.773.376-.773.844Zm2.459-39.698c0 .515-.82 1.335-2.459 2.459l.773.422h.422c.983-.796 2.084-1.195 3.302-1.195v-.843c-.703 0-1.382-.282-2.038-.843Zm-2.88-47.357c.093.516.351.773.772.773h.422c0-.515-.258-.773-.773-.773h-.421Zm-.422 90.287v.843c.093.562.375.843.843.843h.773v-.422c0-.421-.539-.843-1.616-1.264Zm.843-47.005c0 .842-.421 1.944-1.264 3.301l.843.422c.608-.562 1.568-.843 2.88-.843v-1.195c-.843 0-1.663-.561-2.459-1.685Zm-1.264-39.628v.842h.421v-.842h-.421Zm-2.038 87.476v.843h.422v-.843h-.422Zm-.843-5.691v.351c.093.562.374.843.843.843h.422v-1.194h-1.265Zm-.352 2.81v.843c.515 0 .773-.281.773-.843h-.773Zm0-88.249c0 1.874.538 2.81 1.617 2.81.467.281 1.006.422 1.616.422v-.843c0-.141-.821-.936-2.46-2.389h-.773Zm-1.686 89.092-.352.843v.352h.352c.562 0 .844-.257.844-.773l-.844-.422Zm-1.616-89.935h.843v-.843c-.562.094-.843.375-.843.843Zm-1.195-1.265v.843h.352v-.843h-.352Zm-.421 1.687v1.194h.773v-1.194h-.773Zm-2.46 86.632v.844h.422v-.844h-.422Zm0-91.551v.843c.563 0 .844-.281.844-.843h-.844Zm-.42 4.497v.843h.42c.563 0 .844-.281.844-.843h-1.264Zm-2.039 4.919c.094.515.375.772.844.772h1.195v-.352c0-.561-.282-.842-.844-.842-.516.281-.913.422-1.195.422Zm-.842 85.016c0 .563-.118.843-.352.843.234.517.352.914.352 1.195.467 0 .888-.678 1.264-2.038h-1.264Zm-1.617-5.762v.422h.843v-.422h-.843Zm-1.616 2.46v.843h2.459v-.422l-2.037-.421h-.422Zm-.422-81.714 2.038.42c.563 0 .843-.281.843-.842 0-.375-.421-.796-1.264-1.265-.421 0-.96.562-1.617 1.687Zm-1.194 75.179v.422h.773v-.422h-.773Zm-.421-75.601v.842h.421v-.842h-.421Zm-.844 68.295v1.194h.422v-1.194h-.422Zm-.842-59.723v.843h.421v-.843h-.421Zm-.352 64.992v1.265c.375 0 .773-.422 1.194-1.265h-1.194Zm0-68.646v1.616h.352v-1.616h-.352Zm11.031-20.025h4.076c11.709 0 19.603 5.856 23.678 17.566.562 2.155.843 4.473.843 6.956v14.262c0 6.465-1.78 11.922-5.34 16.372v.421c3.56 4.966 5.34 10.423 5.34 16.371v13.842c0 12.601-6.534 20.915-19.604 24.944-.375.375-2.294.656-5.76.842-9.182 0-16.396-4.637-21.641-13.912-1.359-3.606-2.038-6.323-2.038-8.15v-13.068c0-2.202 1.499-3.584 4.497-4.146h1.194c8.197 0 12.296 1.241 12.296 3.724v11.031c.937 3.794 2.974 5.691 6.113 5.691h1.264c3.514-.796 5.271-2.295 5.271-4.497l.421-2.037a20.695 20.695 0 0 1-.421-4.075c0-1.358.28-2.038.843-2.038 0-9.275-1.5-13.912-4.498-13.912 0-.702-1.639-1.24-4.917-1.615-1.36-1.593-2.039-2.952-2.039-4.076v-8.994c0-3.137 2.46-5.058 7.378-5.762 1.359 0 2.716-2.434 4.076-7.306 0-.749-.282-2.39-.843-4.919l.421-1.686c-.282-1.921-.421-2.997-.421-3.232l.421-3.653c0-3.936-2.459-6.254-7.377-6.956h-.422c-3.513.889-5.27 2.646-5.27 5.269v11.031c-.468 2.998-1.967 4.496-4.497 4.496h-10.258c-2.436 0-3.654-2.177-3.654-6.534 0-1.357.141-3.395.422-6.112-.281-2.295-.422-4.191-.422-5.691 2.67-8.573 6.067-13.888 10.189-15.95 5.199-2.997 8.758-4.497 10.679-4.497ZM610.725 818.577c4.121.141 7.541.211 10.257.211 2.624 0 4.122 1.219 4.498 3.654v9.415c-.282 3.28-1.641 4.918-4.076 4.918h-11.453c-2.388-.281-3.231-3.067-2.529-8.361v-4.848c-.234-2.294.866-3.958 3.303-4.989Z" style="fill:#8a9d3b;fill-rule:nonzero" transform="translate(-964.567 -3007.44) scale(4.16667)"/>
  <path d="M681.512 755.763v1.299h.432v-1.299h-.432Zm-2.092 8.008v.36h.793v-.36h-.793Zm-.434-24.384v.866h.867c0-.577-.289-.866-.867-.866Zm-1.659 86.928v1.227h.434c.528 0 .793-.289.793-.866l-.793-.361h-.434Zm0-55.835.794.432c.769-.144 1.346-.866 1.732-2.164h-.433c-1.396.77-2.093 1.347-2.093 1.732Zm0-26.043.794.432h.433v-1.298h-.433c-.53.097-.794.386-.794.866Zm-.865 13.418v.866h.865v-.866h-.865Zm-.433 14.284v.865h.433v-.865h-.433Zm-.794-34.844v.865h.361v-.865h-.361Zm-1.298 30.227v.865h.433v-.865h-.433Zm-.793-31.886v.432c.24.531.36.939.36 1.227l.866-.433c-.289-.529-.433-.938-.433-1.226h-.793Zm-.433 93.132v.433h.793v-.433h-.793Zm-1.299-51.147v.36h1.299v-.36h-1.299Zm-.432-43.644c-.242 1.442-.362 2.26-.362 2.453l.794.432c.577 0 .865-.263.865-.794v-1.297c0-.53-.288-.794-.865-.794h-.432Zm-.794 43.212v.432h.794v-.432h-.794Zm0-2.093c.289.53.432.938.432 1.226.625 0 1.034-.696 1.227-2.091l-.865-.433c-.531 0-.794.433-.794 1.298Zm-.866 52.446v.865h.433v-.865h-.433Zm-2.525-2.093c.096.577.385.866.866.866v-.866h-.866Zm-.433-91.112v2.093h.866l.433-2.093h-1.299Zm-2.885 94.864v.433h2.091v-.866l-2.091.433Zm-.433-5.05v1.731h.433v-1.731h-.433Zm-3.391-1.659v.433h.866v-.433h-.866Zm-.36-31.02c0 .144-.145.698-.434 1.659l.794.433.866-1.298c0-.53-.288-.794-.866-.794h-.36Zm-.866-55.404v1.227h1.226v-1.227h-1.226Zm-.433 89.814c.433 1.107.865 1.66 1.299 1.66h.36v-2.525c-1.107.241-1.659.53-1.659.865Zm-1.226-31.525.794.433v-1.226c-.531.097-.794.361-.794.793Zm-1.732-2.091v1.298h.433v-1.298h-.433Zm-2.092 36.502v1.298h.866c.577 0 .866-.288.866-.865v-.433h-1.732Zm0-93.565v.433c.096.529.385.794.866.794.384 0 .794-.408 1.226-1.227h-2.092Zm-.432 4.184c.095.577.384.866.865.866h.433v-.866h-1.298Zm-.362 82.672-.432 3.823.794.433h1.298v-1.298l-.866-2.958h-.794Zm-.432-15.51v.432h.794v-.432h-.794Zm0-11.326.794.433 2.164-.433v-1.659c-1.973.77-2.958 1.323-2.958 1.659Zm-.433 23.517v.434h.865v-.434h-.865Zm0-80.146v.793h.865c0-.529-.288-.793-.865-.793Zm-1.226.793v.866h.36v-.866h-.36Zm-.433 2.958v1.226c.528 0 .793-.263.793-.794v-.432h-.793Zm-.866 84.763v.434h.866v-.434h-.866Zm-.433-2.524h.866v-.794c-.577.049-.866.314-.866.794Zm-.793 1.298v.794h.793c0-.529-.264-.794-.793-.794Zm-.866-79.786v1.299h.866v-.433c0-.577-.289-.866-.866-.866Zm-1.227 57.495v.866h.362v-.866h-.362Zm-.432 5.916v1.226h.432v-1.226h-.432Zm18.035-87.289 1.659.794c.145 0 .696-.145 1.659-.434 6.06.963 11.254 3.344 15.582 7.143 4.473 5.242 6.709 11.397 6.709 18.468v7.574c0 13.995-6.853 26.163-20.559 36.503-7.551 6.829-11.326 12.84-11.326 18.034v6.781c2.837.818 4.929 1.227 6.276 1.227.913 0 3.294-.145 7.142-.433 4.328.288 8.103.433 11.326.433l1.659-.433c3.654.625 5.482 2.164 5.482 4.617v9.234c-.288 3.367-1.683 5.049-4.184 5.049h-43.644c-1.972-1.201-2.958-2.885-2.958-5.049 0-3.51-.144-8.681-.432-15.51.288-2.309.577-3.703.865-4.185 0-.288-.145-.72-.433-1.298 0-10.533 5.458-20.728 16.376-30.587 10.628-9.041 15.943-16.737 15.943-23.084v-8.441c0-3.654-2.237-6.18-6.709-7.575h-1.732c-3.318.866-4.977 2.55-4.977 5.05v10.532c0 3.895-2.381 5.844-7.142 5.844h-5.916c-3.896 0-5.843-1.539-5.843-4.617l-.432-2.092c0-.288.143-.697.432-1.227-.289-1.923-.432-3.463-.432-4.617 0-5.146 1.827-11.182 5.482-18.106 5.674-6.396 12.383-9.595 20.127-9.595ZM746.438 811.526c.095.531.384.794.865.794v-.794h-.865Zm0-37.512v.866h.432v-.866h-.432Zm-1.299 20.199c.577 0 .866.433.866 1.299h.433c.577 0 .865-.289.865-.866v-.433c0-.528-.288-.793-.865-.793h-.433c-.577.048-.866.312-.866.793Zm0-39.172v.434h.866v-.434h-.866Zm-.361 26.981v1.226h.794v-.361c0-.577-.265-.865-.794-.865Zm0-7.142v1.226h.794v-.433c0-.528-.265-.793-.794-.793Zm-.432 34.122v.793l2.092-.433v-.794c-.482.289-1.179.434-2.092.434Zm0-4.689v1.731c.528 0 .793-.288.793-.865s-.265-.866-.793-.866Zm-.433-26.115v.433c.288.53.433.963.433 1.299h.432v-1.732h-.865Zm-.433 25.322v.793h.433v-.793h-.433Zm-.433-21.066v.794h.866v-.794h-.866Zm.433-42.562c0 .289-.144.698-.433 1.226.433 1.154.866 1.732 1.299 1.732v-2.092c0-.577-.289-.866-.866-.866Zm-1.226 26.547v.433h.793v-.433h-.793Zm-.866 28.64v.433h.866v-.433h-.866Zm0-44.654v1.225h.432v-1.225h-.432Zm-.866 53.527c.096.529.384.793.866.793v-1.659c-.577.098-.866.386-.866.866Zm-.433 8.368v.433h.866v-.433h-.866Zm-1.659 8.007v.866c.577 0 .866-.289.866-.866h-.866Zm-2.092-.793h1.226v-1.299c-.385 0-.793.433-1.226 1.299Zm-1.732 1.227v.865h.433v-.865h-.433Zm-.792 3.823 1.659 1.227h.865v-.867h.433c.24 0 .361.145.361.433a3.557 3.557 0 0 1 1.731-.433v-.793c-.433 0-1.01-.289-1.731-.866-2.213.289-3.318.722-3.318 1.299Zm-1.732-93.998v.433c.096.577.384.866.865.866h1.299v-.434c0-.576-.289-.865-.866-.865h-1.298Zm-1.659 95.225v.432h1.298v-.432h-1.298Zm-.866-91.834v.865h.866v-.865h-.866Zm0-1.227v.794h.432v-.794h-.432Zm-4.617 92.627-.433 2.165h1.299c0-.48.263-1.058.794-1.731l-.794-.434h-.866Zm-.433-94.358v.866c.289 0 .722.143 1.299.432v-.866c-.289 0-.722-.143-1.299-.432Zm-1.659 90.607v.433c0 .385.408.794 1.226 1.226v-1.659h-1.226Zm-2.092 5.916v.793h.433v-.793h-.433Zm-.433-79.21v61.897c1.201 5.337 3.438 8.006 6.709 8.006h.433c1.827 0 3.799-1.682 5.915-5.049.289-7.791.434-14.259.434-19.406 0-1.299-.145-2.693-.434-4.184.289-1.443.434-3.125.434-5.05v-.433c0-2.259-.145-4.928-.434-8.007.577-1.394.866-2.38.866-2.958-.577-1.922-.866-3.607-.866-5.049 0-2.549.144-7.19.434-13.923 0-.192-.145-1.034-.434-2.526.289-1.442.434-3.125.434-5.049v-.361c0-2.741-2.406-4.713-7.214-5.915-4.185 0-6.277 2.669-6.277 8.007Zm-2.525 73.294v1.659l1.659.433.434-.865c0-.625-.699-1.035-2.093-1.227Zm0-89.309v.433h.794v-.433h-.794Zm-1.732 6.709v.433h.867v-.433h-.867Zm-1.659 83.394v.433h1.299v-.433h-1.299Zm0-56.847v.866h.434v-.866h-.434Zm-.865-11.759v1.227h.433v-1.227h-.433Zm-.36 58.506v2.164h1.225v-.432c-.577-.722-.865-1.299-.865-1.732h-.36Zm.793 5.05c-.819 1.107-1.227 1.947-1.227 2.525h.434c1.393-.192 2.091-.601 2.091-1.227 0-.384-.432-.816-1.298-1.298Zm-1.227-78.776c.096.577.361.865.794.865h.865v-.865h-1.659Zm-.433 59.01v.866h.433v-.866h-.433Zm.433-3.824-.433.866c.578.914.867 1.612.867 2.092h.36v-2.092c0-.578-.265-.866-.794-.866Zm-.433-2.525v.434h1.66v-.794h-.433c-.53.241-.937.36-1.227.36Zm0-10.099v.866h.433v-.866h-.433Zm0-31.165v.866h.433v-.866h-.433Zm0-1.659v.434h.433c.385 0 .794-.434 1.227-1.299h-.793c-.577.097-.867.386-.867.865Zm-.865 26.548v.36c.577 0 .865-.263.865-.793v-.433c-.577.097-.865.385-.865.866Zm-.866-10.966v.434h.866v-.434h-.866Zm-.36 35.349v.432c.191 1.973.456 2.958.793 2.958.577-.288 1.01-.432 1.298-.432v-.433c-1.154-1.011-1.731-1.851-1.731-2.525h-.36Zm-.433 7.214v.794h.433v-.794h-.433Zm0-.433h1.226v-.865h-.433c-.529.096-.793.385-.793.865Zm0-37.945v.432h.793v-.432h-.793Zm0-10.965v.432c.096.578.36.866.793.866h.433c.577 0 .866-.288.866-.866l-.866-.432h-1.226Zm-.866-13.058v.433c.096.577.385.866.866.866h.793v-.866l-1.659-.433Zm-.865 43.861v.361h.865v-.361h-.865Zm-.362 5.049v1.66c.673-.578 1.227-.866 1.659-.866 0-.528-.288-.794-.865-.794h-.794Zm19.767-71.201c12.311 0 20.463 6.324 24.455 18.973.577 3.029.866 6.541.866 10.532v54.754c0 13.995-4.93 23.398-14.789 28.207-4.137 1.684-8.056 2.524-11.759 2.524-6.204 0-12.119-2.524-17.746-7.574-4.761-6.107-7.141-11.734-7.141-16.881.288-7.166.432-11.373.432-12.625 0-.913-.144-3.293-.432-7.141 0-.24.143-1.082.432-2.525-.289-2.5-.432-4.04-.432-4.617.288-6.828.432-11.181.432-13.057l-.432-.866c.288-.48.432-1.034.432-1.659v-1.731c0-2.5-.144-4.185-.432-5.05.288-2.453.432-4.545.432-6.277v-11.397c0-4.473 2.237-9.811 6.709-16.016 6.251-5.049 11.878-7.574 16.881-7.574h2.092ZM810.498 755.763v1.299h.433v-1.299h-.433Zm-2.092 8.008v.36h.793v-.36h-.793Zm-.433-24.384v.866h.866c0-.577-.289-.866-.866-.866Zm-1.659 86.928v1.227h.433c.528 0 .793-.289.793-.866l-.793-.361h-.433Zm0-55.835.793.432c.769-.144 1.346-.866 1.732-2.164h-.433c-1.395.77-2.092 1.347-2.092 1.732Zm0-26.043.793.432h.433v-1.298h-.433c-.53.097-.793.386-.793.866Zm-.866 13.418v.866h.866v-.866h-.866Zm-.432 14.284v.865h.432v-.865h-.432Zm-.794-34.844v.865h.36v-.865h-.36Zm-1.299 30.227v.865h.433v-.865h-.433Zm-.793-31.886v.432c.24.531.36.939.36 1.227l.866-.433c-.289-.529-.433-.938-.433-1.226h-.793Zm-.433 93.132v.433h.793v-.433h-.793Zm-1.299-51.147v.36h1.299v-.36h-1.299Zm-.432-43.644c-.241 1.442-.361 2.26-.361 2.453l.793.432c.578 0 .866-.263.866-.794v-1.297c0-.53-.288-.794-.866-.794h-.432Zm-.794 43.212v.432h.794v-.432h-.794Zm0-2.093c.289.53.433.938.433 1.226.625 0 1.034-.696 1.226-2.091l-.865-.433c-.53 0-.794.433-.794 1.298Zm-.865 52.446v.865h.432v-.865h-.432Zm-2.526-2.093c.096.577.385.866.866.866v-.866h-.866Zm-.432-91.112v2.093h.865l.433-2.093h-1.298Zm-2.886 94.864v.433h2.092v-.866l-2.092.433Zm-.433-5.05v1.731h.433v-1.731h-.433Zm-3.39-1.659v.433h.865v-.433h-.865Zm-.361-31.02c0 .144-.144.698-.433 1.659l.794.433.865-1.298c0-.53-.288-.794-.865-.794h-.361Zm-.866-55.404v1.227h1.227v-1.227h-1.227Zm-.432 89.814c.432 1.107.865 1.66 1.298 1.66h.361v-2.525c-1.108.241-1.659.53-1.659.865Zm-1.227-31.525.794.433v-1.226c-.53.097-.794.361-.794.793Zm-1.732-2.091v1.298h.433v-1.298h-.433Zm-2.091 36.502v1.298h.865c.577 0 .866-.288.866-.865v-.433h-1.731Zm0-93.565v.433c.095.529.384.794.865.794.385 0 .794-.408 1.226-1.227h-2.091Zm-.433 4.184c.096.577.384.866.865.866h.433v-.866h-1.298Zm-.361 82.672-.433 3.823.794.433h1.298v-1.298l-.865-2.958h-.794Zm-.433-15.51v.432h.794v-.432h-.794Zm0-11.326.794.433 2.164-.433v-1.659c-1.973.77-2.958 1.323-2.958 1.659Zm-.432 23.517v.434h.865v-.434h-.865Zm0-80.146v.793h.865c0-.529-.288-.793-.865-.793Zm-1.227.793v.866h.36v-.866h-.36Zm-.433 2.958v1.226c.529 0 .793-.263.793-.794v-.432h-.793Zm-.866 84.763v.434h.866v-.434h-.866Zm-.432-2.524h.866v-.794c-.577.049-.866.314-.866.794Zm-.793 1.298v.794h.793c0-.529-.265-.794-.793-.794Zm-.867-79.786v1.299h.867v-.433c0-.577-.29-.866-.867-.866Zm-1.226 57.495v.866h.361v-.866h-.361Zm-.433 5.916v1.226h.433v-1.226h-.433Zm18.035-87.289 1.659.794c.145 0 .697-.145 1.66-.434 6.059.963 11.254 3.344 15.582 7.143 4.472 5.242 6.709 11.397 6.709 18.468v7.574c0 13.995-6.854 26.163-20.56 36.503-7.551 6.829-11.326 12.84-11.326 18.034v6.781c2.837.818 4.93 1.227 6.276 1.227.913 0 3.294-.145 7.142-.433 4.328.288 8.103.433 11.326.433l1.659-.433c3.655.625 5.483 2.164 5.483 4.617v9.234c-.288 3.367-1.684 5.049-4.185 5.049h-43.643c-1.973-1.201-2.958-2.885-2.958-5.049 0-3.51-.145-8.681-.433-15.51.288-2.309.577-3.703.865-4.185 0-.288-.144-.72-.432-1.298 0-10.533 5.458-20.728 16.376-30.587 10.627-9.041 15.942-16.737 15.942-23.084v-8.441c0-3.654-2.236-6.18-6.709-7.575h-1.732c-3.318.866-4.977 2.55-4.977 5.05v10.532c0 3.895-2.381 5.844-7.142 5.844h-5.916c-3.895 0-5.842-1.539-5.842-4.617l-.433-2.092c0-.288.143-.697.433-1.227-.29-1.923-.433-3.463-.433-4.617 0-5.146 1.827-11.182 5.482-18.106 5.674-6.396 12.383-9.595 20.127-9.595ZM870.086 790.606v.866h.433v-.866h-.433Zm-.434 25.177v.433h.867v-.433h-.867Zm0-47.829v.794h.434v-.794h-.434Zm-.432 3.751v.434h.866v-.434h-.866Zm1.299-7.141c0 .577-.433.866-1.299.866v.432h.866c.528-.289.937-.432 1.226-.432v-.866h-.793Zm-1.299-15.078v.794h.432v-.794h-.432Zm-.793 52.013v.866c.095.577.36.866.793.866l.866-1.299-.866-.433h-.793Zm.432-28.495-.432 2.092.793.433c0-.289.144-.433.432-.433-.288-.48-.432-1.178-.432-2.092h-.361Zm-.866 25.177c.577 0 .866.409.866 1.226h.793c0-.432.289-.985.867-1.659 0-.577-.289-.866-.867-.866h-.432c-.386 0-.793.433-1.227 1.299Zm-.432 25.609v.361h.866v-.361h-.866Zm0-11.759v.794h1.298c0-.528-.289-.794-.866-.794h-.432Zm0-5.915v.865h.432v-.865h-.432Zm0-34.411v1.299h.432v-1.299h-.432Zm0-26.042.432.866c-.577.097-.865.385-.865.866h.865l.866-.433-.432-.866c.288-.529.432-.938.432-1.227h-.432c-.577.098-.866.362-.866.794Zm-.866 38.667v.433h1.298v-.433h-1.298Zm0-13.418v.793h.433v-.793h-.433Zm-.361-28.135h.794v-.865c-.53.097-.794.386-.794.865Zm-.433 23.518v1.227h2.092c0-.385-.432-.794-1.298-1.227h-.794Zm-.865 54.538v.433h.865v-.433h-.865Zm0-4.617v.865c.577 0 .865-.288.865-.865h-.865Zm-.433-37.368v.432l2.958.433h.432v-.865c-.288 0-.721-.145-1.298-.434l-2.092.434Zm-.361 39.027v.433h1.227v-.433h-1.227Zm0-31.886v.866h.361v-.866h-.361Zm0-10.46v.793c.529 0 .794-.263.794-.793h-.794Zm-.432-36.935v1.226c.095.577.36.866.793.866v-2.092h-.793Zm-1.299-3.391c.095.577.385.865.866.865h1.226v-.865h-2.092Zm-.793 88.154.793.433v-1.298c-.53.097-.793.385-.793.865Zm2.524-40.758c0 .529-.842 1.371-2.524 2.524l.793.434h.432c1.011-.818 2.14-1.227 3.391-1.227v-.866c-.721 0-1.419-.288-2.092-.865Zm-2.958-48.622c.096.529.362.794.794.794h.433c0-.53-.265-.794-.793-.794h-.434Zm-.432 92.699v.866c.095.576.384.865.866.865h.793v-.432c0-.433-.554-.867-1.659-1.299Zm.866-48.262c0 .866-.434 1.997-1.299 3.391l.865.433c.625-.577 1.612-.866 2.958-.866v-1.226c-.865 0-1.708-.578-2.524-1.732Zm-1.299-40.686v.866h.433v-.866h-.433Zm-2.092 89.814v.865h.433v-.865h-.433Zm-.866-5.844v.361c.096.577.385.866.866.866h.433v-1.227h-1.299Zm-.36 2.886v.865c.528 0 .793-.288.793-.865h-.793Zm0-90.607c0 1.923.551 2.885 1.659 2.885.48.288 1.033.433 1.659.433v-.865c0-.145-.842-.962-2.525-2.453h-.793Zm-1.732 91.472-.36.866v.361h.36c.577 0 .865-.264.865-.794l-.865-.433Zm-1.659-92.338h.865v-.866c-.577.097-.865.386-.865.866Zm-1.227-1.298v.865h.361v-.865h-.361Zm-.432 1.731v1.227h.793v-1.227h-.793Zm-2.526 88.948v.865h.434v-.865h-.434Zm0-93.998v.865c.578 0 .867-.288.867-.865h-.867Zm-.432 4.617v.866h.432c.578 0 .867-.289.867-.866h-1.299Zm-2.092 5.049c.096.53.385.794.865.794h1.227v-.36c0-.577-.288-.866-.865-.866-.531.289-.939.432-1.227.432Zm-.866 87.289c0 .577-.12.866-.361.866.241.53.361.938.361 1.227.48 0 .913-.697 1.299-2.093h-1.299Zm-1.659-5.915v.433h.866v-.433h-.866Zm-1.66 2.525v.866h2.526v-.433l-2.092-.433h-.434Zm-.432-83.899 2.092.434c.577 0 .866-.289.866-.866 0-.384-.433-.818-1.299-1.298-.433 0-.986.577-1.659 1.73Zm-1.227 77.19v.433h.794v-.433h-.794Zm-.432-77.622v.866h.432v-.866h-.432Zm-.866 70.12v1.226h.433v-1.226h-.433Zm-.866-61.319v.866h.433v-.866h-.433Zm-.36 66.729v1.299c.384 0 .793-.433 1.226-1.299h-1.226Zm0-70.481v1.66h.36v-1.66h-.36Zm11.326-20.559h4.184c12.022 0 20.127 6.013 24.311 18.035.577 2.212.865 4.593.865 7.142v14.644c0 6.637-1.828 12.24-5.482 16.809v.432c3.654 5.098 5.482 10.701 5.482 16.809V810.3c0 12.938-6.709 21.474-20.127 25.61-.385.385-2.356.674-5.915.865-9.426 0-16.834-4.76-22.219-14.283-1.395-3.703-2.092-6.493-2.092-8.368v-13.418c0-2.261 1.539-3.68 4.617-4.257h1.227c8.415 0 12.624 1.276 12.624 3.823v11.327c.962 3.895 3.053 5.843 6.276 5.843h1.299c3.606-.817 5.41-2.356 5.41-4.617l.433-2.092a21.365 21.365 0 0 1-.433-4.184c0-1.395.288-2.092.865-2.092 0-9.522-1.539-14.284-4.616-14.284 0-.721-1.685-1.274-5.05-1.659-1.395-1.634-2.093-3.03-2.093-4.184v-9.234c0-3.221 2.526-5.194 7.576-5.915 1.394 0 2.788-2.5 4.183-7.503 0-.769-.288-2.452-.865-5.05l.433-1.731c-.288-1.971-.433-3.078-.433-3.319l.433-3.751c0-4.04-2.525-6.42-7.575-7.141h-.433c-3.607.914-5.41 2.717-5.41 5.41v11.326c-.482 3.078-2.02 4.617-4.618 4.617h-10.532c-2.501 0-3.751-2.236-3.751-6.709 0-1.394.145-3.486.433-6.276-.288-2.356-.433-4.304-.433-5.844 2.741-8.801 6.228-14.259 10.46-16.375 5.339-3.077 8.993-4.617 10.966-4.617Z" style="fill:#f6b119;fill-rule:nonzero" transform="translate(-964.567 -3007.44) scale(4.16667)"/>
</svg>
