<svg xmlns="http://www.w3.org/2000/svg" xml:space="preserve" style="fill-rule:evenodd;clip-rule:evenodd;stroke-miterlimit:2" viewBox="0 0 3397 2411">
  <path d="M856.991 248.46c-.01.2-.034.405-.084.621-.061.248-.133.491-.198.739a22.599 22.599 0 0 0 1.615-1.054c.057-.354.071-.774.032-1.249-.452.314-.908.636-1.365.943ZM805.706 318.665c-.042-.086-.043-.184-.093-.267-.224-.397-.793-.487-1.161-.251-.352.227-.435.644-.302 1.005.516-.14 1.029-.309 1.556-.487ZM822.817 267.098a.791.791 0 0 0-.047-.338 10.8 10.8 0 0 0-.698 2.331 1.61 1.61 0 0 0-.013.117c.284-.762.585-1.485.884-2.188-.04.031-.097.042-.126.078ZM814.088 283.602c-.129.57-.25 1.136-.378 1.706.137-.185.358-.26.582-.28.216-.659.407-1.32.589-1.992-.344-.032-.695.13-.793.566ZM853.881 251.93c.081-.086.177-.161.201-.275a2.22 2.22 0 0 1 .053-.239c.222-.244.294-.586.092-.893-.004-.004-.014-.007-.019-.011a13.629 13.629 0 0 1-.547 1.532c.073-.032.146-.07.22-.114ZM818.36 269.987c-.491-.185-.983-.354-1.468-.554-.022.066-.046.13-.055.2.037.193.069.378.101.562a.432.432 0 0 0 .021.031c.235.366.686.457 1.061.288a.096.096 0 0 0 .029.003c-.025.027.03.012.028.004.025 0 .056.005.062 0 .077.012.156.028.224.04a.72.72 0 0 1-.003-.574ZM875.827 241.428c.424-.475.916-.766 1.511-.888a7.65 7.65 0 0 0 .547-.783c-.636.1-1.268.233-1.899.394-.069.405-.126.805-.187 1.202l.028.075ZM894.325 310.525c.624-.872-.623-2-1.256-1.12-.163.229-.338.46-.506.688.487.181 1.057.334 1.708.503.015-.023.039-.047.054-.071ZM827.585 260.148a.643.643 0 0 1 .257-.294.987.987 0 0 0-.13-.244c-.316.342-.627.692-.932 1.046.144.055.282.134.41.236.135-.247.264-.495.395-.744ZM906.867 294.202c-.348-.282-.901-.271-1.19.02.158 0 .304.004.437-.004.25-.008.5-.008.753-.016ZM813.578 285.925c-.195.856-.409 1.71-.615 2.555.299-.775.578-1.404.763-1.82a3.63 3.63 0 0 1-.148-.735ZM807.798 317.828c-.332-.601-1.402-.656-1.562.201-.029.145.006.29-.008.436.217-.078.432-.153.649-.236.307-.133.613-.264.921-.401ZM803.013 319.373c-.258-.048-.499.051-.691.205.251-.044.508-.095.764-.158-.03-.011-.047-.035-.073-.047ZM811.931 315.662c.238-.14.478-.282.714-.424a.737.737 0 0 0-.714.424ZM842.127 253.239c.088.425 2.374-2.091 1.403-1.47.83-.841 1.7-1.662 2.573-2.464-.002-.004 0-.004-.002-.012.004-.004.013-.007.025-.012 2.43-2.248 4.858-4.339 6.553-6.167-.236-.18-.559-.259-.818-.087-.198.138-.35.296-.45.485h-.002c-.195-.013-.389.058-.551.267-.721.951-1.433 1.8-2.631 2.122-.495.126-.584.605-.421.971a.266.266 0 0 0-.058.02.713.713 0 0 0-.547.224 21.825 21.825 0 0 0-3.212 1.749c-.246-.099-.532-.051-.75.232-1.55 2.063-2.633 4.256-3.177 6.681.104-.138.18-.287.286-.425a30.627 30.627 0 0 1 1.779-2.114ZM808.907 317.031a3.933 3.933 0 0 0-.037.294c.46-.228.915-.464 1.374-.707-.443-.35-1.202-.299-1.337.413ZM820.689 273.017c-.219-.381-.661-.629-1.133-.322-.158.106-.309.22-.461.33.369.228.779.488 1.311.818.09-.253.188-.547.283-.826ZM879.695 322.966a21.05 21.05 0 0 0-.189-.61c-.293-.864-1.47-.632-1.625.075.448.244.841.444 1.196.629.203-.032.413-.067.618-.094Z" style="fill:#8a9d3b;fill-rule:nonzero" transform="translate(-427 -186.345) scale(4.16667)"/>
  <path d="M820.788 272.73c.042-.122.077-.228.122-.349-.628-.566-1.326-1.081-2.169-1.458a1.235 1.235 0 0 1-.114-.071 3.92 3.92 0 0 0-.767.361c-.332.209-.424.527-.363.822.363.224.703.431 1.078.668.07-.025.131-.036.201-.074.702-.441 1.382-.437 2.012.101ZM893.926 310.852c.087-.048.173-.094.257-.134a4.65 4.65 0 0 0 .088-.122c-.651-.169-1.221-.322-1.708-.503-.012.012-.018.031-.034.039.397.311.859.528 1.397.72ZM805.711 318.693a.04.04 0 0 1-.005-.028c-.527.178-1.04.347-1.556.487.003.028.01.06.025.079a27.848 27.848 0 0 0 1.536-.538ZM806.877 318.229c-.217.083-.432.158-.649.236-.004.012 0 .024.002.035.217-.086.43-.184.647-.271ZM853.787 250.209l.149-.09a.742.742 0 0 0 .216-1.011c-.021-.035-.062-.027-.082-.058a14.063 14.063 0 0 1-1.185 2.936c.096.098.195.195.334.227.063.016.126-.032.194-.038.079-.048.162-.083.248-.131.206-.499.403-1.014.547-1.532a.72.72 0 0 0-.424-.299l.003-.004ZM898.765 312.326c.102-.031.222-.071.322-.095a24.608 24.608 0 0 0-1.961-.778c-.159.059-.316.118-.474.181.635.18 1.327.397 2.113.692ZM900.199 248.338c.124-.02.239-.028.36-.039.012-.017.033-.032.048-.048-.091-.035-.191-.075-.282-.109-.176.129-.359.278-.553.42.145-.075.29-.146.427-.224ZM804.159 319.24c-.008-.016-.008-.012 0 0ZM877.91 322.883l.476.278c.229-.038.459-.074.691-.101-.355-.185-.748-.385-1.196-.629a.803.803 0 0 0 .019.432c.008.008.005.016.01.02ZM803.086 319.42c-.256.063-.513.114-.764.158-.044.038-.093.05-.128.093.159.004.318-.007.475-.007.191-.055.377-.094.572-.146-.055-.035-.096-.078-.155-.098ZM796.997 320.009c-.078.048-.146.103-.212.154a9.64 9.64 0 0 0 1.085.09c-.291-.075-.582-.149-.873-.244ZM883.689 326.181c.06.004.117 0 .169-.009-.761-.718-1.367-1.202-1.925-1.58-.26 0-.519.012-.785.02.899.448 1.62.842 2.541 1.569ZM815.15 285.721l.069-.205c.012-.063.027-.126.041-.189-.23-.743-.298-1.56-.169-2.287-.003 0 .003-.008.003-.008a1.394 1.394 0 0 1-.138-.075.563.563 0 0 0-.025.079c-.016 0-.034.004-.05 0a39.64 39.64 0 0 1-.589 1.992c.407-.035.833.162.858.693ZM812.814 315.273c-.059-.015-.116-.038-.169-.035-.236.142-.476.284-.714.424-.025.051-.055.094-.071.157.319-.181.634-.361.954-.546ZM810.295 316.665a.348.348 0 0 0-.051-.047c-.459.243-.914.479-1.374.707-.003.012-.004.024-.01.039.483-.22.96-.459 1.435-.699ZM807.859 317.82c-.018-.004-.037.008-.05.016-.002-.004-.011-.004-.011-.008-.308.137-.614.268-.921.401.326-.13.656-.275.982-.409ZM821.603 273.631c-.266.004-.525.004-.797.047.071-.225.004-.453-.117-.661-.095.279-.193.573-.283.826-.532-.33-.942-.59-1.311-.818a2.559 2.559 0 0 0-.293.24c.651.397 1.293.79 2.415 1.481.118-.353.25-.735.386-1.115Z" style="fill:#8a9d3b;fill-rule:nonzero" transform="translate(-427 -186.345) scale(4.16667)"/>
  <path d="M857.503 327.096c.114.315.21.648.313.971 3.378.279 7.233.523 9.969.739 4.656.374 7.542-.978 17.194-1.498a18.061 18.061 0 0 0-1.29-1.127c-9.275.577-12.105 1.886-16.606 1.563-2.633-.203-6.32-.408-9.58-.648ZM846.171 249.25c.06.031.122.067.181.102.02.016.026.02.04.027l.062.044c.029.024.044.047.073.07 0 0 0 .005.01.012a.746.746 0 0 0 1.008.217c.325-.217.443-.689.216-1.007-.046-.07-.1-.121-.155-.176.037-.024.07-.036.11-.052a.72.72 0 0 0 .916.11.765.765 0 0 0 .336-.597c.263-.099.54-.181.815-.26.252-.228.482-.448.726-.668a.835.835 0 0 0-.212-.604c.502-.375.939-.842 1.345-1.349a.607.607 0 0 0 .344.071.487.487 0 0 0 .194-.039.078.078 0 0 0 .015.01c.002-.003-.002-.01.004-.018.285-.103.513-.39.48-.712-.005-.063-.011-.126-.012-.193a.735.735 0 0 0 .202-.99c-.045-.067-.129-.083-.19-.134-1.695 1.828-4.123 3.919-6.553 6.167a.172.172 0 0 1 .045-.031ZM813.158 288.602c-.008-.618.556-.881 1.014-.787a5.707 5.707 0 0 1-.446-1.155 37.785 37.785 0 0 0-.763 1.82c-.147.617-.279 1.233-.444 1.835-.129.487.198.81.584.877.083-.287.16-.562.256-.83-.109-.577-.195-1.167-.201-1.76ZM814.429 314.173c-.171.161-.364.287-.543.44.345-.216.679-.428 1.005-.644a.74.74 0 0 0-.462.204ZM853.619 252.135a.621.621 0 0 0 .262-.205 2.009 2.009 0 0 1-.22.114c-.013.035-.028.063-.042.091ZM815.982 279.593c-.13.456-.266.916-.413 1.371.242-.058.46-.203.57-.42.169-.342.078-.7-.157-.951ZM834.162 253.64c.082-.157.166-.315.259-.475a.953.953 0 0 0-.259.475ZM818.575 272.703c-.375-.237-.715-.444-1.078-.668.098.456.562.833 1.078.668ZM857.591 336.773c-3.137-4.41-18.6-7.743-15.906-7.767-3.105-.255-14.492-1.937-19.017-11.547-.508-.397-.539-.362-.979-.826-5.249 3.176-10.455 5.876-16.316 6.21-3.453.197-6.021-.043-7.721-.451-1.524-.177-1.666-1.549-.867-2.229-.084-.004-.179-.012-.261-.016-1.671.197-1.93 2.429.051 2.669 1.749.437 4.384.699 7.922.523 6.006-.306 11.326-3.054 16.683-6.293.454.48.487.444 1.006.857 4.711 9.937 16.394 11.752 19.575 12.039-2.759.008 13.115 3.545 16.357 8.116-.697-1.721-1.015-2.904-1.22-3.957-.095-.079-.185-.162-.276-.24.197.806.496 1.725.969 2.912ZM812.291 297.897c-.019-.083-.059-.177-.08-.263.021.007.046.015.074.031-.023-.503-.031-.99-.012-1.47-.017-.09-.041-.185-.057-.28a3.97 3.97 0 0 0-.31-.034 17.052 17.052 0 0 1-.143-2.426c.072.036.141.079.21.114-.03-.613-.037-1.23-.016-1.862-.004-.005-.006-.005-.008-.009-1.091 4.587-1.167 11.347 4.728 18.085.172-.118.328-.244.494-.366-3.431-3.997-4.699-7.998-4.88-11.52ZM838.307 260.915c.008.048.014.091.019.142.556-1.38 1.344-2.924 2.463-4.375.658-.853 1.413-1.694 2.201-2.527-.776-.428-.152-1.662.65-1.245.119.061.236.128.358.195.151-.149.305-.298.46-.447-.067-.096-.124-.189-.187-.28.051-.003.102-.016.146-.023a.66.66 0 0 1-.234-.661c.068-.35.472-.668.831-.542.063.016.124.039.177.059a.783.783 0 0 0 .228-.644c.039.015.09.03.133.046.386.106.79-.192.871-.562a.71.71 0 0 0-.32-.746 73.067 73.067 0 0 0-2.573 2.464c.971-.621-1.315 1.895-1.403 1.47a30.627 30.627 0 0 0-1.779 2.114c-.106.138-.182.287-.286.425-.024.087-.054.169-.073.256-.584 1.615-1.104 3.262-1.682 4.881ZM911.474 296.796c-4.426 1.797-11.296 6.886-16.211 9.913.442.197.886.389 1.303.59 5.017-3.094 12-8.278 16.513-10.097a9.453 9.453 0 0 0-2.37-1.596c-.164.074-.316.169-.477.247.42.272.835.57 1.242.943ZM900.325 248.142c.502-.381.944-.731 1.282-1.074a91.46 91.46 0 0 0-2.227-.884c-.419.327-.859.692-1.311 1.097.763.274 1.519.561 2.256.861ZM900.495 313.033c-.62-.279-1.19-.515-1.73-.707-3.504.911-8.844 3.396-13.556 5.03a99.933 99.933 0 0 1-6.556 2.025c.446.259.9.515 1.348.778a108.822 108.822 0 0 0 6.295-1.925c4.967-1.706 10.626-4.352 14.199-5.201ZM906.547 291.38a20.63 20.63 0 0 0 2.624-3.384c-1.023 1.234-2.237 2.292-3.719 3.085.365.107.734.197 1.095.299ZM814.981 270.919c.329.2.6.364.867.534-.014-.162-.046-.326-.071-.488-.489-.306-1.051-.648-1.785-1.105 1.06 1.81 1.581 3.704 1.748 5.629.122-.849.183-1.694.183-2.547a12.023 12.023 0 0 0-.942-2.023ZM858.656 247.307c-.1.068-.196.139-.3.21.039.475.025.895-.032 1.249.002-.003.008-.003.008-.003.134-.476.248-.963.324-1.456ZM885.113 243.893c.485.066.968.141 1.456.223-.352-.408-.926-.42-1.456-.223ZM822.005 270.329l.515.79c.778-2.068 1.645-4.139 2.474-5.538-.061-.078-.1-.177-.189-.22-.375-.185-.78-.02-.978.322-.22.377-.39.782-.599 1.164-.111.023-.199.101-.285.173-.299.703-.6 1.426-.884 2.188-.018.11-.032.22-.04.338a.67.67 0 0 0-.014.783ZM856.88 252.123a1.047 1.047 0 0 1-.824-.154c-.07.212-.15.417-.235.622.367-.13.715-.264 1.034-.425.007-.016.019-.028.025-.043ZM870.891 239.428c-.041-.016-.174-.118-.032-.012-.321-.236-.748-.252-1.03.059a.759.759 0 0 0-.116.806.76.76 0 0 0-.268.113.668.668 0 0 0-.538.37c-.176.315-.346.625-.515.939a64.497 64.497 0 0 0 2.633-2.248c-.043-.011-.092-.024-.134-.027ZM913.015 260.33c-.024.082-.047.169-.078.247-.7 2.052-3.013 5.472-3.827 6.718.487-.19.943-.378 1.375-.574.847-1.309 3.149-4.764 3.856-6.851.999-2.975 1.59-6.36 2.952-8.891-.273.024-.545.028-.821.043-.614 1.906-1.103 3.959-1.744 5.861-.324.962-1 2.233-1.713 3.447ZM854.358 253.129c.154-.511-.324-.912-.809-.841a15.535 15.535 0 0 1-1.038 1.985c.572-.539 1.21-.876 1.847-1.144ZM820.84 272.758c.232.204.477.251.699.196-.191-.216-.421-.385-.629-.573-.045.121-.08.227-.122.349.018.012.036.016.052.028Z" style="fill:#8a9d3b;fill-rule:nonzero" transform="translate(-427 -186.345) scale(4.16667)"/>
  <path d="m822.52 271.119 1.684 2.602c.504.785 1.731-.005 1.222-.794l-1.635-2.532c.285.307.551.637.784.991.523.778 1.744-.012 1.227-.79a9.287 9.287 0 0 0-1.318-1.564.785.785 0 0 0 .663-.401c.185-.378.012-.775-.322-.983-.126-.074-.19-.118-.279-.177.075-.141.148-.282.22-.424a.948.948 0 0 0 .297-.13.747.747 0 0 0 .218-1.014c-.037-.043-.074-.091-.124-.133-.025-.083-.11-.122-.163-.189-.829 1.399-1.696 3.47-2.474 5.538ZM803.241 319.518c-.195.052-.381.091-.572.146.256-.004.519 0 .775-.016-.053-.059-.138-.083-.203-.13ZM911.184 280.159c.213-.696.398-1.396.571-2.115-.353.196-.68.44-.961.759-.446.523-.104 1.167.39 1.356ZM813.246 292.41c.002.357.014.719.037 1.073.213-.31.242-.762-.037-1.073ZM910.126 283.056c.283-.641.543-1.309.77-1.993a6.925 6.925 0 0 0-1 .494c-.676.422-.356 1.29.23 1.499ZM875.721 323.681c.556-.118 1.11-.233 1.664-.342-.063-.197-.124-.394-.194-.586-.382-1.013-1.989-.511-1.606.503.057.142.09.287.136.425ZM853.413 252.175c.075-.009.14-.012.206-.04.014-.028.029-.056.042-.091-.086.048-.169.083-.248.131ZM908.155 286.428c.393-.511.761-1.053 1.083-1.627l-.763.023c-.927.044-1.004 1.289-.32 1.604ZM877.91 322.883c.039.11.073.224.114.334.118-.024.242-.035.362-.056l-.476-.278ZM804.201 319.31c-.026-.047-.038-.064-.042-.07.01.023.043.09.052.121.016.051.054.188.06.232a19.775 19.775 0 0 0 1.66-.232c-.043-.232-.134-.452-.22-.668-.515.196-1.025.377-1.536.538.011.027.009.051.026.079ZM838.326 261.057c.016.145.03.287.051.424.251.209.356.582.193.873a.463.463 0 0 0-.024.043c.264 1.218.669 2.402 1.15 3.561.164-.094.324-.184.482-.283-.295-.331-.36-.892.126-1.207.255-.161.499-.321.746-.49.038-.174.08-.347.112-.52a.865.865 0 0 0 .257-.341.733.733 0 0 0 .048-.854.73.73 0 0 0-.808-.298c.022-.031.04-.059.067-.087.178-.165.359-.322.542-.479a2.003 2.003 0 0 0-.155-.315c.015-.236.035-.471.043-.708a.86.86 0 0 0 .851-.188c.431.07.843-.33.85-.751-.261-.179-.527-.358-.785-.549-.239-.169-.303-.39-.25-.599a8.631 8.631 0 0 0-.597-.384c.018-.142.033-.288.049-.433.253.154.508.299.727.496.238-.26.647-.386 1.006-.13.012.012.016.016.028.019.212-.258.271-.648-.036-.947.033-.031.069-.062.093-.094-.169-.098-.338-.197-.511-.291-.803-.42-.165-1.675.635-1.25.224.118.448.248.664.377a.69.69 0 0 0 .114-.649 2.464 2.464 0 0 0-.212-.416 21.536 21.536 0 0 0-.783-.424c-.003 0-.006-.008-.009-.008-.788.833-1.543 1.674-2.201 2.527-1.119 1.451-1.907 2.995-2.463 4.375ZM812.273 296.195c-.019.48-.011.967.012 1.47.102.035.206.078.315.125a22.19 22.19 0 0 1-.327-1.595ZM813.359 290.362c-.096.268-.173.543-.256.83a.848.848 0 0 0 .393-.02c-.046-.267-.093-.539-.137-.81ZM881.148 324.612c-.733.023-1.462.071-2.19.17-.038.015-.066.039-.114.047a93.36 93.36 0 0 1-2.791.487c-1.05.216-1.952.46-2.803.743-.001-.056-.015-.111-.024-.162-.54.106-1.081.209-1.627.295.018.153.04.299.061.444-.017.008-.029.017-.053.024a6.747 6.747 0 0 0-.798.051c-.16.015-.325.043-.484.067-.129-.012-.259-.02-.38-.028a9.521 9.521 0 0 1 0-.338c-1.676.157-3.358.123-5.078-.318a39.877 39.877 0 0 1-8.201-1.116c.001.02.008.031.008.047.302.68.576 1.368.829 2.071 3.26.24 6.947.445 9.58.648 4.501.323 7.331-.986 16.606-1.563-.921-.727-1.642-1.121-2.541-1.569ZM906.6 296.061c-.133.005-.266.005-.403.008-.156.008-.306.012-.458.019.04.174.099.343.146.512.237-.181.477-.365.715-.539ZM815.158 285.736c-.001.008 0 .02.006.032.012-.087.033-.17.055-.252l-.069.205c.002.004.007.007.008.015ZM818.154 275.438c.098.389.518.618.897.578.016-.314.311-.613.671-.503a.922.922 0 0 0 .058-.432c.19.259.508.42.895.326.12-.035.24-.048.362-.071a1.65 1.65 0 0 0-.388.732c.599.443 1.132.963 1.658 1.509a1.398 1.398 0 0 0-.017.177c-.006.282-.003.577-.003.876-.162.082-.359.075-.53-.103-.402-.412-.806-.833-1.235-1.206-.004.047-.011.091-.015.137a4.482 4.482 0 0 0-.561.492 29.242 29.242 0 0 1 2.344 2.032c-.001.464.002.943-.016 1.418a.331.331 0 0 1-.115-.074c-.92-.896-1.87-1.78-2.891-2.566-.059.086-.12.173-.173.254-.478.772.483 1.416 1.145 1.082-.054.413-.133.813-.227 1.218.746.602 1.468 1.23 2.153 1.902-.037.39-.092.771-.151 1.153a.486.486 0 0 1-.336-.146 26.116 26.116 0 0 0-1.979-1.781 9.67 9.67 0 0 1-.381.986 8.16 8.16 0 0 1 2.008 1.631c.448.503-.257 1.302-.708.791a7.437 7.437 0 0 0-1.764-1.454c-.598 1.568.936 2.842 2.364 2.708a6.58 6.58 0 0 1-.88 1.411.941.941 0 0 0-.712.728c-.035.034-.067.07-.102.101-.475.386-.517.955-.328 1.4-.106.089-.208.18-.311.263-.747.605.069 1.883.818 1.266.466-.378.924-.759 1.383-1.148.169.18.342.349.523.527a15.58 15.58 0 0 0 1.651-2.249c-.032-.042-.067-.099-.104-.137.116-.114.224-.208.332-.326.324-.315.244-.7.002-.956.033-.058.073-.118.104-.176.127.078.26.157.391.239.095-.205.185-.417.268-.624.094-.351.181-.689.253-1.035-.032-.019-.077-.036-.116-.058.949-1.958 1.468-4.056.741-6.25a.767.767 0 0 0-.317-.413 16.448 16.448 0 0 0-.206-1.088.932.932 0 0 1-.125-.086c.003-.279.003-.559.01-.838.007-.562-.337-.884-.754-.982-.438-1.109-.976-2.154-1.672-3.074-.149-.009-.311.023-.465.032-.136.38-.268.762-.386 1.115a595.149 595.149 0 0 0-2.415-1.481c-.171.149-.345.31-.474.515-.324.503-.303 1.092-.174 1.658ZM814.981 270.919c.392.667.697 1.344.942 2.023a14.02 14.02 0 0 0-.075-1.489c-.267-.17-.538-.334-.867-.534ZM834.549 254.564c.195.126.377.271.552.428-.092-.68-.202-1.36-.339-2.043a.708.708 0 0 0-.341.216c-.093.16-.177.318-.259.475a.865.865 0 0 0 .387.924Z" style="fill:#8a9d3b;fill-rule:nonzero" transform="translate(-427 -186.345) scale(4.16667)"/>
  <path d="M797.652 322.392c1.7.408 4.268.648 7.721.451 5.861-.334 11.067-3.034 16.316-6.21.44.464.471.429.979.826 4.525 9.61 15.912 11.292 19.017 11.547-2.694.024 12.769 3.357 15.906 7.767-.473-1.187-.772-2.106-.969-2.912-4.036-3.388-9.185-5.047-14.386-6.549a.719.719 0 0 1-.421.028c-1.84-.408-3.614-1.046-5.362-1.753-2.287-.743-4.51-1.58-6.556-2.669-.019.016-.041.043-.061.063a19.364 19.364 0 0 1-.546-.291.51.51 0 0 1-.116-.063c-.094-.054-.195-.118-.292-.164a.417.417 0 0 0-.089-.064 2.524 2.524 0 0 0-.096-.161 21.226 21.226 0 0 1-1.861-1.258c-.026.016-.048.044-.066.06a11.425 11.425 0 0 1-.273-.205c.012-.031.03-.055.046-.09a15.282 15.282 0 0 1-1.138-.963 1.05 1.05 0 0 1-.142.035c-.052-.043-.104-.09-.155-.134a.28.28 0 0 0-.073-.046c-.094-.134-.188-.26-.273-.406.014-.003.026-.016.043-.031a17.828 17.828 0 0 1-1.85-2.193.49.49 0 0 1-.275-.256l-.306-.605c-.162-.26-.329-.518-.485-.794-.029-.051-.039-.102-.057-.157-.279-.382-.591-.649-1.011-.696-.22.122-.435.256-.656.381l-.284-.169c-.081.04-.149.071-.228.122a92.18 92.18 0 0 1-3.003 1.718c-2.083 1.112-4.214 2.192-6.452 2.947-4.082 1.38-8.199 1.872-12.328.755a9.64 9.64 0 0 1-1.085-.09c-.799.68-.657 2.052.867 2.229ZM850.025 247.662c.332-.091.474-.334.484-.59-.244.22-.474.44-.726.668.084-.023.161-.054.242-.078ZM814.396 302.786c-.069-.003-.138-.008-.207-.003-.194-.358-.382-.704-.55-1.058a.927.927 0 0 0 .193-.228 16.42 16.42 0 0 1-.464-1.19 3.304 3.304 0 0 1-.434-.233 18.436 18.436 0 0 1-.643-2.177c.181 3.522 1.449 7.523 4.88 11.52.224-.173.462-.342.674-.511-1.293-2.036-2.482-4.049-3.449-6.12Z" style="fill:#8a9d3b;fill-rule:nonzero" transform="translate(-427 -186.345) scale(4.16667)"/>
  <path d="m811.835 315.875-.029.204c-.445.256-.892.499-1.36.715-.039-.058-.105-.082-.151-.129-.475.24-.952.479-1.435.699.001.032-.004.063-.006.095-.329.125-.66.244-.995.361-.326.134-.656.279-.982.409-.217.087-.43.185-.647.271-.018.268-.054.543-.019.81.409-.079.821-.173 1.224-.271a.674.674 0 0 0 .808.255c2.464-.825 4.72-1.913 6.695-3.56.004.113-.005.235 0 .354a66.586 66.586 0 0 0 1.706-.909c.002-.095.006-.193.022-.283.157-.826-.814-1.226-1.333-.849a.869.869 0 0 0-.442-.078c-.326.216-.66.428-1.005.644-.286.244-.571.491-.872.707-.067-.031-.135-.039-.2-.047-.32.185-.635.365-.954.546-.005.021-.018.032-.025.056ZM844.501 253.373a.72.72 0 0 0-.041-.711l-.002-.004c-.155.149-.309.298-.46.447.167.091.332.174.503.268ZM820.082 295.645c-.002-.012.003-.02.007-.032-.355.284-.696.571-1.042.889.327-.169.651-.323.973-.476.014-.126.033-.256.062-.381ZM836.011 318.272a.825.825 0 0 0 .154-.432c12.318-5.094 12.791-21.893 14.037-25.902.02-.046.035-.09.053-.13a.92.92 0 0 0 .057-.18c.007-.02.012-.032.015-.048-.001-.004-.011-.004-.011-.004.054-.388-.175-.73-.587-.853-1.842-.553-3.776-.081-5.677-.101a49.026 49.026 0 0 0-1.782-.217c-.046-.012-.098-.015-.149-.035a.763.763 0 0 0-.361-.016c-3.775-.349-8.363-.369-12.877.845a.82.82 0 0 0-.615.169 24.134 24.134 0 0 0-6.36 2.913c-.135-.193-.375-.287-.63-.279-.301.287-.611.566-.929.837h-.004c-.006.129-.028.259-.04.381.405-.365 1.167-.173 1.319.382.002-.005.004-.008 0-.017.087-.478.489-.656.861-.593.112-.043.222-.09.325-.125.036.118.085.224.134.337a.742.742 0 0 1 .241.436.024.024 0 0 0 .007.013c.043.054.081.102.126.145-.023.044-.053.083-.077.122-.202.334-.067.778.214 1.026.009-.582.006-1.152.006-1.718-.007-1.026 1.59-1.101 1.596-.071 0 .303.003.606 0 .912a.11.11 0 0 0 .051 0 4.67 4.67 0 0 0 .508-1.041c.04.066.096.122.146.181.175-.893 1.626-.936 1.574.051.005.035-.003.074-.003.11.226-.339.2-.833-.13-1.104a3.58 3.58 0 0 1-.192-.174c-.016-.015-.028-.023-.035-.032-.009-.007-.011-.019-.025-.031a1.14 1.14 0 0 0-.064-.102h.001c.005-.011.009-.011.02-.027.012-.016.022-.024.032-.036.037-.02.067-.043.104-.07a.623.623 0 0 0 .128-.106c.282-.052.56-.099.837-.138.043.192.104.385.178.577.06-.074.124-.153.208-.22.418-.353.992-.027 1.259.327a.843.843 0 0 1 .115.228 1.43 1.43 0 0 1 .286-.233.775.775 0 0 0-.124-.353 2.25 2.25 0 0 1-.231-.519 31.552 31.552 0 0 1 1.581-.078c-.192.345-.31.707-.34 1.061.187.177.33.416.419.621.093.228.037.467-.089.661a.785.785 0 0 0 .474.321c.123-.601.258-1.199.381-1.784.087-.432.431-.617.775-.605a.984.984 0 0 0-.061-.26c.517.028 1.02.056 1.505.106-.04.166-.077.335-.109.507a.905.905 0 0 1 .69.618c.078-.35.146-.693.223-1.034.094-.44.443-.625.791-.609.472-.437 1.317-.44 1.474.349.111.582.23 1.164.362 1.742.177 0 .354.007.525.012.082-.197.177-.394.272-.582a22.823 22.823 0 0 0-.347-1.179c-.375-1.129 1.392-1.686 1.767-.559.094.28.171.57.253.858.191.204.303.511.216.778.081.31.165.616.248.927.116.028.242.055.357.078.115-.133.264-.239.431-.306a47.748 47.748 0 0 1-.236-1.797c-.132-1.187 1.722-1.272 1.849-.082.06.492.115.987.19 1.478.241.023.493.06.724.102a7.494 7.494 0 0 1-.3-1.477c-.102-.896 1.284-.948 1.385-.064.075.649.195 1.243.547 1.805a.637.637 0 0 1 .104.35c.205.106.407.224.601.37.403.306.387.958.073 1.308a1.19 1.19 0 0 1-.133.125l-.016-.034c-.209-.327-.684-.453-1.007-.221a1.066 1.066 0 0 0-.2.178 2.766 2.766 0 0 0-.574-.311.945.945 0 0 1-.148.747c.519.757.995 1.553 1.412 2.377.281.563-.026 1.104-.445 1.341a2.146 2.146 0 0 0-.739-.075c.103-.319.169-.645.175-.987.015-.722-.355-1.418-.731-2.012-.501-.794-1.723-.004-1.224.794.23.361.456.735.497 1.168-.001.019-.003.038-.003.058a.862.862 0 0 1-.518-.377c-.466-.696-1.083-1.27-1.725-1.808a.668.668 0 0 1-.578.24c.419.503.812 1.013 1.197 1.54-.47.063-.888.582-.548 1.105l1.403 2.165c-.143.28-.293.559-.437.841a25.297 25.297 0 0 0-3.517-5.023.292.292 0 0 1-.086.012c-.4.024-.869-.322-.84-.759.008-.133.026-.259.039-.388-.047-.043-.094-.087-.145-.122-.444-.397-.984-.193-1.242.197a18.24 18.24 0 0 1 4.414 5.439c-.362.177-.597.601-.32 1.034l.805 1.246c-.118.212-.236.428-.357.644l-.612-.947a.676.676 0 0 0-.741-.303 15.958 15.958 0 0 0-2.804-4.185 1.044 1.044 0 0 1-.516.299c.015.019.029.031.043.046-.45-.333-.9-.668-1.355-.998-.064-.079-.123-.157-.178-.212a.985.985 0 0 0-.376-.24l.077.114c-.377-.275-.756-.55-1.14-.825a.845.845 0 0 0-.288-.134c-.006.012-.008.024-.012.039 3.105 2.366 5.502 5.531 6.721 9.245a20.298 20.298 0 0 1-1.356 1.815c-.116-.196-.243-.389-.361-.577.561.201 1.296-.436.883-1.081l-1.146-1.769a.668.668 0 0 0-.836-.27c-.965-1.836-2.258-3.46-3.801-4.864.072.075.135.147.206.241.283.381.136.951-.216 1.234.109.146.21.302.311.46-1.017-.649-2.057-1.262-3.059-1.93a.828.828 0 0 0-.322-.13c2.207 1.695 4.08 3.754 5.474 6.128.12-.134.2-.307.209-.488a.831.831 0 0 0 .453-.082c.092.09.177.181.258.271a.745.745 0 0 0 .097.22l.112.169c-.326-.125-.701-.011-.941.24.163.279.317.574.464.868l-.664-1.025c-.514-.794-1.735 0-1.225.79l2.229 3.439c-.082.063-.157.129-.234.189-.377.019-.765-.157-.926-.609-.935-2.65-2.474-4.941-4.412-6.871a.953.953 0 0 1-1.009.472c-.008 0-.01 0-.023-.009a.17.17 0 0 1-.052.02h-.014a.053.053 0 0 1-.024.02 14.164 14.164 0 0 0-1.8-.987c-.792-.365-1.45.547-1.138 1.148.313-.216.745-.275 1.128.016 1.531 1.155 2.974 2.369 4.17 3.769.04.035.085.067.127.102l-.024.017a.905.905 0 0 0 .075.097c-.312.248-.463.763-.115 1.16.619.692 1.192 1.473 1.056 2.264-.403-.554-.857-1.053-1.439-1.431a.61.61 0 0 0-.375-.113c-.939-1.318-2.124-2.426-3.414-3.467a.737.737 0 0 0-.093.637c1.327 1.532 2.34 3.296 3.037 5.286.002.016 0 .031.006.051a7.61 7.61 0 0 1-.539-.064c-.552-.675-1.163-1.304-1.654-2.028-.242-.357-.639-.381-.934-.227-.185-.288-.367-.574-.57-.853a.949.949 0 0 0-.369.071c.015-.162.047-.311.076-.465a15.446 15.446 0 0 0-2.819-2.755c.043.091.1.181.188.264.381.373.784.72 1.197 1.049-.053.217-.099.421-.141.637a.934.934 0 0 0-.72-.027 18.495 18.495 0 0 1 1.561 2.2c.261.444.119.885-.181 1.16.018.432-.161.952-.261 1.309-.075.243-.152.483-.235.731.03.063.06.13.099.185.019.02.046.042.069.067.112-.355.216-.708.326-1.061.283-.979 1.843-.649 1.555.334-.252.853-.504 1.713-.807 2.546.128.146.28.284.455.397.145-.589.267-1.191.388-1.781.219-1.009 1.778-.672 1.565.335-.145.661-.287 1.333-.46 2 .291.071.584.138.867.193.138-.357.281-.711.434-1.065.41-.948 1.832-.221 1.427.716-.076.179-.155.361-.23.542.344.016.682.016 1.01 0l.159-.744c.212-1.002 1.773-.663 1.555.339l-.104.483c.453.004.903-.008 1.363-.047.382-.028.647.138.802.385ZM852.875 326.684c-.032.079-.077.142-.118.216.037-.471-.191-.964-.762-1.124-.028-.024-.051-.051-.079-.071-.15-.111-.293-.22-.44-.326a5.292 5.292 0 0 0 .474-2.244c-.009-1.089-1.689-1.003-1.677.074a3.38 3.38 0 0 1-.2 1.202l-.838-.518c.087-.881 0-1.8-.294-2.728-.331-1.038-1.928-.527-1.608.503.148.46.232.908.252 1.344a14.08 14.08 0 0 0-1.449-.581 8.467 8.467 0 0 0-.558-1.86 27.5 27.5 0 0 1-.239 1.616 9.73 9.73 0 0 0-1.815-.302c.075-.414.14-.826.195-1.247-.462-.338-1.203-.259-1.28.448-.034.268-.084.531-.122.791-.143.008-.282.015-.426.027-.718.087-1.045.7-1 1.257-.322-.01-.645-.019-.967-.015.335-.712.641-1.43.902-2.174.356-1.025-1.287-1.367-1.641-.353a21.316 21.316 0 0 1-.977 2.283 32.74 32.74 0 0 1-1.246-.503c.276-.822-.974-1.403-1.52-.656-.345-.154-.69-.303-1.034-.44-.018-.008-.03-.016-.048-.016-.255.055-.512.11-.77.153-.36.334-.438.967.136 1.208 1.22.498 2.415 1.048 3.637 1.532a1.217 1.217 0 0 0-.029.248c.855.337 1.708.648 2.586.931 1.663-.027 3.319.28 4.958.7.285.086.563.176.843.267.008-.012.011-.024.016-.035.02.011.04.011.059.016 1.486.706 2.891 1.517 4.117 2.121.374.186.712.04.906-.207.711.31 1.409.628 2.091.982.604-.479 1.123-1.03 1.47-1.757.45-.986-1.043-1.746-1.505-.762ZM903.656 298.412c.484-.401.954-.798 1.439-1.183-.023-.075-.038-.149-.054-.224-.221-1.062-1.825-.547-1.599.506.062.299.132.602.214.901ZM870.795 322.675c.242.609.406 1.229.527 1.863a35.37 35.37 0 0 0 1.652-.279c-.133-.708-.303-1.408-.575-2.088-.403-.997-2.006-.498-1.604.504ZM868.982 321.44c-.451-.967-2.058-.475-1.6.503.089.197.169.397.24.597a1.658 1.658 0 0 0-.272-.31c.134.377.278.755.439 1.133.243.581-.472.92-.914.636.306-.185.462-.463.514-.766.115-.464-.029-.972-.511-1.18a.87.87 0 0 0-.593-.125c-.101-.016-.213-.028-.318-.048a18.99 18.99 0 0 1-.452-1.733.754.754 0 0 1 .02-.306c-.377-.095-.81.071-1.004.397.016.53.137 1.01.361 1.481-.464-.07-.923-.157-1.381-.239a4.679 4.679 0 0 1-.145-.618l-.03-.007a30.25 30.25 0 0 0-.114-1.337c-.077-.742-.902-.935-1.366-.633.133.858.434 1.667.849 2.434-.493-.103-.98-.197-1.477-.308a8.807 8.807 0 0 1-.333-.923c-.154-.052-.321-.098-.474-.149a15.668 15.668 0 0 0-.289-3.082c-.171-.875-1.304-.664-1.564.032.171 1.348.451 2.681.905 3.962.261.735-.887 1.096-1.151.365-.245-.699-.43-1.41-.589-2.134a.85.85 0 0 0-.206-.051l-.004-.008c-.282-.467-.224-.963-.066-1.446a24.016 24.016 0 0 1-.219-1.97c-.353-.125-.764-.031-.957.413-.051.117-.091.24-.138.354.108 1.152.266 2.303.507 3.439.157.751-.984 1.121-1.148.362a36.76 36.76 0 0 1-.297-1.635c-.583.09-1.069.605-1.041 1.128-.371-.303-.745-.598-1.124-.9.067.086.13.172.193.255a24.666 24.666 0 0 1 2.882 4.575c.164.044.325.083.492.122.135.205.346.366.66.436 2.011.417 4.072.759 6.106.629.914.114 1.824.075 2.706-.228.09.016.177.04.272.055 1.183.17 2.35.181 3.499.095-.119-1.105-.367-2.198-.868-3.267ZM854.667 330.197c-.023-.369-.273-.704-.65-.786a4.33 4.33 0 0 0-.924-.109c.532.286 1.061.581 1.574.895ZM820.659 292.665a.845.845 0 0 0-1.043-.11l-.26.166a.852.852 0 0 0-.251 1.163c.027.039.055.07.08.098a21.093 21.093 0 0 0 1.474-1.317ZM833.632 278.493c-.066-.205-.13-.413-.205-.618-.352-.907-1.8-.452-1.451.461.301.789.458 1.583.419 2.432-.027.059-.052.11-.063.174-.005.034 0 .054-.005.085a.766.766 0 0 0-1.02-.176.772.772 0 0 0-.227 1.052l.413.63c-.169.259-.334.53-.477.809a8.515 8.515 0 0 1-.435.295c-.444.279-.42.771-.167 1.085a5.886 5.886 0 0 0-.17.605c-.325 1.388 1.835 1.848 2.155.464.24-1.03.812-1.942 1.411-2.795.153-.216.246-.467.264-.71 1.309-1.982 1.95-4.477 2.225-6.989.63.15 1.389-.554.936-1.269-.066-.103-.121-.201-.182-.291-.572-.24-.715-1.246.051-1.525.176-.059.344-.13.513-.189-.018-.279-.045-.55-.075-.822-.44.205-.87-.016-1.071-.345-.008-.26-.014-.515-.023-.767a.781.781 0 0 1 .281-.255c.175-.086.348-.189.518-.288a11.294 11.294 0 0 0-.458-1.529c-.19.201-.454.287-.731.284.107-.197.111-.445-.052-.692-.797-1.172-.957-2.684-1.046-4.143.12.121.249.24.364.362.064-.735.109-1.47.131-2.202-.615-.573-1.238-1.127-1.859-1.696-.798-.732-1.914.521-1.118 1.253.309.283.625.57.942.852.076 1.077.111 2.237.285 3.357-.393.275-.616.901-.188 1.376.24.267.478.55.709.825a.872.872 0 0 0-.046.456c.08.397.133.794.191 1.191-.895-1.458-1.84-2.889-2.991-4.202a.834.834 0 0 0-.199-.164c.084.114.169.223.247.341a.704.704 0 0 1 .032.791c.347.341.705.675 1.079.978.68.558.007 1.502-.698 1.365a46.048 46.048 0 0 1 1.753 2.809c-.855 1.195-.165 2.579.907 3.133-.05.518-.123 1.03-.211 1.548a53.19 53.19 0 0 0-1.25-2.044c-.59-.907-1.998.009-1.411.92.746 1.147 1.491 2.311 2.076 3.553-.024.083-.048.15-.073.225ZM818.244 299.952c-.016.249-.035.488-.039.736l.062-.044c.109-.074.215-.141.318-.216a7.755 7.755 0 0 1-.073-.511c-.089.008-.18.028-.268.035ZM894.245 251.537c.823-.84 3.289-1.78 5.527-2.975.194-.142.377-.291.553-.42-.737-.3-1.493-.587-2.256-.861a20.95 20.95 0 0 0-3.824 4.256Z" style="fill:#8a9d3b;fill-rule:nonzero" transform="translate(-427 -186.345) scale(4.16667)"/>
  <path d="M818.104 296.478a.85.85 0 0 0-.376.775.863.863 0 0 0-.396-.088c-.025 0-.051.013-.077.016-.041.13-.075.263-.108.39.466-.354 1.319-.047 1.305.648.027.004.047.02.075.028.102-.574.332-1.082.768-1.427.008-.004.016-.004.022-.015l-.049-.079a.827.827 0 0 0-.221-.224.84.84 0 0 0-.943-.024ZM867.268 243.114a.734.734 0 0 0-.006.955.651.651 0 0 0-.185.036c-.316.094-.574.464-.508.801-.031 0-.061 0-.087.012-.405.13-.558.527-.477.92.019.063.039.134.064.201a.936.936 0 0 0-.406.129l-.254.17a.807.807 0 0 0-.194.173c-.051.094-.099.192-.151.287a.841.841 0 0 0 .09.699c.016.02.033.031.041.047-.01.016-.024.027-.037.044-.067.098-.138.188-.203.274a8.55 8.55 0 0 0-.485.366c-.242.208-.423.479-.48.766a15.73 15.73 0 0 1-1.999 1.737.762.762 0 0 0-.226.245.814.814 0 0 0-.202.085l-.261.17a.858.858 0 0 0-.246 1.167.793.793 0 0 0 .411.322c.35-.231.704-.44 1.055-.648a.623.623 0 0 0 .254-.118c.491-.361.961-.735 1.408-1.136.07.102.15.204.235.299.242.259.662.223.935.031.185.04.385.012.55-.102a.728.728 0 0 0 .319-.739c.226.121.516.137.741-.024.255-.188.434-.416.599-.679a.4.4 0 0 0 .038-.099c.206-.051.406-.09.605-.137.495-.445.951-.939 1.357-1.467a.65.65 0 0 1-.485-.447c-.102-.331.082-.814.463-.885.144-.023.284-.055.429-.086.077-.212.241-.381.462-.424.004-.017-.002-.036.006-.051a.641.641 0 0 1-.334-.449c-.043.02-.087.035-.12.071-.059-.091-.114-.181-.17-.267-.007-.051-.013-.095-.03-.135a.345.345 0 0 0-.045-.116.748.748 0 0 0 .318-.457.675.675 0 0 0-.122-.566c.033-.043.07-.087.096-.137a.728.728 0 0 0 .031-.571c.197-.294.177-.734-.111-.963a2.817 2.817 0 0 1-.197-.172c.039-.071.075-.142.116-.212.238.181.57.215.841.043.326-.209.436-.68.215-1.006a2.841 2.841 0 0 0-.132-.17l-.002-.003c.003 0 .003 0 .002.003a.737.737 0 0 0 .87-.557.734.734 0 0 0-.558-.865c-.021-.009-.053-.016-.081-.024a64.497 64.497 0 0 1-2.633 2.248c-.218.394-.436.782-.648 1.175a.77.77 0 0 0-.476.236ZM905.191 268.371a21.567 21.567 0 0 0 3.919-1.076c.814-1.246 3.127-4.666 3.827-6.718.031-.078.054-.165.078-.247-1.119 1.906-2.339 3.671-2.467 3.923-1.547 1.289-3.193 3.317-5.357 4.118ZM882.646 316.04c2.115-.189 4.181-.692 6.164-1.773.603-.334.376-1.053-.103-1.297a21.196 21.196 0 0 1 1.595-2.417c.653-.849-.589-1.981-1.259-1.116-1.028 1.336-1.871 2.778-2.64 4.268-.361.131-.72.252-1.092.354.69-1.198 1.258-2.465 1.771-3.734.402-.994-1.091-1.765-1.5-.754-.54 1.34-1.144 2.672-1.886 3.914a1 1 0 0 0-.685.043c-.441.181-.919.378-1.424.57a26.247 26.247 0 0 0 2.325-3.556c.506-.956-.987-1.714-1.502-.763-.926 1.744-2.106 3.325-3.384 4.814a6.986 6.986 0 0 1-.527-.027c-.298-.181-.599-.366-.887-.534 1.092-1.117 1.97-2.433 2.786-3.798.562-.931-.942-1.682-1.496-.757-.812 1.356-1.69 2.664-2.837 3.737a28.779 28.779 0 0 0-1.923-.877c.256-.192.498-.396.726-.629.758-.766-.499-1.882-1.256-1.115a4.964 4.964 0 0 1-1.484 1.021 23.097 23.097 0 0 0-2.635-.652 19.59 19.59 0 0 1-4.294-.326c-1.682.066-3.011.357-3.889.621.182.042.359.094.546.142-.281.498.161 1.32.889 1.119a8.82 8.82 0 0 1 2.196-.267l.432.15c-.145.039-.302.078-.449.129-.934.302-.474 1.753.455 1.45a9.966 9.966 0 0 1 2.884-.502c.332.141.662.29.994.428a5.87 5.87 0 0 0-1.054.479c-.844.504-.011 1.781.828 1.277.774-.463 1.712-.652 2.65-.629.227.111.437.229.661.343-.091.004-.188.004-.285.015-.971.095-.904 1.616.071 1.518.81-.075 1.614-.075 2.417-.044.016.083.04.173.066.26.052.023.098.055.15.078.347-.091.694-.169 1.04-.24 2.232.5 4.632-.102 6.845-.923ZM833.975 258.377c.492.537.995 1.081 1.496 1.611-.008-.857-.04-1.71-.106-2.567-.088-.102-.185-.2-.277-.294-.728-.802-1.837.455-1.113 1.25ZM895.263 306.709c4.915-3.027 11.785-8.116 16.211-9.913a9.191 9.191 0 0 0-1.242-.943c-5.714 2.759-9.949 8.993-15.946 10.416.346.137.649.295.977.44ZM892.529 310.132c-.558.77-1.122 1.533-1.694 2.292a72.94 72.94 0 0 1 3.091-1.572c-.538-.192-1-.409-1.397-.72ZM883.261 245.315c-.015.009-.033.009-.051.016-.878.369-1.769.696-2.662 1.018-1.749.146-3.698.35-5.752.684-.02.035-.046.067-.063.102.351.094.706.189 1.056.279.507.141.621.661.457 1.03.5 0 .986.011 1.457.035.022.11.054.216.103.315-.823-.417-1.78.723-.969 1.344 1.226.947-.916 1.014-2.579-.703-.006-.004-.009-.009-.015-.012a6.892 6.892 0 0 1-.93.495c.418.232.781.55 1.057.959.512.751-.667 1.513-1.178.762a1.533 1.533 0 0 0-.451-.443 2.175 2.175 0 0 0-.484.51c.172.091.339.197.506.299.666.094 1.326.204 1.983.338 1.005.213.668 1.772-.334 1.56-.291-.063-.578-.106-.868-.157a.713.713 0 0 1-.812-.051c-.038-.035-.087-.067-.128-.102-.171-.024-.344-.056-.515-.074.159.129.313.263.455.408a.714.714 0 0 1 .097.948c.26.128.527.263.782.416.886.515.171 1.942-.721 1.427a1.332 1.332 0 0 0-.149-.083 12.251 12.251 0 0 1 1.853 1.667c.476.534-.021 1.312-.551 1.262.289.584-.508 1.328-1.114.824a12.666 12.666 0 0 0-.566-.463.763.763 0 0 1-.265.33.691.691 0 0 1 .057.421c.043.035.09.062.132.093.731.543-.217 1.585-.935 1.05-.294-.216-.593-.416-.891-.617.057.319-.145.676-.456.802a.68.68 0 0 1-.169.409c-.237.259-.739.334-.992.059-.113-.13-.23-.248-.348-.378a1.01 1.01 0 0 1-.155.114c.149.347.34.677.557 1.015a.755.755 0 0 0 .72.364c.091-.05.2-.081.324-.085.012 0 .018-.008.024-.012.015.007.033.007.045.016.026 0 .041-.004.065.003.255.036.52.055.768.067a1.74 1.74 0 0 0 1.057-.522c1.979.515 3.723.086 5.215-.889a.36.36 0 0 0 .109-.071c3.001-2.036 4.961-6.277 5.731-9.532a.976.976 0 0 0 0-.526c.163-.247.335-.491.509-.73a1.12 1.12 0 0 0 .132-1.125 46.146 46.146 0 0 1 1.403-3.273c.088-.091.169-.189.259-.28.171-.173.351-.35.533-.503.045-.035.094-.063.139-.102.639-.04 1.297-.605 1.079-1.411a1.196 1.196 0 0 0-.253-.496 47.083 47.083 0 0 0-1.456-.223 2.708 2.708 0 0 0-.71.384 10.82 10.82 0 0 0-1.142 1.038ZM853.148 248.892l-.151.095a.739.739 0 0 0-.217 1.009.736.736 0 0 0 .445.308h-.004c-.348.275-.478.62-.565 1.04-.055.249.06.472.229.642.505-.948.912-1.926 1.185-2.936-.234-.26-.624-.355-.922-.158Z" style="fill:#8a9d3b;fill-rule:nonzero" transform="translate(-427 -186.345) scale(4.16667)"/>
  <path d="M886.609 316.598c-3.075 1.27-6.465 1.167-9.636 1.82.561.315 1.117.644 1.68.963a99.933 99.933 0 0 0 6.556-2.025c4.712-1.634 10.052-4.119 13.556-5.03a26.369 26.369 0 0 0-2.113-.692c-3.464 1.399-6.546 3.522-10.043 4.964ZM853.038 252.638c-.292.479-.613.893-1.079 1.206-.515.338-.35.983.042 1.243a.726.726 0 0 0-.134.935.743.743 0 0 0 1.012.216l.442-.286a.731.731 0 0 0 .215-1.007.668.668 0 0 0-.302-.255c.447-.402.789-.869 1.101-1.396.038-.063.004-.106.023-.165-.637.268-1.275.605-1.847 1.144.404-.648.741-1.309 1.038-1.985a.722.722 0 0 0-.511.35ZM855.765 253.463c.101-.035.215-.082.315-.126.273-.373.529-.758.775-1.171a8.883 8.883 0 0 1-1.034.425c-.035.086-.061.177-.099.262.042.202.052.406.043.61ZM818.059 313.025c-.576.409-.689 1.041-.529 1.65a93.068 93.068 0 0 0 1.805-1.064.847.847 0 0 0-.112-.335c-.245-.369-.79-.514-1.164-.251ZM912.321 275.246c.126-.703.238-1.399.344-2.102l-.86.557c-.773.499-.221 1.596.516 1.545ZM888.485 280.159l.258-.17a.847.847 0 0 0 .251-1.159.848.848 0 0 0-1.165-.243l-.26.169a.834.834 0 0 0-.248 1.151.844.844 0 0 0 1.164.252ZM854.66 316.362c-.278-1.037-.624-2.055-.899-3.097-.098-.373-.364-.546-.654-.57-.309.188-.619.381-.93.558a.833.833 0 0 0-.019.519c.235.885.525 1.765.776 2.641-.407-.294-.806-.57-1.201-.809 1.16.856 2.301 1.783 3.439 2.719.005-.004.005-.007-.002-.007a21.25 21.25 0 0 0-1.041-.947c.367-.146.658-.515.531-1.007ZM912.921 271.382c.085-.633.168-1.258.252-1.874l-.542.352a.845.845 0 0 0-.249 1.156.845.845 0 0 0 .539.366ZM897.37 278.587a.841.841 0 0 0-.569.09 48.34 48.34 0 0 0-2.561-.055.855.855 0 0 0-.814.02c-.647.023-1.253.074-1.791.161.021-.047.049-.087.072-.13.231-.393.017-.931-.373-1.127-.428-.217-.898-.021-1.128.372-.182.311-.349.614-.355.987-.006.358.194.672.385.959.245.385.776.5 1.157.256a.845.845 0 0 0 .335-.975c.387.027.76.054 1.116.098a2.364 2.364 0 0 0-.162.539c-.098.448.197.9.644.994a.843.843 0 0 0 .999-.645l.02-.09a.862.862 0 0 0 .332-.543c.586.103 1.138.213 1.637.334a6.047 6.047 0 0 0-.009.268c-.003.133-.008.264-.008.392 0 .013-.004.087-.011.131 0 .05-.011.106-.02.145-.085.456.191.904.642 1.002a.85.85 0 0 0 1.002-.644c.053-.275.061-.559.069-.841.454.133.875.267 1.274.388a1.77 1.77 0 0 0 .206.948c.228.396.797.483 1.165.248a.784.784 0 0 0 .367-.709c.543.115 1.068.178 1.598.139a190.48 190.48 0 0 1-1.389 3.262c-.318.354-.631.708-.934 1.08a1.815 1.815 0 0 0-.101-.058c-.194-.735-.372-1.462-.384-2.229-.002-1.088-1.681-1.007-1.671.074.002.701.132 1.377.297 2.045a2.33 2.33 0 0 0-.389.18c.132.311.27.621.398.928.365.825-.982 1.246-1.338.421-.247-.571-.494-1.14-.745-1.714a.736.736 0 0 0-.019.64c.165.409.303.815.429 1.231a21.94 21.94 0 0 1-.895 1.187c.039.071.075.15.122.225.478.769-.707 1.536-1.179.757a6.476 6.476 0 0 1-.338-.652.864.864 0 0 0-.281.61c-.013.282-.004.566.014.848.108.275.228.547.388.806.478.767-.697 1.529-1.178.762-.067-.106-.114-.207-.173-.313a4.97 4.97 0 0 1-.256.286c.044.079.087.145.13.217a.707.707 0 0 1-.204.97.72.72 0 0 1-.855-.074c-.277.345-.54.711-.804 1.072l.13.2c.465.724-.578 1.447-1.098.857a.622.622 0 0 0-.028.225c-.002.094.007.185.015.271-.223.453-.271.889-.19 1.277a7.29 7.29 0 0 1-1.386.351c-.959.145-.9 1.665.069 1.52a9.029 9.029 0 0 0 2.204-.609c.972.657 2.464.644 3.204-.687a17.214 17.214 0 0 1 1.655-2.426c.621.657 1.83-.196 1.293-1.058-.046-.074-.08-.145-.119-.224.493-.549.974-1.115 1.436-1.686.605.327 1.547-.145 1.222-.942-.054-.127-.098-.252-.145-.382a21.142 21.142 0 0 0 1.592-2.182c.065-.109.12-.216.167-.322a79.617 79.617 0 0 0 2.569-4.099c1.055-1.132 2.108-2.272 3.003-3.538.328-.46.186-1.057-.376-1.229l.108-.205c-.275.015-.56.027-.849.039-1.104-.197-2.203-.161-3.307-.051-1.553-.059-3.176-.169-4.746-.244a.827.827 0 0 0-.287-.129Z" style="fill:#8a9d3b;fill-rule:nonzero" transform="translate(-427 -186.345) scale(4.16667)"/>
  <path d="M900.174 298.943c-.09.031-.181.07-.273.125-.476.311-.955.606-1.431.88-.061-.432-.114-.856-.177-1.281-.172-1.061-1.849-.99-1.678.075.108.68.19 1.36.289 2.04-.291.149-.586.279-.884.405a79.454 79.454 0 0 0-.27-1.486c-.204-1.061-1.797-.538-1.601.511l.286 1.521c-.51.142-1.021.248-1.55.315 0-.009 0-.012-.006-.016-.45-.731-.499-1.545-.165-2.335.407-.998-1.094-1.765-1.5-.762-.444 1.069-.505 2.154-.136 3.183-.08-.004-.162.008-.243 0-.129-.007-.261-.011-.394-.023a1.063 1.063 0 0 0-.504.062c-.564.04-1.132.115-1.68.216a.806.806 0 0 0-.623-.6c-.426-.091-.922.196-.994.648-.016.13-.022.259-.012.381-.041.016-.079.036-.122.043-1.142-.314-2.292-.813-3.5-1.151-.944-.26-1.258 1.23-.317 1.489 1.641.453 3.157 1.14 4.703 1.396.324.412.836.369 1.167.098.415 0 .841-.043 1.276-.141 2.521.518 4.745.031 6.827-1.007l-.161-.086c-.008-.032-.014-.063-.023-.095.276-.101.553-.216.823-.337l.039.16c.446-.247.882-.526 1.32-.817a33.396 33.396 0 0 0 2.441-1.431c.325-.212.468-.495.492-.786.151-.129.308-.251.466-.373-.202-.888-.374-1.781-.616-2.641-.304-1.042-1.905-.531-1.605.511.13.432.237.872.336 1.309ZM853.95 244.698c.004-.031.008-.071.014-.106-.094-.106-.187-.212-.289-.315a16.46 16.46 0 0 0-.056.488c.102-.039.22-.059.331-.067ZM907.51 263.765l.369-.236a.849.849 0 0 0 .245-1.159.845.845 0 0 0-1.163-.251l-.363.239a.849.849 0 0 0-.248 1.163.846.846 0 0 0 1.16.244ZM881.736 305.97c.592.9 2-.007 1.413-.919-.585-.908-2.001.003-1.413.919ZM872.133 290.94a2.357 2.357 0 0 0-.178-.35.849.849 0 0 0-1.163-.243c-.016.011-.031.019-.048.035-.725-.476-1.44-.967-2.184-1.408-.93-.557-1.687.948-.759 1.498 1.039.617 2.013 1.325 3.039 1.95.007.003.009.003.012.012.034.011.063.035.097.047.362.22.694.122.911-.114a.83.83 0 0 0 .288-.46c.041-.205.096-.421.069-.633.006-.02-.011-.035-.005-.059.339.174.693.346 1.064.526-.242.245-.346.629-.096.999.605.904 1.431 1.438 2.483 1.674a.752.752 0 0 0 .678-.141c.235-.165.442-.338.6-.582a.988.988 0 0 0 .1-.243c1.156.495 2.294.951 3.32 1.325-.052.066-.105.125-.154.204a39.36 39.36 0 0 1-.79 1.049c-.393-.059-.824.122-.927.633a4.498 4.498 0 0 0-.069.558c-.047.051-.091.106-.136.157-.37-.209-.876-.157-1.11.342a6.961 6.961 0 0 0-.429 1.246c-.462.44-.929.865-1.415 1.282a33.025 33.025 0 0 1 0-1.808c.04-1.077-1.643-.995-1.674.082-.037 1.018.005 2.032.056 3.054-.303.236-.611.464-.923.695-.246-1.135-.505-2.268-.763-3.403-.231-1.058-1.827-.543-1.597.507.295 1.324.602 2.641.882 3.962-.269.189-.538.369-.803.55a38.935 38.935 0 0 0-.42-3.891c-.172-1.049-1.852-.987-1.685.079.275 1.627.413 3.258.475 4.901-.194.122-.392.251-.589.382a2.266 2.266 0 0 0-.662.644 30.932 30.932 0 0 1 .108-4.281c.096-1.061-1.543-1.427-1.641-.35-.173 1.859-.22 3.718-.084 5.578-.124-.039-.252-.079-.38-.126a.769.769 0 0 0-.43-.016c.025-.959.078-1.937.275-2.888.218-1.062-1.427-1.415-1.645-.35-.242 1.214-.297 2.484-.32 3.726-.012.77.849.947 1.336.585a.782.782 0 0 0 .474.417c1.16.405 2.356.758 3.567.935.231.079.481.11.741.086.194.02.39.024.585.036a13.768 13.768 0 0 0 1.735-.287.835.835 0 0 0 .042-.982c.102-.067.206-.134.305-.205.52.42 1.479.189 1.375-.633-.009-.094-.025-.184-.035-.271.043-.032.092-.063.134-.098-.018.196-.028.401-.048.594a.848.848 0 0 0 .434.864c.413-.184.824-.385 1.217-.62.002-.063.009-.13.014-.197.621-1.034 1.503-2.174 2.534-3.337.276-.11.51-.334.573-.641 3.462-3.781 8.272-7.825 10.734-10.098-2.022.107-11.961-1.245-17.095-2.499Z" style="fill:#8a9d3b;fill-rule:nonzero" transform="translate(-427 -186.345) scale(4.16667)"/>
  <path d="M877.511 295.456c.588.913 2.006-.004 1.412-.915-.588-.905-1.998.007-1.412.915ZM844.425 262.582a.754.754 0 0 1-.156.719c-.032.028-.059.063-.086.095-.024.251-.016.491.027.727-.275.157-.556.314-.833.471-.855.488-.022 1.761.827 1.281.329-.184.663-.377.99-.562a.832.832 0 0 0 .759-.428c.392-.224.783-.435 1.179-.653a.87.87 0 0 0 .72-.085l.327-.213a.843.843 0 0 0 .332-.437 44.246 44.246 0 0 1 1.857-.911c.18-.024.35-.052.517-.079a.76.76 0 0 0-.095.687c.515-.219 1.073-.309 1.635-.321a.866.866 0 0 0-.136-.394.877.877 0 0 0-.186-.2c.538-.11 1.065-.239 1.584-.378a.722.722 0 0 0 .125.33.78.78 0 0 0 .34.291c.135-.046.274-.106.409-.152.183-.276.559-.429.879-.33.017-.005.033-.017.049-.021a.82.82 0 0 0 .088-.627c.308-.091.629-.182.938-.276a.818.818 0 0 1 .361-.644.809.809 0 0 1 1.105.235.731.731 0 0 1 .048.067c.017.016.036.031.052.047.024.012.088.054.104.059a.925.925 0 0 0 .026.012c.03.012.066.019.099.035.065.008.126.024.197.039a.801.801 0 0 1 .607.944.8.8 0 0 1-.946.609 2.777 2.777 0 0 1-.621-.193.711.711 0 0 1-.449.566 14.87 14.87 0 0 0-.218.09c.13.079.258.166.387.244a.94.94 0 0 1 .387.46c.716.28.411 1.475-.41 1.333.359.267.485.845-.02 1.12-.57.306-1.275.33-1.914.326-.106 0-.212-.004-.318-.008a.74.74 0 0 1-.36-.015c-.136-.009-.263-.024-.399-.028-.059.114-.12.224-.179.334.867.157 1.743.263 2.574.193.904-.075.968 1.328.067 1.408-.913.074-1.882-.04-2.828-.209.006.007.008.007.014.007a.73.73 0 0 1 .413.527c.855.165 1.713.322 2.591.432.893.114.593 1.486-.296 1.376a35.863 35.863 0 0 1-1.745-.279c.523.138 1.079.279 1.429.263.905-.031.975 1.368.065 1.404-.23.007-.47-.013-.709-.051.157.29.047.726-.252.947.458.126.939.2 1.426.215.895.028.969 1.435.061 1.404a8.359 8.359 0 0 1-1.713-.24c-.002.032 0 .059-.004.086.454.201.903.381 1.365.555.533.2.48.762.164 1.076a10.28 10.28 0 0 0 3.361-2.146.75.75 0 0 1-.041-.907 14.45 14.45 0 0 0 1.561-2.936 1.175 1.175 0 0 0-.462-.134c.769-2.091 1.102-4.284 1.345-6.501.935-3.353 1.851-6.446 2.23-7.185-1.59.684-3.853 1.726-6.351 2.81-4.403.315-8.121 1.978-11.847 4.002-.2.027-.398.059-.577.071a.843.843 0 0 0-.649-.649.823.823 0 0 0-.821.295ZM860.459 254.65c-.229-.22-.344-.574-.24-.888a.724.724 0 0 0-.329-.177c-.338.252-.693.484-1.051.708a.755.755 0 0 0 .126.554c.427.66 1.277.361 1.494-.197Z" style="fill:#8a9d3b;fill-rule:nonzero" transform="translate(-427 -186.345) scale(4.16667)"/>
  <path d="M856.56 264.92a12.127 12.127 0 0 0-.965-.067c.028.067.052.135.071.209.305.004.64-.02.797-.106.031-.016.061-.024.097-.036ZM840.101 280.104c2.435-.606 5.251-.535 8.15-.166.035.209.157.401.422.52.274.114.555.215.831.318-.115.373.097.817.435.99.431.213.898.02 1.13-.377.006-.011.01-.023.019-.035.138.043.279.091.413.137-.408.676-.522 1.479-.305 2.366.109.445.637.681 1.052.551.462-.149.656-.614.549-1.054-.139-.593-.011-1.002.437-1.371.686.176 1.372.341 2.06.483-.47.53-.967 1.037-1.455 1.553-.744.793.518 1.909 1.254 1.119.722-.762 1.441-1.513 2.082-2.334.747.121 1.508.216 2.262.306-1.134 2.174-3.094 3.892-5.229 5.047-.947.523-.03 1.926.919 1.411 1.945-1.057 3.667-2.535 4.93-4.343-.08.794-.284 1.568-.791 2.359-.152.22-.078.526.041.75a.69.69 0 0 1 .069.228 12.854 12.854 0 0 1-4.583 2.933c-1.011.384-.509 1.984.508 1.602a15.148 15.148 0 0 0 2.894-1.457c-.487.904-.671 1.874-.789 2.885-1.446.829-2.983 1.524-4.392 2.177-.979.448-.483 2.052.495 1.6 1.214-.555 2.455-1.132 3.668-1.777-.014.079-.016.157-.032.232-.031.205-.067.405-.102.597-.628.366-1.252.743-1.844 1.172-.788.577.032 1.854.83 1.277.21-.153.431-.298.65-.444-.052.286-.107.586-.153.864-1.569.956-3.307 1.667-4.964 2.194-1.034.338-.53 1.934.5 1.599a24.543 24.543 0 0 0 2.841-1.077l-.008.009c-.829.53 0 1.807.827 1.273l.452-.291c-.019.213-.043.417-.062.629-1.852 1.05-3.986 1.666-5.987 2.469-.996.4-.497 2 .509 1.595 1.488-.589 3.037-1.105 4.506-1.741.048.153.14.295.268.412a.728.728 0 0 0 .23.715c-.527-.125-.94.37-.894.846a4.094 4.094 0 0 1-.49.279.768.768 0 0 0-.298.271c-1.47.771-3.037 1.364-4.739 1.682-.966.174-.494 1.627.456 1.447.294-.051.585-.118.875-.189 4.101-2.275 7.757-5.227 10.281-8.992.151-.405.288-.818.424-1.231a.796.796 0 0 1 .653-.565c.39-1.054.66-2.155.917-3.263 1.708-3.557 2.425-6.674 2.698-7.755.446-1.902 1.741-4.831 2.964-7.381 1.099-1.466 2.283-2.885 2.94-4.626.199-.531-.106-1.105-.714-1.105-2.61.019-5.144.672-7.76.696-2.29.024-4.509-.11-6.754.219-3.448-.302-10.028-.447-16.096 1.762ZM852.925 246.977c.504.79 1.726-.003 1.22-.793-.515-.79-1.735.008-1.22.793ZM885.822 256.706c.281 1.022.915 1.847 1.788 2.355.148-.441.397-.857.752-1.207.303-.303.791-.366 1.129-.059.306.271.372.813.061 1.119-.215.213-.376.425-.45.637.021.004.041.013.059.013.004.003.014 0 .022 0a.766.766 0 0 0 .613-.122c.349-.232.612-.528.725-.944.041-.134.047-.283.057-.421.006-.042.004-.09.009-.137-.013.264.004.011.01-.047a.806.806 0 0 0-.076-.551c.44.067.89.146 1.348.221a.855.855 0 0 0 .118.566c.015.024.029.039.039.062l.002.004a.21.21 0 0 1-.063.052.856.856 0 0 0-.253 1.163.853.853 0 0 0 1.165.251c.399-.275.679-.612.818-1.081a1.327 1.327 0 0 0-.012-.715c.349.059.69.118 1.03.181-.004.008 0 .031-.004.039.029.26.127.472.269.688a.852.852 0 0 0 .328.283c-.06-.421.269-.943.829-.888.814.074 1.636.067 2.459.047a.437.437 0 0 1 .035-.122c.182-.361.592-.455.948-.31.146.062.131.059.31.102.051.004.105.011.162.023.003 0 .007-.003.015 0 .169-.003.349-.012.525-.035.383-.043.719.307.733.672.017.401-.289.696-.668.731a3.545 3.545 0 0 1-.906-.018.61.61 0 0 1-.316.289c.241.114.471.241.694.39.756.487.127 1.744-.628 1.25a5.807 5.807 0 0 0-1.525-.693.753.753 0 0 1-.003.327.787.787 0 0 1 .587.692c.127 1.147.279 2.284.605 3.395.291.987-1.231 1.467-1.525.48-.279-.951-.439-1.925-.566-2.904-.087.145-.173.29-.261.432.039.066.088.141.129.209-.034.42-.037.832 0 1.234.045.467.223.896.492 1.238-.073.058-.152.13-.223.204a36.472 36.472 0 0 0-1.041-1.867c-.016.028-.035.055-.055.087a.627.627 0 0 1 .104.255c.33 1.498.652 2.987.918 4.497.176 1.009-1.419 1.072-1.595.07-.115-.652-.251-1.297-.381-1.941-.369.149-.673.518-.567 1.009.055.248.118.476.188.716a.72.72 0 0 1 .295.405c.26.794.354 1.639.447 2.464.113 1.027-1.483 1.097-1.596.074a14.32 14.32 0 0 0-.211-1.453c-.378.066-.725.334-.745.817a6.075 6.075 0 0 0 .423 2.512c.023.196.068.377.134.554-.732.4-1.524.75-2.385 1.088-.903.366-.449 1.816.459 1.455 1.024-.409 1.978-.834 2.847-1.325.122.149.242.303.372.44.487.528 1.14.15 1.308-.397.576-.152 1.078-.515 1.301-1.08.596-1.561 1.449-2.976 2.312-4.391a.716.716 0 0 0 .267-.259c2.824-4.351 4.109-9.555 7.452-13.591.46-.554-.059-1.498-.8-1.231-.444.161-.882.323-1.312.487-3.711-.058-13.345.802-17.882 1.247a2.271 2.271 0 0 1-.078-.351.86.86 0 0 0-.616-.711 25.32 25.32 0 0 0-1.065.727c.002.02-.006.04.006.063.019.15.045.291.08.433-.364.039-.611.066-.705.074.162-.008.419 0 .735.028Z" style="fill:#8a9d3b;fill-rule:nonzero" transform="translate(-427 -186.345) scale(4.16667)"/>
  <path d="M879.867 268.037c.086-.318.374-.582.794-.483a2.478 2.478 0 0 1 1.555 1.046.71.71 0 0 1-.206.97.713.713 0 0 1-.977-.204c-.024-.036-.05-.067-.075-.106a.786.786 0 0 1-.415.338.762.762 0 0 1-.295.447c.714.362 1.412.759 2.092 1.192.754.487.128 1.741-.632 1.257a26.286 26.286 0 0 0-1.404-.833c-.354.295-.521.884-.099 1.313.667.688 1.319 1.376 1.924 2.11-.122.288-.236.574-.354.862a45.061 45.061 0 0 0-1.617-2.099.858.858 0 0 0-.686-.327 5.084 5.084 0 0 1-1.602-1.505c-.605-.896-2.016.012-1.412.912a6.874 6.874 0 0 0 2.686 2.334 48.907 48.907 0 0 1 1.851 2.496c-.226.492-.468.979-.737 1.438a29.683 29.683 0 0 0-2.006-3.753c-.582-.915-1.989 0-1.409.912a27.879 27.879 0 0 1 2.294 4.453 8.608 8.608 0 0 1-1.099 1.085 19.066 19.066 0 0 0-1.297-2.527c-.571-.923-1.977-.008-1.412.911.584.948 1.062 1.95 1.463 2.972-.333.943.092 2.029.854 2.595.054.196.105.392.162.588a8.667 8.667 0 0 1-1.48.472c-.244-1.422-.923-2.755-1.692-3.965-.582-.924-1.987-.004-1.407.907.636 1.018 1.213 2.095 1.425 3.267-.332.008-.666 0-.993-.02-.104-.165-.212-.334-.312-.503-.072-.142-.138-.264-.183-.377-.022-.059-.044-.114-.061-.173-.006-.02-.008-.02-.01-.032.01-.416-.214-.794-.647-.888-.422-.091-.939.189-.998.645-.131.947.533 1.855 1.028 2.613.299.464.815.457 1.169.209.381.019.765.019 1.149.003a.807.807 0 0 0 .128.205.666.666 0 0 0 .578.672c1.175.192 2.231-.196 3.115-.868.373.157.883-.016 1.102-.402a16.627 16.627 0 0 0 1.805-1.776c.328-.074.592-.311.586-.715 4.136-5.263 5.943-13.112 7.462-17.813.4-.574.834-1.132 1.33-1.659.415-.448.061-1.375-.605-1.265-3.084.487-6.136-.225-9.211-.389-2.303-.217-4.678-.244-6.994-.024a.59.59 0 0 1-.621.452c-.799-.004-1.593.008-2.386-.012-2.082.417-4.058 1.065-5.806 2.021 1.327-.425 2.777-.551 4.253-.488 3.518-.531 6.998.295 10.335 1.509ZM909.996 259.685c-.226-.396-.8-.484-1.164-.248a.78.78 0 0 0-.363.614.84.84 0 0 0-.237 1.144.853.853 0 0 0 1.163.251c.254-.169.482-.35.642-.613.226-.37.154-.786-.041-1.148ZM912.132 256.222c.437-.019.853-.42.802-.872a7.994 7.994 0 0 1-.053-.766c.006-.036.006-.091.01-.106.004-.017.018-.056.028-.088 0-.003.002-.007.008-.018.367-.264.494-.76.237-1.156-.242-.37-.784-.512-1.159-.245-.833.591-.854 1.534-.754 2.45.054.456.399.825.881.801ZM884.422 257.402c.25-.162.36-.378.372-.606-.374.299-.731.609-1.085.932a.872.872 0 0 0 .426-.138l.287-.188ZM846.101 249.293c.002.008 0 .008.002.012.005-.012.01-.016.023-.024-.012.005-.021.008-.025.012ZM904.794 271.359a20.522 20.522 0 0 0 2.457-.598c2.804-1.053 4.667-2.402 6.067-2.944 0 .075-.007.157-.012.229.54-.288 1.029-.543 1.47-.712-.189 6.854-2.022 14.932-5.605 20.662 1.885-2.271 3.093-5.156 3.928-8.273l.318-.48c-.066.008-.141.028-.204.035.148-.562.279-1.136.403-1.714.088-.003.187.004.283.009.061-.594.152-1.183.287-1.757a.749.749 0 0 1 .01-.378c.137-.492.227-.978.302-1.482l-.237.158c.096-.617.201-1.239.289-1.855.051.02.1.043.149.074.132-1.56.195-3.144.521-4.685.166-1.112.339-2.177.542-3.183-.4-.318-.781-.193-1.403.102-.166.074-.326.153-.493.224-.008.062-.024.129-.032.193-.918.495-2.012 1.131-3.349 1.737a7.3 7.3 0 0 0-.328.519c-1.55 1.288-3.199 3.313-5.363 4.119ZM893.852 254.521c.875-.889 3.608-1.895 5.952-3.2 7.063-1.006 11.782.004 16.668-.299.349-1.072.722-2.118 1.212-3.03-5.095.475-9.881-.668-17.125.307-1.205 1.171-3.5 2.452-5.846 5.062-.285.373-.576.742-.861 1.16Z" style="fill:#8a9d3b;fill-rule:nonzero" transform="translate(-427 -186.345) scale(4.16667)"/>
  <path d="M817.86 271.213a3.92 3.92 0 0 1 .767-.361c.039.027.069.046.114.071.843.377 1.541.892 2.169 1.458.344-1.011.738-2.1 1.149-3.173a1.61 1.61 0 0 1 .013-.117 10.8 10.8 0 0 1 .698-2.331.791.791 0 0 1 .047.338c.029-.036.086-.047.126-.078.774-1.801 1.569-3.334 2.277-3.978 3.451-3.137 5.153-4.685 9.585-13.277.19.557.334 1.163.501 1.744.035-.07.073-.137.106-.203 1.077 3.14 1.671 6.708 1.727 10.647.484-1.683 1.366-3.989 2.923-6.175.544-2.425 1.627-4.618 3.177-6.681.218-.283.504-.331.75-.232a21.825 21.825 0 0 1 3.212-1.749.713.713 0 0 1 .547-.224.266.266 0 0 1 .058-.02c-.163-.366-.074-.845.421-.971 1.198-.322 1.91-1.171 2.631-2.122.162-.209.356-.28.551-.267h.002c.1-.189.252-.347.45-.485.259-.172.582-.093.818.087.408-.436.79-.865 1.096-1.269.427 1.245.625 2.441.679 3.596.303 1.781.206 3.467-.246 5.071.005.004.015.007.019.011.202.307.13.649-.092.893a2.22 2.22 0 0 0-.053.239c-.024.114-.12.189-.201.275 1.977-.923 4.072-.919 4.443-3.164-.518.378-1.064.72-1.615 1.054.065-.248.137-.491.198-.739.05-.216.074-.421.084-.621.457-.307.913-.629 1.365-.943-.008-.138-.014-.268-.03-.417 3.58-1.997 9.483-5.959 14.301-10.593 1.011 3.004.608 5.935.493 6.56 6.879-2.499 17.485-.224 26.26 3.117.25-.201.517-.405.746-.582a.711.711 0 0 1 .394-.569c.196-.111.399-.205.604-.299.404-.263.648-.649.785-1.105-.057-.027-.113-.059-.179-.082-1.165-.409-2.334-.841-3.519-1.27.016-.089-1.687-.786-1.73-.617a55.729 55.729 0 0 0-1.132-.389c-4.926-2.017-9.37-3.463-13.786-2.944-1.795-.063-3.6.13-5.379.55.02-.998-.567-1.726-1.345-2.087-.06-.291-.128-.562-.196-.844a9.438 9.438 0 0 0-.467-2.469c-.018.015-.036.028-.051.043a.579.579 0 0 0-.164-.268c-.17-.64-1.029-1.088-1.573-.424a131.425 131.425 0 0 1-3.318 3.774.884.884 0 0 1-.37.868.814.814 0 0 1-.528.13c-.047.047-.092.106-.145.153a.733.733 0 0 1 .092.334c.018.472-.343.834-.8.873-.147.016-.296.012-.444.012-.198.204-.391.409-.588.609-.463.303-.915.594-1.361.876a1.327 1.327 0 0 1-.102.15c-.146.188-.396.294-.643.315-.464.282-.916.557-1.356.829a.867.867 0 0 1-.193.711c-.316.35-.801.35-1.158.086l-.202.115c.15.184.218.42.167.687-.092.421-.558.775-.998.641a2.01 2.01 0 0 1-.756-.421c-.009.008-.018.012-.028.02a.792.792 0 0 1 .051.507.828.828 0 0 1-.934.649c.028.338.022.663.012.998-.676.491-1.369.975-2.065 1.45-.333-.656-.935-1.128-1.633-1.367.01-.091.007-.178 0-.256.041-.401.075-.802.086-1.203.059-.023.118-.043.169-.059a30.658 30.658 0 0 0-.056-1.796c-.058-.043-.109-.078-.165-.118a15.53 15.53 0 0 0-.314-2.169c.068.019.134.05.201.086.01.007.02.007.02.007a12.506 12.506 0 0 0-.458-1.843c-.065.083-.138.173-.202.252-.315-.593-1.327-.243-1.093.456-.002.004-.002.007 0 .007-2.315 4.949-7.914 6.458-11.379 10.44-.343.388-.652.81-.938 1.242l-.17.126c.021.008.045.012.072.02-1.507 2.346-2.319 5.219-3.193 7.975-.037-.013-.076-.013-.112-.017-.008-.089-.008-.192-.014-.287.178-3.399-.483-6.815-1.621-10.05a.58.58 0 0 0-.266-.318 21.122 21.122 0 0 0-.459-1.541c-1.736 3.373-3.054 5.657-4.222 7.382a.893.893 0 0 1-.416.597 28.169 28.169 0 0 1-1.118 1.443c-1.262 1.258-2.5 2.526-3.661 3.867-.024-.031-.06-.059-.085-.091a.9.9 0 0 1-.083.079c-.4.358-.782.743-1.154 1.168.061.071.131.134.19.2-.342.437-.686.893-1.011 1.353-.064-.063-.137-.126-.204-.185-.185.286-.373.612-.561.955.044.051.085.106.13.161a12.865 12.865 0 0 0-.897 1.619c-.014-.02-.03-.031-.042-.047-.076.181-.149.37-.222.558.012.008.018.008.023.012a17.223 17.223 0 0 0-1.111 3.796c.007.032.007.048.014.072a4.733 4.733 0 0 0-.765-.409c-.908-.472-1.901-.7-2.852-1.085a26.165 26.165 0 0 0-2.765-1.356c.513.873.898 1.764 1.181 2.669.118.475.149.955.212 1.426.719.445 1.26.775 1.72 1.07-.061-.295.031-.613.363-.822Zm60.025-31.456a7.65 7.65 0 0 1-.547.783c-.595.122-1.087.413-1.511.888l-.028-.075c.061-.397.118-.797.187-1.202a20.652 20.652 0 0 1 1.899-.394Zm-50.173 19.853a.987.987 0 0 1 .13.244.643.643 0 0 0-.257.294c-.131.249-.26.497-.395.744a1.54 1.54 0 0 0-.41-.236c.305-.354.616-.704.932-1.046Zm-9.635 10.911c.002.008-.053.023-.028-.004-.007 0-.022 0-.029-.003-.375.169-.826.078-1.061-.288a.432.432 0 0 1-.021-.031c-.032-.184-.064-.369-.101-.562.009-.07.033-.134.055-.2.485.2.977.369 1.468.554a.72.72 0 0 0 .003.574c-.068-.012-.147-.028-.224-.04-.006.005-.037 0-.062 0ZM813.578 285.925c.018.248.078.491.148.735.084-.197.153-.354.187-.464.129-.385.259-.778.379-1.168-.224.02-.445.095-.582.28.128-.57.249-1.136.378-1.706.098-.436.449-.598.793-.566.68-2.508 1.076-5.055.859-7.547-.7 4.812-3.025 9.575-3.625 14.381-.005-.003-.011-.006-.014-.003a19.244 19.244 0 0 0-.252 1.788c.033.016.065.036.1.043.303-1.253.67-2.331 1.014-3.218.206-.845.42-1.699.615-2.555ZM892.451 310.05c.035.015.072.031.112.043.168-.228.343-.459.506-.688.633-.88 1.88.248 1.256 1.12-.015.024-.039.048-.054.071.806.212 1.743.468 2.855.857.892-.338 1.804-.645 2.764-.857a.718.718 0 0 0 .52-.42c.155-.036.32-.087.478-.13-.13-.106-.258-.224-.392-.33-.022-.323-.177-.633-.471-.782a71.467 71.467 0 0 0-2.836-1.361c-.197-.094-.423-.176-.623-.274-1.874 1.151-3.482 2.024-4.574 2.307.14.173.296.31.459.444ZM906.93 294.493c1.284.22 2.563.535 3.779 1.113.83-.362 1.685-.66 2.583-.85 1.006-.212.695-1.874-.307-1.756-.426.042-.909-.027-1.416-.146-1.583-.856-3.276-1.21-4.98-1.462a.074.074 0 0 0-.042-.012c-.963 1.006-2.007 1.871-3.146 2.527 1.179.162 2.37.307 3.529.586Zm-.063-.291c-.253.008-.503.008-.753.016-.133.008-.279.004-.437.004.289-.291.842-.302 1.19-.02ZM802.322 319.578c.192-.154.433-.253.691-.205.026.012.043.036.073.047.352-.083.704-.165 1.064-.268-.133-.361-.05-.778.302-1.005.368-.236.937-.146 1.161.251.05.083.051.181.093.267.17-.066.349-.137.522-.2.014-.146-.021-.291.008-.436.16-.857 1.23-.802 1.562-.201.354-.165.72-.33 1.072-.503.009-.102.021-.196.037-.294.135-.712.894-.763 1.337-.413a49.058 49.058 0 0 0 1.687-.956.737.737 0 0 1 .714-.424 52.015 52.015 0 0 0 4.986-3.482c-.291-.649-.226-.657-.401-1.321-.205-.216-.36-.432-.553-.652-4.042 2.994-9.397 6.009-14.395 7.082a.764.764 0 0 1-.432.083c-1.318.252-2.608.369-3.834.31-1.204.594-1.993 1.576-1.182 2.705.057.015.109.031.163.046.182-.101.378-.18.615-.216 1.481.205 3.069.106 4.71-.215ZM856.898 334.101c.257.227.526.432.778.675.202.201.493.252.762.197.026.032.051.063.077.098-.004-.039 0-.079-.002-.117.393-.111.719-.449.664-.893a33.424 33.424 0 0 0-1.361-5.994 153.37 153.37 0 0 1-2.345-.205c1.062 3.008 1.062 4.402 1.427 6.239ZM875.809 321.213c.801.503 1.48.896 2.072 1.218.155-.707 1.332-.939 1.625-.075.068.205.129.409.189.61-.205.027-.415.062-.618.094 1.164.585 1.953.92 2.856 1.532.846.009 1.694.063 2.552.233 1.036.208 1.48-1.18.598-1.686-1.362-.783-2.714-1.589-4.068-2.386-.142-.103-.282-.209-.428-.319-.079-.019-.15-.047-.229-.071-.115-.067-.239-.133-.357-.204a84.065 84.065 0 0 1-4.192 1.054Z" style="fill:#8a9d3b;fill-rule:nonzero" transform="translate(-427 -186.345) scale(4.16667)"/>
  <path d="M820.689 273.017c.033-.094.066-.188.099-.287-.63-.538-1.31-.542-2.012-.101-.07.038-.131.049-.201.074l.52.322c.152-.11.303-.224.461-.33.472-.307.914-.059 1.133.322ZM879.077 323.06c-.232.027-.462.063-.691.101 1.178.677 2.031 1.09 2.762 1.451.266-.008.525-.02.785-.02-.903-.612-1.692-.947-2.856-1.532ZM894.183 310.718c-.084.04-.17.086-.257.134.733.247 1.635.468 2.726.782.158-.063.315-.122.474-.181a36.062 36.062 0 0 0-2.855-.857 4.65 4.65 0 0 1-.088.122ZM852.885 251.986c-.169.322-.342.648-.535.958.334-.31.694-.562 1.063-.769-.068.006-.131.054-.194.038-.139-.032-.238-.129-.334-.227ZM892.563 310.093c-.04-.012-.077-.028-.112-.043.027.024.051.063.078.082.016-.008.022-.027.034-.039ZM877.91 322.883c-.005-.004-.002-.012-.01-.02a.803.803 0 0 1-.019-.432 38.15 38.15 0 0 1-2.072-1.218c-.24.058-.409.09-.409.09a50.608 50.608 0 0 0 2.51 1.58ZM899.772 248.562c-1.435 1.085-3.273 2.507-5.059 4.799 2.346-2.61 4.641-3.891 5.846-5.062-.121.011-.236.019-.36.039-.137.078-.282.149-.427.224ZM802.669 319.664c-.157 0-.316.011-.475.007.035-.043.084-.055.128-.093-1.641.321-3.229.42-4.71.215a1.793 1.793 0 0 0-.615.216c.291.095.582.169.873.244 1.531.052 3.15-.177 4.799-.589ZM913.318 267.817c-1.4.542-3.263 1.891-6.067 2.944 2.662-.798 4.58-1.918 6.055-2.715.005-.072.012-.154.012-.229ZM906.93 294.493c-1.159-.279-2.35-.424-3.529-.586-.018.009-.034.024-.052.032 1.184.217 2.39.35 3.581.554ZM806.23 318.5c-.002-.011-.006-.023-.002-.035-.173.063-.352.134-.522.2a.04.04 0 0 0 .005.028c.174-.063.348-.122.519-.193ZM804.159 319.24c-.008-.012-.008-.016 0 0 .006-.005.01-.009.016-.009a.164.164 0 0 1-.025-.079c-.36.103-.712.185-1.064.268.059.02.1.063.155.098.308-.082.609-.184.918-.278ZM836.599 264.331c.006 0 .145-.971.54-2.378-.056-3.939-.65-7.507-1.727-10.647-.033.066-.071.133-.106.203 1.069 3.79 1.56 8.051 1.293 12.822ZM854.152 249.108a.742.742 0 0 1-.216 1.011l-.149.09-.003.004a.72.72 0 0 1 .424.299c.452-1.604.549-3.29.246-5.071a11.888 11.888 0 0 1-.384 3.609c.02.031.061.023.082.058ZM817.631 311.756a52.015 52.015 0 0 1-4.986 3.482c.053-.003.11.02.169.035.361-.216.719-.44 1.072-.66.179-.153.372-.279.543-.44a.74.74 0 0 1 .462-.204 54.519 54.519 0 0 0 3.366-2.441c-.285-.633-.212-.641-.381-1.282-.261-.275-.467-.554-.705-.829-.166.122-.322.248-.494.366.193.22.348.436.553.652.175.664.11.672.401 1.321ZM811.973 293.569c-.069-.035-.138-.078-.21-.114-.009.779.033 1.592.143 2.426.103.007.209.019.31.034.016.095.04.19.057.28.079-1.879.415-3.577.83-5.003-.386-.067-.713-.39-.584-.877.165-.602.297-1.218.444-1.835a25.335 25.335 0 0 0-1.014 3.218c.002.004.004.004.008.009-.021.632-.014 1.249.016 1.862ZM814.931 283.036a.563.563 0 0 1 .025-.079c.045.028.088.051.138.075 0 0-.006.008-.003.008-.129.727-.061 1.544.169 2.287-.014.063-.029.126-.041.189 1.37-4.174 2.18-8.529.704-12.574 0 .853-.061 1.698-.183 2.547.217 2.492-.179 5.039-.859 7.547.016.004.034 0 .05 0Zm1.051-3.443c.235.251.326.609.157.951-.11.217-.328.362-.57.42.147-.455.283-.915.413-1.371ZM852.667 244.238c.001.067.007.13.012.193.033.322-.195.609-.48.712-.006.008-.002.015-.004.018a.078.078 0 0 1-.015-.01.487.487 0 0 1-.194.039.607.607 0 0 1-.344-.071c-.406.507-.843.974-1.345 1.349a.835.835 0 0 1 .212.604c1.399-1.293 2.639-2.503 3.469-3.573.222.661.365 1.301.476 1.942a12.813 12.813 0 0 0-.679-3.596c-.306.404-.688.833-1.096 1.269.061.051.145.067.19.134a.735.735 0 0 1-.202.99ZM848.632 248.597a.72.72 0 0 1-.916-.11c-.04.016-.073.028-.11.052.055.055.109.106.155.176.227.318.109.79-.216 1.007a.746.746 0 0 1-1.008-.217c-.01-.007-.01-.012-.01-.012-.029-.023-.044-.046-.073-.07l-.062-.044a.185.185 0 0 1-.04-.027 3.62 3.62 0 0 0-.181-.102.172.172 0 0 0-.045.031c-.013.008-.018.012-.023.024a.71.71 0 0 1 .32.746c-.081.37-.485.668-.871.562-.043-.016-.094-.031-.133-.046a.783.783 0 0 1-.228.644 1.667 1.667 0 0 0-.177-.059c-.359-.126-.763.192-.831.542a.66.66 0 0 0 .234.661c-.044.007-.095.02-.146.023.063.091.12.184.187.28 1.759-1.726 3.639-3.385 5.325-4.918a10.75 10.75 0 0 0-.815.26.765.765 0 0 1-.336.597Z" style="fill:#8a9d3b;fill-rule:nonzero" transform="translate(-427 -186.345) scale(4.16667)"/>
  <path d="M818.802 273.265c.092-.087.191-.169.293-.24l-.52-.322c-.516.165-.98-.212-1.078-.668-.46-.295-1.001-.625-1.72-1.07.025.162.057.326.071.488 1.452.884 2.221 1.356 2.954 1.812ZM874.549 320.411c.457.298.865.557 1.26.802a84.065 84.065 0 0 0 4.192-1.054c-.448-.263-.902-.519-1.348-.778-2.467.676-4.104 1.03-4.104 1.03ZM820.84 272.758c-.016-.012-.034-.016-.052-.028-.033.099-.066.193-.099.287.121.208.188.436.117.661.272-.043.531-.043.797-.047.28-.799.584-1.647.917-2.512l-.515-.79a.67.67 0 0 1 .014-.783c.008-.118.022-.228.04-.338a90.604 90.604 0 0 0-1.149 3.173c.208.188.438.357.629.573-.222.055-.467.008-.699-.196ZM873.12 243.067c.115-.625.518-3.556-.493-6.56-4.818 4.634-10.721 8.596-14.301 10.593.016.149.022.279.03.417.104-.071.2-.142.3-.21-.076.493-.19.98-.324 1.456 0 0-.006 0-.008.003-.371 2.245-2.466 2.241-4.443 3.164a.621.621 0 0 1-.262.205c-.022.051-.049.103-.07.153.485-.071.963.33.809.841.496-.209.993-.373 1.463-.538.085-.205.165-.41.235-.622.235.158.522.221.824.154-.006.015-.018.027-.025.043 1.077-.542 1.784-1.415 1.525-3.604 2.556-1.431 6.323-3.887 10.012-6.859.169-.314.339-.624.515-.939a.668.668 0 0 1 .538-.37.76.76 0 0 1 .268-.113.759.759 0 0 1 .116-.806c.282-.311.709-.295 1.03-.059-.142-.106-.009-.004.032.012.042.003.091.016.134.027.468-.413.928-.825 1.378-1.262.962 2.909.552 5.754.438 6.359 3.397-1.245 7.723-1.304 12.272-.659.53-.197 1.104-.185 1.456.223 3.869.669 7.833 1.817 11.5 3.165.452-.405.892-.77 1.311-1.097-8.775-3.341-19.381-5.616-26.26-3.117ZM855.07 326.9c1.173 3.396.98 4.658 1.552 6.961.091.078.181.161.276.24-.365-1.837-.365-3.231-1.427-6.239.735.072 1.529.138 2.345.205-.103-.323-.199-.656-.313-.971-.845-.067-1.682-.125-2.433-.196ZM812.211 297.634c.021.086.061.18.08.263-.008-.083-.006-.157-.006-.232-.028-.016-.053-.024-.074-.031ZM838.326 261.057a2.03 2.03 0 0 0-.019-.142c.578-1.619 1.098-3.266 1.682-4.881.019-.087.049-.169.073-.256-1.557 2.186-2.439 4.492-2.923 6.175a46.711 46.711 0 0 1-.064 3.466c.005-.007.269-1.929 1.251-4.362ZM814.172 287.815c-.458-.094-1.022.169-1.014.787.006.593.092 1.183.201 1.76.606-1.839 1.277-3.132 1.439-3.596.126-.346.235-.704.352-1.045-.025-.531-.451-.728-.858-.693-.12.39-.25.783-.379 1.168-.034.11-.103.267-.187.464.108.393.251.786.446 1.155ZM914.776 267.334c-.441.169-.93.424-1.47.712-.376 9.562-4.063 21.511-11.31 25.649.466.079.935.146 1.405.212 1.139-.656 2.183-1.521 3.146-2.527-.361-.102-.73-.192-1.095-.299 1.482-.793 2.696-1.851 3.719-3.085 3.583-5.73 5.416-13.808 5.605-20.662ZM823.827 265.683c.198-.342.603-.507.978-.322.089.043.128.142.189.22.344-.574.672-1.062.991-1.349 3.037-2.751 4.7-4.256 8.177-10.592a.953.953 0 0 1 .259-.475c.283-.519.576-1.066.885-1.656-.167-.581-.311-1.187-.501-1.744-4.432 8.592-6.134 10.14-9.585 13.277-.708.644-1.503 2.177-2.277 3.978.086-.072.174-.15.285-.173.209-.382.379-.787.599-1.164ZM811.86 315.819c.016-.063.046-.106.071-.157-.554.33-1.12.648-1.687.956a.348.348 0 0 1 .051.047c.531-.271 1.048-.55 1.565-.846ZM908.819 267.755c-1.525 1.257-3.144 3.234-5.265 4.036a20.996 20.996 0 0 0 3.697-1.03c-.763.233-1.563.44-2.457.598 2.164-.806 3.813-2.831 5.363-4.119a7.3 7.3 0 0 1 .328-.519 27.68 27.68 0 0 1-1.375.574c-.147.224-.264.397-.291.46ZM890.816 308.957c.43.531.969.846 1.635 1.093a3.096 3.096 0 0 1-.459-.444c1.092-.283 2.7-1.156 4.574-2.307-.417-.201-.861-.393-1.303-.59-1.824 1.125-3.384 1.969-4.447 2.248ZM807.859 317.82c.336-.149.672-.299 1.001-.456.006-.015.007-.027.01-.039-.352.173-.718.338-1.072.503 0 .004.009.004.011.008.013-.008.032-.02.05-.016ZM842.99 254.155c.336-.35.663-.703 1.008-1.05-.122-.067-.239-.134-.358-.195-.802-.417-1.426.817-.65 1.245ZM910.232 295.853c.161-.078.313-.173.477-.247-1.216-.578-2.495-.893-3.779-1.113 1.136.275 2.25.684 3.302 1.36ZM893.852 254.521c.285-.418.576-.787.861-1.16-.578.641-1.16 1.34-1.722 2.166.859-.869 3.533-1.863 5.829-3.137 7.279-1.081 12.002.055 17.064-.448-1.303 2.385-1.912 5.562-2.869 8.388.713-1.214 1.389-2.485 1.713-3.447.641-1.902 1.13-3.955 1.744-5.861-4.886.303-9.605-.707-16.668.299-2.344 1.305-5.077 2.311-5.952 3.2Z" style="fill:#8a9d3b;fill-rule:nonzero" transform="translate(-427 -186.345) scale(4.16667)"/>
  <path d="M870.794 240.901c.001-.003.001-.003-.002-.003l.002.003ZM813.886 314.613c-.353.22-.711.444-1.072.66.065.008.133.016.2.047.301-.216.586-.463.872-.707ZM808.86 317.364c-.329.157-.665.307-1.001.456.335-.117.666-.236.995-.361.002-.032.007-.063.006-.095ZM811.806 316.079l.029-.204c.007-.024.02-.035.025-.056-.517.296-1.034.575-1.565.846.046.047.112.071.151.129.468-.216.915-.459 1.36-.715ZM804.175 319.231c-.006 0-.01.004-.016.009.004.006.016.023.042.07-.017-.028-.015-.052-.026-.079Z" style="fill:#8a9d3b;fill-rule:nonzero" transform="translate(-427 -186.345) scale(4.16667)"/>
  <path d="M240.136 187.416c-18.587 18.524-29.811 37.277-24.227 48.214 5.685 11.093 19.801 7.28 19.797 7.291-.025-1.517-.053-3.03-.078-4.543-3.726-9.15 3.844-22.95 16.39-35.295 9.436 12.636 18.386 25.21 26.664 37.787-.921.68-1.732 1.324-2.406 1.938-11.422 10.117-17.949 21.916-13.914 28.696 4.025 6.792 8.569 10.03 22.793 7.601 4.811-.809 9.287-3.206 13.124-6.001 14.471 26.177 25.49 52.786 31.78 81.01-7.577 5.861-15.771 10.541-24.407 13.438-25.031 8.403-58.406 16.292-55.219-9.971 3.282-26.177 15.954-23.866 19.767-22.172 3.822 1.71 5.366 7.515 5.366 7.515-.002-.023 20.114-10.73 16.764-21.318-3.354-10.597-18.145-20.474-39.558-10.239-21.47 10.171-40.203 40.963-27.558 63.759 12.776 22.904 54.01 44.222 98.337 24.566 54.893-25.481 146.37-109.907 121.003-159.835-10.641-20.498-37.59-27.817-74.778-27.617 20.52-22.226 26.504-52.82 18.291-66.503-8.228-13.646-20.011-18.469-46.239-16.393-18.07 1.423-43.164 13.237-66.23 28.995l-35.462 29.077Zm445.752 4.756c.455-3.353.312-7.547-2.833-8.612-5.458-1.827-10.224 1.132-8.107 5.106 1.872 3.518 5.433 8.851 9.533 10.423.764-4.119 1.122-6.96 1.122-6.96.095.016.188.027.285.043Zm-206.3-61.296c-52.068-2.263-42.238 32.285 9.452 22.958 69.54-13.206 225.147-78.569 326.611-60.049 65.865 12.353 100.422 69.199 51.973 92.515a190.074 190.074 0 0 1-17.439 7.526c-21.675 53.238-78.444 131.662-141.638 139.893-26.418 3.27-50.768-6.203-52.431-20.902-4.147-35.669 44.107-73.217 75.261-100.97-.016-.004-22.726 3.519-40.315 2.902-11.219 25.932-50.149 96.81-85.778 102.938-16.789 2.759-29.594.019-39.073-6.324-31.225 17.097-73.758 17.306-99.835-9.551-11.346 6.315-19.297 10.172-19.299 10.168l-3.686-3.475c.002.004 8.049-5.279 18.335-12.711-11.743-19.02-8.473-50.514-1.183-66.008 8.06-17.282 25.248-38.624 48.95-44.076 23.651-5.483 44.031-2.826 47.826 12.499 5.577 23.508-36.919 67.081-55.927 81.789.024 28.707 19.25 44.28 55.123 23.787l.824-.472c-31.66-37.658-.018-130.475 66.998-103.969 4.75 1.88 10.245 5.445 10.24 15.274-.142 26.378-27.636 58.033-49.458 77.954 1.741 3.037 4.18 5.435 7.42 6.928 35.902 16.583 80.959-66.393 88.234-85.781-17.291-3.31-30.556-15.286-27.854-27.015 2.712-11.728 12.176-18.359 21.077-19.101 8.893-.744 19.098.998 23.675 9.727 4.497 8.585.857 17.754.749 18.049-.444 1.345-1.279 3.699-2.425 6.784 3.058.555 7.103.822 12.89.295 14.536-1.361 31.534-5.731 31.544-5.727a6965.46 6965.46 0 0 0 55.248 24.747c4.828 2.589-137.863 102.69-67.765 85.31 48.374-12.543 82.968-56.347 97.214-87.96 2.6-5.88 4.612-12.569 6.148-19.145-57.61 14.409-91.574-24.464-76.269-52.9 4.616-8.262 15.168-16.26 27.325-20.611 39.868-13.997 80.56 16.586 74.31 46.363 33.666-20.615 3.821-52.534-44.764-57.957-62.651-6.817-138.284 17.639-205.089 39.366-67.446 21.571-126.059 40.414-169.542 18.67-54.149-27.203 12.388-84.072 42.343-41.738Zm328.055 48.439c9.218 2.232 18.611 2.253 27.104.893 1.153-8.994-2.035-23.933-10.539-32.608-24.469-24.703-57.871 21.799-16.565 31.715Zm-194.578 39.548c-15.392-2.228-35.091 39.596-31.008 64.468 5.566-6.269 49.159-61.831 31.008-64.468Zm-109.902 41.191c6.421-6.968 39.35-40.035 32.966-50.459-2.333-3.765-8.297-3.713-13.225 1.234-9.064 9.068-16.524 29.388-19.741 49.225ZM332.965 217.55a216.075 216.075 0 0 0-19.173 6.002c-7.139-15.457-15.305-30.629-24.309-44.909 7.267-2.72 14.454-4.229 20.964-4.029 30.938.995 35.166 19.735 22.536 42.905l-.018.031Zm-7.731 33.118c9.064-7.035 19.241-15.163 28.268-23.017 43.775 4.262 29.773 68.383-5.836 109.649-3.209-26.146-10.829-56.309-22.432-86.632Zm-39.254 1.58a541.478 541.478 0 0 1 5.782 9.496c-4.532 2.245-10.451 4.446-12.161 1.514-1.401-2.441 1.469-6.623 6.379-11.01ZM329.801 493.335c12.42-.508 30.967 7.931 22.914 19.105-8.014 11.202-19.031 20.427-39.623 20.576 18.837 35.507 112.71-68.048 84.599-71.718-4.477-.728-8.739 1.045-13.528 3.67-12.324 6.647-44.064 24.609-57.127 9.87-20.332-22.833 57.674-62.572 82.568-67.745 16.447-3.73 34.158-5.079 34.031 3.792-.126 8.868-19.684 15.093-19.676 15.106-.008-.005 5.276-6.192-7.244-5.578-35.359 1.45-72.179 38.534-51.811 38.275 11.028-.232 36.871-14.386 48.816-18.851 11.891-4.528 25.861-8.729 31.923.606 16.826 26.71-75.964 146.035-142.196 103.646-4.674-2.964-7.407-6.835-8.151-11.56-81.254-5.279-74.978-83.676-32.23-74.71 10.569 2.202 13.403 8.804 11.611 15.242-1.801 6.442-7.728 11.937-7.724 11.937 0 0-2.445-12.075-7.697-12.043-16.341-.008-27.944 47.806 37.018 49.65a37.374 37.374 0 0 1 1.843-4.752c4.34-9.449 15.651-23.851 31.684-24.518Z" style="fill:#f7b018;fill-rule:nonzero" transform="translate(-427 -186.345) scale(4.16667)"/>
  <path d="M598.025 393.277c-5.619-.715-11.975-1.285-19.085-1.722-7.123-.428-14.982-.715-23.606-.852-6.63-.111-13.765.007-21.394.365-7.64.362-15.768.801-24.396 1.305a1736.1 1736.1 0 0 0-14.941 29.612 518.868 518.868 0 0 0-14.663 32.485c-4.447 10.833-16.822 44.296-19.613 53.768-2.79 9.485-4.143 17.264-4.076 23.277.068 6.344 2.65 9.472 7.751 9.351 5.413-.131 12.224-3.57 20.509-10.2 8.278-6.626 15.803-17.396 22.626-32.127.318-.17.642-.335.965-.5.961-.008 1.929.468 2.886 1.435.319.322.643.645.965.971-3.293 11.091-6.842 20.096-10.695 26.916-3.853 6.83-9.048 13.241-15.548 19.223-6.505 5.991-14.645 9.166-24.474 9.438-2.532.074-5.228-.268-8.094-1.027-2.863-.766-5.583-2.291-8.151-4.587-2.575-2.275-4.776-5.34-6.599-9.17-1.812-3.815-2.783-8.768-2.897-14.793-.133-7.048.669-15.089 2.439-24.106 1.758-9.012 12.779-41.662 15.523-51.422a407.874 407.874 0 0 1 9.268-28.845c3.439-9.477 6.909-18.403 10.422-26.814-3.304 1.258-6.46 2.04-9.454 2.323a79.492 79.492 0 0 1-8.495.385c-9.677-.125-17.526-2.504-23.583-7.208-6.056-4.697-9.233-9.877-9.461-15.51-.315-7.594 4.511-13.945 14.547-18.944 3.07.082 5.299.632 6.694 1.65 1.394 1.018 2.099 1.863 2.12 2.512.036.986-.46 1.462-1.48 1.442-.679-.019-1.281-.279-1.807-.786-.525-.499-1.471-.77-2.834-.806-1.698-.043-3.548.574-5.534 1.843-1.995 1.266-2.912 3.876-2.76 7.834.256 6.595 4.941 9.972 14.032 10.129 4.721.09 9.994-.555 15.844-1.915 5.845-1.356 13.285-3.081 22.313-5.161 1.949-4.165 4.052-9.047 6.335-14.647a2472.125 2472.125 0 0 0 6.378-15.794c1.969-4.932 4.102-10.906 6.416-17.915 1.362.044 3.683.85 6.945 2.418 3.267 1.556 6.434 3.517 9.507 5.864a43.593 43.593 0 0 1 8.171 8.18c2.371 3.112 3.555 6.249 3.543 9.437-.004 2.562-.513 4.932-1.529 7.137-1.018 2.209-2.366 4.728-4.044 7.563 12.416-1.628 23.926-2.69 34.511-3.22 10.579-.526 20.238-.679 28.969-.463 12.081.298 21.963 1.104 29.644 2.37 7.678 1.281 12.836 2.252 15.503 2.936 3.288 1.32 6.224 3.088 8.795 5.306 2.244 1.906 4.296 4.343 6.137 7.31 1.843 2.972 2.63 6.765 2.37 11.383-.019.311-.145 1.155-.388 2.539-.248 1.384-.49 2.85-.748 4.386-.249 1.545-.658 2.929-1.214 4.151-.56 1.231-1.187 1.836-1.844 1.824-.992-.012-2.301-.417-3.908-1.203-1.624-.798-4.141-1.769-7.559-2.908-3.427-1.129-8.092-2.288-14.006-3.475-5.913-1.179-13.665-2.158-23.248-2.948Z" style="fill:#f7b018;fill-rule:nonzero" transform="translate(-427 -186.345) scale(4.16667)"/>
  <path d="M609.13 447.006c.276 1.612.394 3.145.338 4.591-.055 1.454-.11 2.991-.171 4.606-.439 11.616-3.492 22.715-9.073 33.346-5.591 10.64-11.143 19.331-16.665 26.012 1.312.645 3.305.943 5.986.916 3.006-.043 5.863-.645 8.576-1.836a59.793 59.793 0 0 0 7.673-4.024c2.389-1.506 7.959-5.908 9.688-7.079 1.717-1.156 3.085-1.742 4.097-1.753 1.004-.004 1.476.81 1.413 2.445-.055 1.309-.715 3.191-1.977 5.659-1.278 2.473-6.717 8.034-9.315 10.538-2.59 2.503-6.176 4.697-10.73 6.58-4.565 1.887-9.999 2.888-16.321 2.991-4 .067-8.138-.692-12.427-2.3-1.725 2.367-5.715 5.845-11.946 10.503-6.248 4.657-13.492 7.098-21.784 7.287-6.961.152-12.833-1.238-17.622-4.194-4.79-2.948-8.677-6.769-11.66-11.469a56.195 56.195 0 0 1-6.73-15.117c-1.509-5.384-2.263-10.612-2.263-15.658-.007-13.128 2.166-24.771 6.593-34.939 4.416-10.156 9.483-18.834 15.19-26.054 5.703-7.216 11.35-12.818 16.928-16.85 5.565-4.021 9.419-6.324 11.512-6.957.684.008 1.637.432 2.84 1.265 1.197.835 3.154 3.389 5.852 7.658 2.8-1.919 5.951-3.672 9.448-5.248 3.49-1.569 8.013-2.319 13.565-2.237 5.536.084 10.186 1.364 13.925 3.837 3.724 2.468 6.649 5.333 8.783 8.576 2.135 3.243 3.726 6.639 4.799 10.184 1.067 3.56 1.565 6.466 1.478 8.721Zm-70.96 85.778c1.671-.031 4.167-.75 7.531-2.153 3.34-1.396 7.392-4.332 12.157-8.734-8.581-5.215-14.237-12.49-16.964-21.79-2.732-9.288-4.066-18.406-3.966-27.333.024-1.985.118-4.048.318-6.19.2-2.158.473-4.214.837-6.194-5.865 5.927-10.77 12.723-14.708 20.387-3.953 7.68-5.935 16.048-5.99 25.107-.055 9.06 1.737 15.702 5.373 19.853 3.632 4.151 8.766 6.501 15.412 7.047Zm43.821-51.748c.731-1.969 1.297-4.087 1.697-6.379a47.21 47.21 0 0 0 .706-6.851c.135-4.877.088-9.432-.132-13.666-.22-4.217-1.352-6.658-3.39-7.326-2.741-.016-5.347 1.265-7.792 3.856-2.457 2.606-4.662 5.77-6.617 9.523-1.96 3.758-3.571 7.85-4.847 12.29-1.278 4.427-1.943 8.628-2.022 12.586-.07 3.631.516 8.245 1.737 13.855 1.232 5.616 3.843 9.075 7.83 10.349 2.759-3.668 5.22-7.818 7.351-12.444 2.137-4.63 3.962-9.893 5.479-15.793Z" style="fill:#f7b018;fill-rule:nonzero" transform="translate(-427 -186.345) scale(4.16667)"/>
  <path d="M726.684 468.84c.93.303 1.352.884 1.275 1.757-2.134 6.419-6.158 12.864-11.995 19.361-5.852 6.509-12.519 12.408-20.022 17.696-7.505 5.293-15.26 9.672-23.322 13.115-8.051 3.435-15.438 5.248-22.195 5.369-7.08.126-13.075-1.214-18.015-4.029-4.955-2.81-9.04-6.414-12.263-10.789-3.227-4.37-5.581-9.303-7.092-14.758-1.496-5.46-2.164-10.75-1.977-15.895.674-18.753 5.727-35.535 15.438-50.313 9.699-14.776 24.763-25.002 45.254-30.781 2.972-.817 5.921-1.206 8.843-1.15 7.132.133 12.705 1.913 16.67 5.317 3.961 3.416 6.905 7.236 8.834 11.469 1.921 4.245 3.042 8.316 3.371 12.247.321 3.927.451 6.332.382 7.197-.258 3.208-.942 6.76-2.05 10.687a57.15 57.15 0 0 1-4.443 11.154c-1.864 3.502-4.293 6.435-7.305 8.777-3.018 2.351-6.407 3.522-10.184 3.518-2.537 0-5.029-.283-7.507-.885a189.66 189.66 0 0 1-6.969-1.772 2033.83 2033.83 0 0 1-7.407-2.673c3.703-4.143 6.639-8.12 8.773-11.948 2.137-3.813 3.627-7.189 4.457-10.125 1.169-3.215 1.839-6.152 2.012-8.781.317-4.681-1.444-7.046-5.292-7.094-3.528-.036-7.716 1.529-12.53 4.72-4.824 3.195-9.593 7.354-14.3 12.511-4.71 5.157-8.709 11.084-11.991 17.797-3.302 6.717-5.078 13.549-5.375 20.466-.401 9.327 2.073 17.03 7.366 23.024 5.302 5.994 12.087 8.923 20.426 8.808 4.326-.058 8.539-.869 12.653-2.428a113.034 113.034 0 0 0 11.934-5.298c3.848-1.982 7.408-4.105 10.675-6.36 3.259-2.253 6.057-4.277 8.378-6.069 6.248-4.465 10.787-8.152 13.542-11.099 2.749-2.94 4.684-5.357 5.792-7.268 1.099-1.895 1.928-3.286 2.478-4.162.547-.877 1.773-1.317 3.681-1.313Z" style="fill:#f7b018;fill-rule:nonzero" transform="translate(-427 -186.345) scale(4.16667)"/>
  <path d="M899.881 517.475c8.301 6.242 11.628 14.173 10.156 23.882-.31 2.055-1.619 4.331-3.894 6.831-2.275 2.5-7.571 4.064-15.89 4.696-3.521.269-7.7.213-12.563-.152-4.87-.369-10.424-1.655-16.691-3.88-6.288-2.225-13.278-5.468-21.055-9.735-7.769-4.277-16.176-10.2-25.298-17.79-.923-.55-1.702-.959-2.333-1.214-.625-.275-1.751-.35-3.369-.248-2.914.185-6.839.885-11.75 2.107-4.915 1.227-11.96 3.191-21.071 5.947-9.114 2.739-20.709 6.375-34.696 10.95a5356.39 5356.39 0 0 0-52.389 17.369c-.002.315-3.811 1.973-11.386 4.983-7.575 3.015-17.493 6.721-29.721 11.167-12.229 4.441-26.133 9.245-41.713 14.44a1250.129 1250.129 0 0 1-47.787 14.861c-16.279 4.709-32.316 8.942-48.103 12.653-15.79 3.718-30.03 6.198-42.787 7.397-6.534.613-15.251 1.08-26.178 1.41-10.925.323-22.774-.232-35.572-1.659-12.816-1.43-25.749-4.087-38.903-7.939-13.151-3.864-25.39-9.476-36.8-16.839-4.08-2.086-7.787-4.9-11.111-8.442-2.924-2.885-5.606-6.312-8.052-10.293-2.439-3.978-4.038-8.915-4.774-14.775-.518-4.142-.381-8.332.409-12.582 9.606 7.909 21.869 14.516 36.699 19.837 12.848 4.783 29.24 8.644 49.119 11.568 19.892 2.924 44.406 3.078 73.676.535 16.37-1.423 34.238-3.99 53.66-7.657 16.911-3.128 34.598-6.933 53.095-11.414 15.994-3.946 33.648-8.552 53.041-13.757 19.393-5.203 38.786-11.209 58.262-17.934 1.907-.448 6.148-1.851 12.714-4.182 6.58-2.331 14.686-4.988 24.377-7.952 9.691-2.951 20.536-5.958 32.599-8.992 12.065-3.042 24.344-5.656 36.844-7.892-7.095-6.257-13.01-12.46-17.738-18.575-4.738-6.108-8.632-11.666-11.654-16.662-5.333 7.514-9.484 14.044-12.484 19.542-3.017 5.507-5.553 10.015-7.63 13.513-2.073 3.498-4.191 6.167-6.346 7.991-2.159 1.828-5.329 2.876-9.513 3.136-1.612.103-3.304.047-5.054-.153-1.765-.205-3.503-.947-5.236-2.237-1.73-1.289-3.125-3.458-4.179-6.492-1.041-3.035-1.507-7.189-1.367-12.449.275-10.199 2.557-22.608 6.996-37.13a499.3 499.3 0 0 1 15.447-43.263c5.87-14.338 11.836-27.38 17.872-39.183 6.023-11.791 10.492-19.927 13.235-24.451.372-.303 1.054-1.426 2.066-3.396 1.01-1.945 2.139-4.272 3.388-6.98a114.202 114.202 0 0 0 3.53-8.533c1.098-2.988 1.746-5.53 1.904-7.613.703-.012 2.604.554 5.713 1.686 3.097 1.127 6.336 2.633 9.733 4.496 3.378 1.864 6.378 4.096 8.993 6.706 2.599 2.605 3.771 5.388 3.51 8.344-.128 1.485-2.052 5.216-5.711 11.21-3.657 6.001-8.175 13.214-13.472 21.664a1181.815 1181.815 0 0 0-17.114 28.165 430.623 430.623 0 0 0-16.682 31.145c-5.042 10.432-9.293 20.372-12.797 29.805-3.526 9.442-5.359 17.57-5.603 24.322 10.37-17.423 21.115-32.202 32.149-44.544 11.019-12.33 21.186-22.458 30.297-30.504 9.112-8.033 19.401-15.903 30.897-23.618.67.271 1.495.692 2.493 1.25 1.973 1.119 2.932 1.969 2.879 2.563-6.785 5.506-12.487 10.494-17.158 14.936-4.663 4.441-9.512 9.357-14.501 14.73-4.992 5.389-9.341 10.695-13.045 15.918.672 9.835 4.586 20.234 11.614 31.146 7.016 10.914 14.889 21.409 23.577 31.427 1.149-.062 2.301-.125 3.453-.192a323.775 323.775 0 0 1 29.787 2.39c8.43 1.017 16.891 2.699 25.326 5.034 8.424 2.324 15.66 5.519 21.66 9.551Zm-17.944 25.859a20.603 20.603 0 0 0 8.469 1.159c3.542-.251 6.223-1.178 8.046-2.767a25.177 25.177 0 0 0 2.803-2.825c-.582-4.941-4.072-8.809-10.512-11.627-6.443-2.826-13.509-4.902-21.158-6.206-8.936-1.529-19.265-2.394-30.912-2.579 3.798 4.556 8.279 8.392 13.455 11.493 5.167 3.097 9.867 5.683 14.134 7.771 5.198 2.323 10.415 4.178 15.675 5.581Z" style="fill:#f7b018;fill-rule:nonzero" transform="translate(-427 -186.345) scale(4.16667)"/>
  <path d="M265.629 50.056c3.967 1.719-6.808 17.76-15.192 20.477-6.914 2.241-17.31-.306-17.834-9.248-.496-8.503 9.814-14.241 17.174-15.853-2.202 0-2.636-.581-6.605 0-4.285.549-9.261 2.02-13.211 7.266-9.053 8.548-10.835 17.872-11.229 17.835 3.759.358 8.804-2.623 26.297 5.643 4.268 2.148 6.522 3.954 11.354 10.209 0 .22 3.988 4.035 5.944 14.531-.517-2.938-.356-11.179-.356-14.481 0-1.542.31-8.705 1.017-15.902.097-7.477 9.369-17.428 11.889-19.816 1.551-1.682 2.642-2.642 2.642-2.642-4.041.582-8.159 1.089-11.89 1.981Z" style="fill:none;stroke:#8a9d3b;stroke-width:.4px" transform="translate(-427 -186.345) scale(4.16667)"/>
  <path d="M262.988 52.698c-2.978 6.024-9.136 16.017-19.155 15.192-14.712-1.212-5.879-21.487 7.926-19.156 2.176.468 4.222 1.063 6.605 1.322 1.377 1.045 2.689 2.153 4.624 2.642Zm-7.265 3.303c-.124-10.706-16.339-2.086-8.589 3.963 2.484 3.065 9.884 1.008 8.589-3.963Z" style="fill:#f7b018;fill-rule:nonzero" transform="translate(-427 -186.345) scale(4.16667)"/>
  <path d="M253.741 55.341c-.956-1.248-1.477-2.928-3.964-2.643 1.165 1.395 1.489 1.952.66 3.964-1.639.857-3.205-1.474-3.303 0 .198 1.344 1.325 1.759 1.982 2.641 3.254.391 5.088-.638 4.625-3.962Z" style="fill:#fff;fill-rule:nonzero" transform="translate(-427 -186.345) scale(4.16667)"/>
  <path d="M197.596 87.045c-3.101 3.065-5.53 6.8-8.587 9.908-.127.535-.662.659-.661 1.321-.661.88-1.089 1.993-1.982 2.642.703 1.499 4.152.251 5.944.661h17.175c10.749-2.241 21.643-4.338 29.063-9.908.868-.233 1.038-1.162 1.981-1.321 9.109-15.421-14.08-20.972-26.421-15.191-.663-.003-.785.534-1.321.66-4.607 2.877-9.252 5.718-13.21 9.246-.371.953-1.03 1.613-1.981 1.982Z" style="fill:#8a9d3b;fill-rule:nonzero" transform="translate(-427 -186.345) scale(4.16667)"/>
  <path d="M245.814 79.78c-.334 3.143.17 9.429-3.303 11.229-.37.95-1.03 1.612-1.982 1.982-4.606 3.318-9.498 6.353-16.512 7.264-5.039 5.309-9.443 11.254-14.532 16.514-.194 1.346-1.787 1.295-1.982 2.642 1.186.084 1.394-.809 2.643-.661.1-1.222 2.236-.405 2.641-1.321 1.6-.823 3.209-1.635 5.285-1.981 2.269-1.694 4.915-3.012 7.926-3.964.457-1.305 1.762-1.761 3.304-1.982 2.11-2.072 5.153-3.211 7.265-5.283-.648-2.435-2.402-3.763-3.964-5.285 1.484-1.009 3.245 3.335 5.285 3.963.535-.125.658-.662 1.32-.659h.661c3.49-3.555 6.547-7.545 8.586-12.551v-3.963c-1.483-.278-.017-3.504-1.321-3.963-.157-.942-1.086-1.114-1.32-1.981Z" style="fill:#8a9d3b;fill-rule:nonzero" transform="translate(-427 -186.345) scale(4.16667)"/>
  <path d="M255.062 89.687c-1.461-.962-1.309-3.536-3.303-3.963-.393 1.369.815 4.34-.661 4.624.28 1.381-.453 1.75-.661 2.643-2.306 4.076-4.336 8.434-8.586 10.567.121.561-.259.623-.661.661-5.503 5.724-12.606 9.852-20.477 13.21-.017.643-.808.513-1.32.661-2.711 2.132-6.288 3.398-9.908 4.623-.532.349-1.072.689-1.982.661-.879 1.322-2.932 1.471-4.623 1.982h-.661c-.434.886-1.412 1.229-2.642 1.321h-.66c-1.526.896-2.946 1.899-5.285 1.98 1.552 2.192 6.042 1.446 7.926 3.304h1.322c2.392.47 5.475.25 7.266 1.321h13.871c4.82-1.346 9.981-2.349 14.531-3.964.434-.886 1.412-1.23 2.642-1.32 5.018-3.13 8.99-7.303 13.211-11.229.126-.535.663-.659.661-1.321.987-.994 1.181-2.782 2.641-3.304v-.66c1.273-1.828 3.234-6.426 1.32-9.246-4.791 9.739-13.213 19.37-23.117 21.796 10.119-6.394 17.641-15.384 22.458-27.081-1.091-.01-.371-1.832-1.322-1.981-2.662 4.603-5.724 8.805-9.247 12.549a37.341 37.341 0 0 1-6.605 6.606c-1.868.993-2.814 2.91-5.284 3.302-3.051 2.894-7.137 4.753-11.889 5.945 4.489-2.999 9.302-5.67 13.21-9.247.535-.127.658-.663 1.321-.661a13.42 13.42 0 0 1 3.963-3.964c4.86-5.488 8.885-11.811 12.551-18.493v-1.322Z" style="fill:#f7b018;fill-rule:nonzero" transform="translate(-427 -186.345) scale(4.16667)"/>
  <path d="M187.027 94.972c1.225-2.971 6.893-4.979 5.944-7.927-2.029.173-2.969 1.434-4.623 1.983-2.271 1.693-4.915 3.01-7.927 3.963-1.38.38-1.884 1.637-3.963 1.32-.879 1.322-2.932 1.472-4.623 1.982-.844.036-.915.846-1.982.66-.558.982-2.126.956-3.302 1.321-.781.321-1.497.705-1.983 1.321 2.911-.048 4.55 1.175 6.606 1.982.96.362 3.413-.772 3.303.661 2.57-.196 5.225 1.71 7.266 0v-.661c1.711-2.032 2.874-4.611 5.284-5.944v-.661ZM209.485 112.144c3.873-2.078 8.056-7.345 9.247-9.906-3.299.443-5.476 2.009-8.586 2.641h-.661c-3.745 1.54-7.844 2.725-11.889 3.963-1.615.588-2.865 1.539-5.286 1.321-1.473 1.608-4.542 1.622-6.604 2.642h-1.322c-.016.642-.807.513-1.32.661-1.468.514-2.576 1.388-4.624 1.321-2.681 1.062-5.441 2.045-6.605 4.624-.139.741-.734 1.028-1.321 1.32-.663.878-.625 2.458-1.982 2.643.205.896 1.654.548 2.642.66.86-1.561 3.572-1.274 5.284-1.982 5.766-1.719 11.227-3.744 17.174-5.283 1.234-.528 2.42-1.105 3.964-1.321 1.59.27 1.435-1.206 3.301-.661.816-.947 2.272-1.251 3.966-1.321.998-.982 2.898-1.065 4.622-1.322ZM183.064 105.54c-1.106 2.213-4.981 5.123-4.624 6.604 1.871-.11 2.753-1.209 4.624-1.32h.659c3.092-1.534 7.112-2.137 10.57-3.303h1.321c2.504-1.239 5.179-2.307 8.588-2.642-.084-1.459-2.803-.281-3.964-.66h-5.945c-3.201 1.755-8.466-.144-10.57 1.321 1.559 1.31-.059 1.31-.659 0ZM206.843 116.769c.194-1.347 1.787-1.295 1.982-2.642-2.378-.177-3.183 1.22-5.284 1.321-.108.773-1.205.557-1.983.66-.106.774-1.204.556-1.981.661-1.741 1.12-3.769 1.955-6.606 1.981-4.335 2.489-9.755 3.895-15.192 5.284-1.537 1.106-3.558 1.725-5.944 1.982-.111.769-1.044.717-1.982.661-4.732 1.652-7.995 4.775-10.566 8.587-.141.74-.735 1.027-1.323 1.321.814 2.006 2.272-.717 3.963 0 .107-.775 1.204-.558 1.982-.661 2.215-1.308 4.873-2.173 7.926-2.642 1.264-1.158 3.443-1.4 5.284-1.982 2.708-.814 4.605-2.44 7.926-2.643 1.525-.896 2.945-1.897 5.285-1.98 1.859-1.223 4.351-1.815 6.605-2.643h.661c1.484-1.157 3.713-1.569 5.284-2.642.293-.588.578-1.181 1.322-1.321-.123-.562.256-.624.661-.66.291-.588.579-1.182 1.319-1.321-.107-.768.146-1.175.661-1.321Z" style="fill:#8a9d3b;fill-rule:nonzero" transform="translate(-427 -186.345) scale(4.16667)"/>
  <path d="M199.577 133.941c-1.249.149-1.458-.743-2.642-.659h-1.321v.659c2.045.157 2.565 1.839 3.963 2.644.403.036.782.097.661.659 2.816.928 4.725 2.761 6.605 4.624 2.092.551 3.358 1.927 4.623 3.303 2.093.55 3.358 1.927 4.624 3.302 1.808.616 2.817 2.028 4.623 2.643-2.321 2.312-9.482 3.272-9.247 5.945h.661c.562-.98 1.662-1.42 3.303-1.322 2.391-1.571 5.977-1.949 9.247-2.642h1.321c-.233-.867-1.162-1.038-1.321-1.981-7.312-4.798-14.117-10.103-21.136-15.192-1.396-.587-1.953-2.012-3.964-1.983Z" style="fill:#f7b018;fill-rule:nonzero" transform="translate(-427 -186.345) scale(4.16667)"/>
  <path d="M264.309 157.721c-1.693-.51-3.745-.659-4.624-1.982-1.046-.055-2.521.317-2.643-.66-2.811-.71-7.024-.02-8.587-1.982 2.583-.94 5.345-1.701 7.928-2.642.987-.113 2.437.236 2.64-.66-5.546-.262-9.611.957-13.87 1.981-1.221.981-3.136 1.265-5.284 1.321-2.549-1.194-4.61-2.875-6.605-4.624-1.658-.983-3.638-1.646-4.623-3.302h-.661c-3.034-2.032-5.852-4.276-9.248-5.945 2.589-2.035 6.856-2.391 10.57-3.302-1.867-2.034-4.56.687-7.267 0-2.004 1.097-8.564 1.097-10.569 0-.265-.017-1.61.223-1.32.661 3.596 5.406 16.498 8.681 21.136 14.531 2.21.653 3.075 2.649 5.285 3.302-1.266 1.158-3.445 1.401-5.285 1.982-.601 1.16-2.315 1.208-3.302 1.981.017.643.808.512 1.322.661 3.758-.424 6.519-1.847 10.567-1.981h2.642c2.005-1.098 8.564-1.098 10.569 0 2.551-.13 4.866-.025 6.605.66h4.624Z" style="fill:#f7b018;fill-rule:nonzero" transform="translate(-427 -186.345) scale(4.16667)"/>
  <path d="M148.716 101.577c-5.493 1.551-12.76 1.331-19.154 1.981h-2.641c-6.611 1.976-17.831-.656-24.441 1.321 1.575 1.068 2.912 2.372 4.624 3.302.741.14 1.029.734 1.322 1.321 2.72.362 3.864 2.3 5.943 3.303 1.396.587 1.953 2.011 3.965 1.982 2.02.48 1.942-1.14 3.963-.66 12.331-.877 24.068-2.351 36.329-3.303 6.29-2.075 17.885 1.153 19.814-5.284-2.146-.056-4.062-.341-5.285-1.321-1.532.209-2.536-.106-3.302-.661-3.583-.82-6.545-2.262-9.908-3.303-.702 1.5-4.152.252-5.945.661-.491 1.49-3.705.259-5.284.661Z" style="fill:#8a9d3b;fill-rule:nonzero" transform="translate(-427 -186.345) scale(4.16667)"/>
  <path d="M159.287 114.127c4.161.68 6.697 2.987 11.227 3.302.27-2.812 3.366-2.799 3.302-5.945-3.902.942-8.604 1.084-13.209 1.321-1.928-.185-2.271.159-1.32 1.322Z" style="fill:#f7b018;fill-rule:nonzero" transform="translate(-427 -186.345) scale(4.16667)"/>
</svg>
